<svg width="238" height="48" viewBox="0 0 238 48" fill="none" xmlns="http://www.w3.org/2000/svg">
<path d="M18.8882 21.9748C18.1678 21.9748 17.4474 21.9748 16.7269 21.9748C16.4189 21.9748 16.1162 21.9329 15.8395 22.1582C15.6933 22.2735 15.521 22.1582 15.3957 22.0272C15.2704 21.8962 15.2443 21.739 15.3174 21.587C15.401 21.4141 15.5732 21.2831 15.7455 21.3512C16.5912 21.6866 17.4682 21.4403 18.3296 21.5084C18.6585 21.5346 18.9978 21.5241 19.3267 21.5084C19.5564 21.4979 19.7182 21.587 19.8749 21.7442C20.4178 22.2997 20.9764 22.8394 21.5245 23.4002C21.6498 23.5259 21.7699 23.5783 21.9421 23.5783C22.5634 23.5679 23.1794 23.5783 23.8006 23.5731C23.8894 23.5731 24.0146 23.6203 24.0616 23.5312C24.1243 23.4106 23.9833 23.3478 23.9207 23.2796C22.7409 22.0848 21.5558 20.8953 20.3656 19.711C19.7339 19.0821 19.097 18.4637 18.4653 17.8349C18.3714 17.7406 18.267 17.7039 18.1365 17.7039C17.0036 17.7039 15.8708 17.7039 14.738 17.7039C14.6388 17.7039 14.5448 17.7144 14.4456 17.7773C14.2264 17.9188 13.8609 17.8349 13.6991 17.641C13.5059 17.4052 13.5112 17.1432 13.7304 16.9074C13.9131 16.7135 14.1376 16.5772 14.4456 16.8026C14.6075 16.9231 14.7693 16.9336 14.952 16.9336C16.0587 16.9336 17.1602 16.9388 18.267 16.9283C18.528 16.9283 18.7211 17.0174 18.8882 17.1903C20.115 18.4218 21.3418 19.6638 22.5738 20.8953C24.401 22.7242 26.2333 24.5478 28.0552 26.3819C28.1858 26.5129 28.311 26.5758 28.4938 26.5653C28.7496 26.5549 29.0106 26.5496 29.2664 26.5653C29.4752 26.5758 29.5587 26.5234 29.5692 26.2824C29.5848 25.9365 29.4856 25.6902 29.2298 25.4544C28.7026 24.9618 28.2014 24.4378 27.695 23.9294C27.6167 23.8508 27.528 23.8037 27.4079 23.788C27.2409 23.7565 27.0529 23.7146 27.0321 23.484C27.0112 23.2534 27.0059 23.0438 27.2878 22.9547C27.528 22.8761 27.7055 22.9809 27.7733 23.1853C27.8778 23.505 28.1231 23.6989 28.3372 23.919C28.8018 24.4011 29.2768 24.8779 29.7728 25.3339C30.0129 25.5539 30.0234 25.8107 30.0181 26.0989C30.0077 26.5706 30.0181 26.5706 30.4827 26.5706C31.1614 26.5706 31.8348 26.5601 32.5135 26.5706C32.7327 26.5706 32.7902 26.5077 32.7849 26.2928C32.7693 25.7845 32.7745 25.2815 32.7849 24.7731C32.7849 24.5688 32.7327 24.4902 32.5135 24.4954C31.8296 24.5111 31.1405 24.4954 30.4566 24.5059C30.2739 24.5059 30.1486 24.4482 30.0181 24.3172C29.0419 23.332 28.05 22.3521 27.0738 21.3669C26.9433 21.2359 26.8128 21.1783 26.6353 21.1835C26.0141 21.1887 25.3981 21.1835 24.7768 21.1887C24.5941 21.1887 24.4636 21.1311 24.3331 21.0053C23.4247 20.0883 22.5112 19.1764 21.6028 18.2646C21.5245 18.186 21.4619 18.1022 21.3418 18.076C21.0494 18.0078 20.9607 17.8611 20.992 17.5676C21.0233 17.3266 21.1747 17.2585 21.3888 17.2585C21.6707 17.2585 21.8169 17.4 21.8012 17.6777C21.796 17.8035 21.8795 17.8716 21.9421 17.9345C22.8244 18.8253 23.7119 19.7057 24.5941 20.5966C24.6933 20.6961 24.7873 20.7276 24.9126 20.7276C25.4659 20.7276 26.0193 20.7276 26.5674 20.7276C26.7501 20.7276 26.8389 20.6647 26.8076 20.476C26.8076 20.4551 26.8076 20.4394 26.8076 20.4184C26.8911 19.8577 26.6875 19.4542 26.2647 19.0559C24.97 17.8192 23.7275 16.5248 22.4694 15.2514C22.3441 15.1256 22.2136 15.0942 22.0466 15.0942C20.282 15.0942 18.5228 15.0942 16.7583 15.0994C16.5599 15.0994 16.4137 15.0523 16.2728 14.8951C15.9856 14.5754 15.6776 14.2767 15.3644 13.978C15.26 13.8784 15.166 13.7422 15.0042 13.7317C14.7432 13.716 14.6127 13.5273 14.6231 13.3282C14.6336 13.1395 14.7484 12.9352 15.0042 12.909C15.2704 12.8828 15.4218 13.0452 15.474 13.2601C15.5158 13.433 15.5889 13.5483 15.7142 13.6479C15.7403 13.6688 15.7664 13.7003 15.7925 13.7265C16.0953 14.0252 16.3459 14.4392 16.7061 14.5859C17.0767 14.7379 17.5518 14.6278 17.9798 14.633C18.4288 14.633 18.8725 14.633 19.3215 14.633C19.3841 14.633 19.4624 14.6645 19.499 14.5859C19.5303 14.5125 19.4572 14.4863 19.4207 14.4496C18.836 13.8575 18.2461 13.2653 17.6562 12.6679C17.5727 12.5841 17.4682 12.5631 17.3482 12.5631C16.8418 12.5631 16.3406 12.5736 15.8342 12.5631C15.662 12.5631 15.5419 12.6417 15.4218 12.7203C15.2287 12.8461 15.0825 12.7727 14.9416 12.647C14.7902 12.5107 14.7745 12.3273 14.8528 12.1544C14.9259 11.9919 15.1191 11.8766 15.2652 11.9395C15.9961 12.2592 16.7583 12.0443 17.4996 12.0967C17.6771 12.1124 17.8128 12.1491 17.9381 12.2854C18.6481 13.0085 19.3737 13.716 20.0837 14.4392C20.2142 14.5702 20.3343 14.633 20.5222 14.633C21.0912 14.6226 21.6655 14.633 22.2345 14.6278C22.4224 14.6278 22.5581 14.6802 22.6887 14.8112C23.0436 15.1728 23.4039 15.5344 23.7693 15.8855C23.8163 15.9327 23.8528 16.0584 23.9677 15.9903C24.046 15.9431 24.046 15.8645 24.046 15.7912C24.046 15.2357 24.046 14.6802 24.046 14.13C24.046 13.9885 23.9781 13.8889 23.8789 13.7894C23.2733 13.1867 22.6678 12.5788 22.0727 11.9709C21.9891 11.8871 21.9004 11.8819 21.8064 11.8504C21.6394 11.798 21.4671 11.7299 21.441 11.515C21.4149 11.3159 21.4358 11.1482 21.6446 11.0329C21.8847 10.9072 22.1927 11.0277 22.2345 11.3107C22.2554 11.4574 22.3232 11.5465 22.4172 11.6356C23.0384 12.2539 23.6597 12.8723 24.2809 13.4907C24.4323 13.6426 24.5106 13.8156 24.5106 14.0409C24.5001 14.8165 24.5106 15.592 24.5054 16.3624C24.5054 16.5458 24.5576 16.6768 24.6881 16.8078C25.4816 17.5991 26.2646 18.4009 27.0634 19.1922C27.2148 19.3389 27.2722 19.4856 27.267 19.69C27.2565 19.9782 27.2774 20.2664 27.2617 20.5494C27.2461 20.7852 27.3244 20.9477 27.4914 21.1154C28.4102 22.0219 29.3186 22.9338 30.2269 23.8508C30.347 23.9766 30.4619 24.0342 30.6394 24.029C31.2606 24.0185 31.8766 24.0185 32.4978 24.029C32.6962 24.029 32.7849 23.9923 32.7849 23.767C32.7849 23.1172 32.7902 23.0857 32.1428 23.1277C31.6782 23.1539 31.3389 23.0281 31.0413 22.6613C30.7751 22.3259 30.441 22.0429 30.133 21.739C30.0233 21.6342 29.9033 21.5451 29.7467 21.5241C29.5065 21.4927 29.4491 21.3302 29.4491 21.1206C29.4491 20.8848 29.6162 20.7695 29.8093 20.7171C30.0077 20.6647 30.2165 20.8009 30.2322 20.9634C30.2791 21.3931 30.655 21.5451 30.8691 21.8333C30.9526 21.9433 31.0935 22.0062 31.1718 22.1163C31.4955 22.5774 31.9236 22.7608 32.4717 22.6613C32.5709 22.6403 32.7327 22.7294 32.7641 22.5774C32.7902 22.4412 32.8215 22.2944 32.6805 22.1634C32.1794 21.6866 31.6939 21.1887 31.2032 20.6961C29.3395 18.8253 27.4758 16.9493 25.6121 15.0785C25.4816 14.9475 25.445 14.806 25.445 14.6278C25.4503 13.2339 25.445 11.8347 25.4503 10.4408C25.4503 10.2049 25.3876 10.1211 25.1475 10.1263C24.5941 10.1421 24.0408 10.1263 23.4926 10.1316C23.3099 10.1316 23.1742 10.0739 23.0489 9.94293C22.6834 9.57086 22.3024 9.21976 21.9421 8.84245C21.8116 8.70621 21.6863 8.65904 21.5036 8.65904C20.5431 8.66428 19.5773 8.66428 18.6167 8.65904C18.434 8.65904 18.2617 8.67476 18.1208 8.79529C17.9224 8.96298 17.7397 8.86866 17.5935 8.72717C17.4213 8.55948 17.4265 8.34986 17.5935 8.17169C17.724 8.0302 17.9015 7.94635 18.0843 8.07212C18.2774 8.20313 18.4862 8.20313 18.7055 8.20313C19.713 8.20313 20.7258 8.20313 21.7333 8.20313C21.9056 8.20313 22.0309 8.25554 22.151 8.37606C22.4903 8.73241 22.8401 9.08351 23.1898 9.43462C23.3047 9.5499 23.4352 9.61279 23.6127 9.60755C23.9938 9.59707 24.3749 9.60755 24.7559 9.61803C24.8186 9.61803 24.8708 9.61803 24.8969 9.55514C24.9126 9.50274 24.8708 9.48178 24.8343 9.4451C23.9311 8.53852 23.0332 7.62669 22.1301 6.72011C22.0466 6.63627 21.9369 6.59958 21.8012 6.59958C20.8093 6.61006 19.8227 6.61006 18.8308 6.59958C18.6637 6.59958 18.5489 6.68867 18.4184 6.75155C18.1573 6.87732 17.9068 6.82492 17.724 6.5891C17.5466 6.36377 17.5518 6.09127 17.7397 5.86593C17.8963 5.67204 18.2617 5.58295 18.4549 5.74016C18.6428 5.89214 18.836 5.90262 19.0553 5.90262C20.0576 5.90262 21.0547 5.90262 22.057 5.89738C22.2554 5.89738 22.4068 5.94978 22.5477 6.09651C23.6962 7.25463 24.8499 8.40751 26.0036 9.56038C26.1237 9.68091 26.1655 9.81716 26.1655 9.98485C26.1602 11.4207 26.1655 12.8513 26.1602 14.2872C26.1602 14.4916 26.2229 14.6226 26.3691 14.7693C28.4207 16.813 30.4619 18.8725 32.5083 20.9215C32.5761 20.9896 32.644 21.1154 32.7484 21.0682C32.8372 21.0263 32.7849 20.8953 32.7849 20.8009C32.7849 19.0402 32.7849 17.2847 32.7849 15.5239C32.7849 15.3405 32.738 15.2095 32.6022 15.0785C32.1794 14.675 31.72 14.2977 31.3754 13.8365C30.7333 12.9771 29.9294 12.2801 29.1985 11.5098C29.0993 11.405 29.1098 11.2845 29.1098 11.1639C29.1098 10.6556 29.0993 10.1525 29.1098 9.64423C29.1098 9.38221 29.0262 9.18308 28.8331 8.99967C28.4155 8.59616 28.0135 8.18217 27.6115 7.76294C27.5019 7.64765 27.387 7.61097 27.2409 7.61621C26.8128 7.62145 26.3847 7.61621 25.9566 7.61621C25.7948 7.61621 25.6747 7.56905 25.5599 7.45376C24.6098 6.49478 23.6544 5.54103 22.6991 4.58205C22.5999 4.48248 22.5007 4.39863 22.3337 4.40387C22.0988 4.4196 22.01 4.22046 21.963 4.04753C21.9056 3.85364 22.0518 3.69119 22.2084 3.62306C22.3702 3.5497 22.6208 3.53922 22.6939 3.71739C22.9497 4.36719 23.5239 4.72354 23.9677 5.19517C24.4218 5.68252 24.9021 6.14367 25.372 6.6153C25.4033 6.64675 25.4503 6.67295 25.4711 6.71487C25.7687 7.20746 26.2385 7.1865 26.7188 7.1603C26.912 7.14982 26.8702 7.03977 26.7971 6.96117C26.5465 6.69391 26.2855 6.43189 26.0193 6.18036C25.9097 6.07555 25.7322 6.12271 25.5964 6.03887C25.4085 5.92358 25.325 5.77161 25.3772 5.57247C25.4242 5.37858 25.5756 5.23185 25.7791 5.24233C25.9462 5.24757 26.1341 5.30522 26.1759 5.53055C26.2124 5.74016 26.3691 5.87117 26.5048 6.00742C27.2617 6.77252 28.0239 7.53237 28.7861 8.29222C28.8435 8.34986 28.8905 8.47563 29.0054 8.43371C29.1307 8.38654 29.0993 8.26078 29.0993 8.15597C29.0993 7.6791 29.0993 7.20222 29.0993 6.72011C29.0993 6.48954 29.0158 6.30612 28.854 6.14367C27.6898 4.98031 26.5204 3.82219 25.3615 2.65359C25.2623 2.55403 25.1736 2.47542 25.017 2.44922C24.7977 2.41254 24.6463 2.26057 24.6724 2.01427C24.6933 1.79942 24.8081 1.64745 25.0535 1.63697C25.2884 1.63173 25.4711 1.68413 25.4764 1.96711C25.4764 2.12956 25.6017 2.21865 25.6956 2.30773C26.8911 3.51301 28.0866 4.71306 29.2925 5.90262C29.4856 6.09127 29.5744 6.29564 29.5744 6.57338C29.564 8.00924 29.5744 9.43986 29.5639 10.8757C29.5639 11.1063 29.6162 11.274 29.7989 11.4364C30.2217 11.8137 30.6185 12.2277 31.0309 12.6312C31.0935 12.5317 31.0674 12.4216 31.0674 12.3221C31.0674 11.6984 31.0674 11.0801 31.0674 10.4565C31.0674 10.2836 31.057 10.1159 30.9787 9.94293C30.8899 9.74904 30.8743 9.50798 31.0518 9.30361C31.2188 9.11495 31.412 9.06255 31.6365 9.12019C31.8923 9.18308 32.0019 9.39793 32.0489 9.63375C32.075 9.77 32.0175 9.92197 31.9236 10.0215C31.7878 10.1683 31.7617 10.3255 31.767 10.5089C31.7722 11.3316 31.7722 12.1544 31.767 12.9771C31.767 13.1395 31.814 13.2601 31.934 13.3701C32.2003 13.6217 32.43 13.9099 32.7275 14.1352C32.8058 14.0252 32.7745 13.9204 32.7745 13.8208C32.7745 11.2006 32.7745 8.58044 32.7745 5.96026C32.7745 5.76637 32.7223 5.6406 32.5761 5.50435C32.2107 5.17421 31.8714 4.81262 31.532 4.45628C31.412 4.33051 31.2919 4.27811 31.1196 4.28335C30.6237 4.29383 30.1278 4.28335 29.6318 4.29383C29.4648 4.29383 29.3499 4.23618 29.2403 4.12614C28.901 3.78027 28.546 3.45013 28.2119 3.09903C28.0918 2.97326 27.9456 2.90513 27.8099 2.81081C27.5332 2.62739 27.5332 2.27629 27.8099 2.09812C28.0605 1.93567 28.4155 2.09812 28.4207 2.40206C28.4207 2.60643 28.5042 2.72696 28.6399 2.85273C28.9062 3.10427 29.1724 3.36104 29.4178 3.63354C29.5483 3.78027 29.684 3.83792 29.8772 3.83267C30.2792 3.82219 30.6759 3.82219 31.0779 3.83267C31.2397 3.83267 31.2971 3.78551 31.2919 3.62306C31.2815 3.30864 31.2815 2.99422 31.2919 2.67456C31.2971 2.53831 31.2449 2.43874 31.1614 2.34965C30.7385 1.92519 30.3157 1.50072 29.8928 1.07625C29.8041 0.987162 29.6997 0.95048 29.5692 0.95048C28.7391 0.95572 27.9143 0.95048 27.0843 0.95048C26.9851 0.95048 26.9015 0.976681 26.8024 1.03433C26.4474 1.25966 26.1811 1.12341 25.9827 0.856153C25.8261 0.641299 25.894 0.295435 26.1289 0.112023C26.3325 -0.045188 26.5727 -0.0189862 26.771 0.0805805C26.9068 0.148705 27.032 0.174907 27.173 0.174907C27.9926 0.174907 28.8122 0.174907 29.6318 0.174907C29.8928 0.174907 30.1121 0.248272 30.3052 0.452646C30.7907 0.966201 31.2971 1.46403 31.8035 1.95663C31.9445 2.09288 32.0019 2.23437 31.9967 2.42302C31.9862 2.82653 32.0019 3.22479 31.9914 3.6283C31.9914 3.79599 32.0437 3.91652 32.1533 4.03181C32.4978 4.37767 32.8319 4.73402 33.1921 5.06416C33.4062 5.25805 33.474 5.46767 33.474 5.75065C33.4688 10.0215 33.4688 14.2977 33.474 18.5686C33.474 21.1206 33.4897 23.6727 33.4897 26.2247C33.4897 29.8563 33.4688 33.4879 33.4845 37.1247C33.4845 37.5386 33.3696 37.8321 33.0721 38.1046C32.597 38.5396 32.6075 39.1841 33.0721 39.6348C33.2809 39.8392 33.3749 40.0593 33.3644 40.3632C33.3435 41.3484 33.3488 42.3336 33.3644 43.3188C33.3644 43.6122 33.2705 43.8061 33.0669 44.0052C32.2211 44.828 31.3911 45.6717 30.5558 46.5049C30.4723 46.5887 30.3783 46.6621 30.3783 46.8088C30.3783 47.0918 30.18 47.2281 29.9398 47.2857C29.6475 47.3538 29.4387 47.2071 29.2977 46.9451C29.1672 46.704 29.256 46.5101 29.423 46.3372C29.4804 46.2796 29.5483 46.1852 29.6109 46.1852C29.9607 46.1852 30.1173 45.9075 30.3209 45.7031C31.0465 44.9799 31.7565 44.2515 32.4874 43.5336C32.6127 43.4078 32.6649 43.2873 32.6597 43.1196C32.6544 42.386 32.6597 41.6471 32.6597 40.9134C32.5396 40.8663 32.4926 40.9711 32.4404 41.013C32.2786 41.1493 32.1533 41.3274 31.9862 41.4532C31.4172 41.8881 31.1666 42.4436 31.3023 43.1563C31.3598 43.4498 31.224 43.6489 31.0257 43.8376C30.3888 44.4559 29.7623 45.0848 29.1359 45.7084C29.0524 45.7922 29.0054 45.8918 28.974 46.0175C28.9323 46.1957 28.8435 46.3686 28.6086 46.3896C28.3998 46.4053 28.2432 46.3529 28.1492 46.1433C28.0448 45.918 28.191 45.6193 28.4677 45.5774C28.6086 45.5564 28.6974 45.483 28.7913 45.3887C29.4178 44.7599 30.039 44.1258 30.6707 43.5074C30.8064 43.3764 30.8534 43.2454 30.8482 43.0672C30.8377 42.8576 30.8691 42.6427 30.8429 42.4384C30.7855 42.0611 30.9474 41.8043 31.2084 41.558C31.6208 41.1702 32.0123 40.7615 32.4247 40.3737C32.5709 40.2374 32.5761 40.1221 32.4195 40.0121C32.0228 39.7501 31.9392 39.3623 31.9914 38.9273C31.9967 38.8802 32.0019 38.833 31.9914 38.7859C31.9079 38.309 32.075 37.9369 32.4508 37.6539C32.7223 37.4548 32.7954 37.198 32.7849 36.8679C32.7641 35.9508 32.7797 35.0338 32.7745 34.1167C32.7745 34.0381 32.8267 33.9228 32.7223 33.8914C32.6805 33.8756 32.597 33.9542 32.5448 34.0066C32.0332 34.515 31.5425 35.0442 31.0048 35.5316C30.8847 35.6364 30.8534 35.7779 30.8534 35.9456C30.8586 37.3395 30.8534 38.7387 30.8638 40.1326C30.8638 40.4156 30.7803 40.62 30.5872 40.8086C29.7206 41.6628 28.8592 42.5327 27.9926 43.3869C27.8203 43.5546 27.7211 43.7327 27.7525 43.9843C27.7733 44.1467 27.7316 44.3144 27.7629 44.4716C27.8517 44.9747 27.6533 45.3468 27.2774 45.6612C27.0216 45.8761 26.7919 46.1276 26.5518 46.3686C26.4839 46.4368 26.416 46.5101 26.3952 46.6202C26.343 46.9084 26.2281 46.987 25.9253 46.9608C25.6956 46.9398 25.5912 46.8088 25.586 46.5887C25.5756 46.332 25.7322 46.1852 25.9619 46.1538C26.0872 46.1381 26.1707 46.0804 26.249 46.0071C26.4891 45.7817 26.7032 45.5249 26.9537 45.3153C27.2565 45.0638 27.3609 44.7599 27.3035 44.3773C27.2931 44.3144 27.3401 44.2306 27.2513 44.2044C27.1782 44.1782 27.1312 44.262 27.0947 44.3039C26.6666 44.7232 26.2438 45.1529 25.8209 45.5774C25.7269 45.6717 25.6225 45.7503 25.5286 45.8446C25.4346 45.9389 25.3563 46.028 25.3511 46.18C25.3459 46.463 25.1266 46.6935 24.876 46.7197C24.5785 46.7512 24.3174 46.6097 24.2339 46.3739C24.1399 46.1014 24.2548 45.8079 24.5315 45.6664C25.1631 45.3415 25.5599 44.7546 26.0506 44.283C26.959 43.4078 27.8203 42.4803 28.7287 41.5999C29.1463 41.1964 29.5587 40.7877 29.9764 40.3842C30.0703 40.2951 30.1591 40.2007 30.1539 40.0488C30.1486 38.8435 30.1539 37.6382 30.1539 36.4329C30.1539 36.3962 30.1434 36.3596 30.1278 36.2914C29.7362 36.5849 29.4334 36.9412 29.1046 37.2661C28.6347 37.7378 28.1701 38.2094 27.695 38.6706C27.5541 38.8068 27.5019 38.9483 27.5019 39.137C27.5123 39.6138 27.5019 40.0907 27.5071 40.5728C27.5071 40.8139 27.434 41.013 27.267 41.1807C26.6144 41.8305 25.9671 42.4855 25.3145 43.1353C25.2101 43.2349 25.1475 43.3292 25.1109 43.4812C25.0639 43.6803 24.9439 43.848 24.6881 43.8533C24.4218 43.8585 24.3226 43.6751 24.26 43.4812C24.1974 43.2978 24.3488 43.0882 24.474 43.0725C24.8917 43.0305 25.0483 42.6637 25.3198 42.4489C25.372 42.4069 25.5077 42.3598 25.4555 42.234C25.4033 42.1187 25.2937 42.1554 25.2049 42.1554C24.9178 42.1554 24.6307 42.1659 24.3488 42.1554C24.1034 42.1397 23.9259 42.2392 23.7588 42.4122C23.4978 42.6899 23.2159 42.9572 22.9445 43.2244C22.7879 43.3764 22.626 43.5074 22.5947 43.7642C22.5738 43.9371 22.3911 44.0943 22.1823 44.0629C22.01 44.0367 21.8273 43.9633 21.8116 43.738C21.796 43.5336 21.7855 43.3292 22.0466 43.2611C22.4537 43.1511 22.6834 42.8314 22.9758 42.4855C22.4276 42.4855 21.9369 42.4698 21.4462 42.496C21.3 42.5013 21.2061 42.6794 21.1017 42.7947C20.9137 42.9991 20.6736 43.1458 20.6214 43.4707C20.5848 43.7013 20.2977 43.8061 20.0785 43.7327C19.901 43.6699 19.7704 43.5231 19.7861 43.3345C19.807 43.1144 19.9323 42.931 20.1985 42.9257C20.3812 42.9257 20.47 42.7685 20.5587 42.6532C20.9398 42.1554 21.4097 41.9196 22.0518 42.0139C22.3389 42.0558 22.6417 42.0139 22.934 42.0244C23.2316 42.0296 23.5291 42.0611 23.7484 41.7833C23.8319 41.6733 23.9677 41.689 24.093 41.689C24.6829 41.689 25.2728 41.6838 25.8627 41.689C26.0349 41.689 26.1655 41.6418 26.2751 41.5108C26.3482 41.427 26.4213 41.3431 26.5048 41.2803C26.959 40.9396 27.1365 40.4994 27.0477 39.9387C27.0216 39.7815 27.0634 39.6138 27.0425 39.4514C26.9694 38.9011 27.0999 38.44 27.5802 38.1151C27.6481 38.0679 27.695 37.9946 27.6742 37.9317C27.6533 37.8583 27.5593 37.8897 27.4967 37.8897C27.126 37.8897 26.7554 37.895 26.3847 37.8897C26.2385 37.8897 26.1394 37.9422 26.0402 38.0365C25.5129 38.5658 24.9804 39.0898 24.4584 39.6191C24.3853 39.6924 24.3227 39.7815 24.307 39.9073C24.2809 40.1012 24.166 40.2532 23.9572 40.2898C23.738 40.3318 23.5814 40.2322 23.4822 40.0331C23.3934 39.8549 23.4978 39.5247 23.691 39.5038C24.0616 39.4723 24.213 39.1789 24.4323 38.9745C24.9073 38.5186 25.3615 38.047 25.8261 37.5806C25.9253 37.481 26.0454 37.4286 26.202 37.4286C26.8128 37.4391 27.4236 37.4286 28.0291 37.4391C28.1962 37.4391 28.3163 37.3919 28.4259 37.2819C28.9584 36.7526 29.5796 36.2862 29.9972 35.6783C30.7438 34.5936 31.7879 33.8128 32.644 32.8485C32.7171 32.7647 32.7797 32.6808 32.7797 32.5551C32.7745 31.6275 32.7797 30.7 32.7797 29.7724C32.7797 29.7358 32.7693 29.6991 32.7536 29.5995C32.4978 29.8982 32.1585 30.0397 32.075 30.438C32.0228 30.6685 31.8505 30.8257 31.5738 30.7786C31.3493 30.7419 31.2188 30.569 31.2188 30.3751C31.2188 30.155 31.3493 29.9663 31.6208 29.9611C31.6573 29.9611 31.7095 29.9611 31.7304 29.9401C32.075 29.5995 32.4247 29.2641 32.7589 28.913C32.8006 28.8711 32.7849 28.7663 32.7849 28.6929C32.7849 28.3209 32.7745 27.9488 32.7849 27.5767C32.7954 27.3566 32.7014 27.2571 32.4978 27.2518C32.2316 27.2466 31.9653 27.2413 31.6991 27.2518C31.5477 27.2571 31.4172 27.3252 31.3023 27.4405C30.7438 28.0064 30.1747 28.5619 29.6057 29.1174C29.5796 29.1436 29.5483 29.1646 29.5222 29.1908C29.282 29.4737 29.3395 30.7471 29.6005 31.0092C29.778 31.1873 29.9503 31.376 30.1434 31.5384C30.4149 31.7743 30.6028 32.0363 30.5349 32.4241C30.5088 32.5603 30.6028 32.6756 30.6655 32.7909C30.7855 32.9953 30.7855 33.1944 30.6028 33.3516C30.441 33.4931 30.2269 33.4721 30.0703 33.3726C29.872 33.2416 29.872 33.011 29.9659 32.8118C30.1747 32.3455 29.992 31.7847 29.5431 31.6118C29.3812 31.5489 29.3865 31.6956 29.3865 31.8005C29.3865 32.3717 29.3708 32.9481 29.3865 33.5193C29.3969 33.8599 29.3186 34.1167 29.0471 34.3525C28.8279 34.5412 28.5512 34.7193 28.5146 35.0914C28.499 35.2381 28.2954 35.4058 28.0761 35.3482C27.8882 35.2958 27.7368 35.2014 27.7368 34.9604C27.7368 34.7351 27.7942 34.5883 28.0448 34.5359C28.4102 34.4521 28.5825 34.1115 28.8383 33.8809C28.9793 33.7551 28.9114 33.5769 28.9114 33.425C28.9166 32.3664 28.9114 31.3026 28.9114 30.2388C28.9114 30.1288 28.9323 30.0083 28.8801 29.9034C28.7809 29.851 28.76 29.9663 28.7339 29.9978C28.4677 30.3384 28.1544 30.5428 27.7055 30.4484C27.5854 30.4222 27.5019 30.4956 27.4288 30.5585C27.2095 30.7367 27.0112 30.7052 26.8285 30.5166C26.6771 30.3594 26.6771 30.1759 26.7971 29.9978C26.9537 29.7724 27.1834 29.8039 27.3818 29.893C27.7368 30.0554 28.0239 30.024 28.2902 29.762C29.0367 29.0231 29.7832 28.2842 30.5297 27.5453C30.5976 27.4772 30.7333 27.4352 30.6759 27.3042C30.6289 27.1994 30.5036 27.2466 30.4149 27.2466C29.778 27.2466 29.1411 27.2466 28.499 27.2466C28.3215 27.2466 28.1805 27.2937 28.05 27.4248C27.3087 28.1794 26.557 28.9235 25.8 29.6624C25.6643 29.7934 25.6695 29.9401 25.6695 30.1026C25.6695 31.659 25.6695 33.2206 25.6695 34.777C25.6695 35.0495 25.5912 35.2696 25.3928 35.4582C23.3934 37.3867 21.4619 39.378 19.4938 41.3431C19.3946 41.4427 19.2954 41.5318 19.2902 41.6942C19.2797 41.9825 19.0709 42.2026 18.8151 42.2392C18.575 42.2707 18.2513 42.0768 18.1678 41.8462C18.0842 41.6156 18.1887 41.3012 18.4549 41.1859C18.8464 41.0182 19.0866 40.6933 19.3685 40.4156C21.1643 38.6286 22.9445 36.8364 24.7351 35.0442C24.8238 34.9552 24.9021 34.8818 24.9021 34.7351C24.8969 33.3568 24.9021 31.9839 24.9021 30.6057C24.9021 30.5585 24.8865 30.5166 24.876 30.417C24.4479 30.8415 24.0512 31.2293 23.6544 31.6275C22.934 32.3455 22.2188 33.0634 21.5036 33.7813C21.394 33.8914 21.3366 34.0119 21.3418 34.1796C21.3522 34.8975 21.3418 35.6154 21.347 36.3281C21.347 36.5011 21.2948 36.6321 21.1695 36.7526C20.9868 36.9308 20.8145 37.1247 20.6318 37.3028C20.4804 37.4496 20.3395 37.5753 20.2977 37.8164C20.2664 37.9998 20.0785 38.157 19.854 38.1098C19.6713 38.0679 19.5094 37.9683 19.5094 37.7273C19.5094 37.5072 19.546 37.329 19.8122 37.3028C20.0263 37.2819 20.1359 37.1037 20.282 36.9832C20.7571 36.6111 20.992 36.1604 20.8876 35.5368C20.8459 35.2748 20.8876 35.0023 20.8772 34.7351C20.8772 34.6669 20.9189 34.5569 20.825 34.5412C20.7728 34.5307 20.7049 34.5883 20.6475 34.646C19.974 35.3325 19.2589 35.9718 18.622 36.6897C18.1887 37.1823 17.7345 37.4234 17.0819 37.3343C16.753 37.2871 16.4137 37.3238 16.0848 37.329C15.8447 37.329 15.6098 37.3133 15.3905 37.4915C15.2078 37.6435 15.0407 37.4915 14.9207 37.3395C14.7902 37.1823 14.7902 37.0146 14.9207 36.8574C15.0407 36.7159 15.1921 36.5535 15.3905 36.7054C15.5993 36.8626 15.8186 36.8679 16.0535 36.8679C16.5286 36.8626 17.0036 36.8626 17.4839 36.8679C17.6718 36.8679 17.8024 36.8207 17.9433 36.6792C19.4311 35.1752 20.9242 33.6817 22.4224 32.1882C22.4903 32.1201 22.6208 32.0625 22.5843 31.9629C22.5477 31.8738 22.4172 31.9157 22.3232 31.9157C21.3053 31.9157 20.2873 31.9053 19.2641 31.9157C19.0083 31.9157 18.8099 31.8371 18.6376 31.6642C17.9433 30.9672 17.2438 30.2755 16.5547 29.5733C16.4346 29.4528 16.3198 29.3899 16.1475 29.3951C15.7455 29.4056 15.3488 29.4004 14.9468 29.3951C14.8633 29.3951 14.7745 29.4213 14.7014 29.3532C14.5396 29.1803 14.3569 29.0702 14.1115 29.0126C13.9079 28.9654 13.8557 28.7401 13.8975 28.52C13.9392 28.3051 14.075 28.2423 14.2786 28.2318C14.5239 28.2161 14.6701 28.3418 14.7014 28.5567C14.7432 28.8606 14.905 28.9549 15.1869 28.9445C15.5315 28.934 15.876 28.9602 16.2153 28.934C16.492 28.913 16.6904 29.0126 16.8731 29.2012C17.5361 29.8825 18.2148 30.548 18.8778 31.2293C18.9874 31.3393 19.1022 31.376 19.2484 31.376C19.7078 31.376 20.162 31.3812 20.6162 31.3917C20.6788 31.3917 20.731 31.4022 20.7571 31.3341C20.7728 31.2817 20.731 31.2607 20.6945 31.2293C20.4909 31.0354 20.282 30.8415 20.0941 30.6266C20.0158 30.5375 19.9271 30.5585 19.8435 30.527C19.6817 30.4589 19.5094 30.3908 19.4938 30.1707C19.4781 29.9663 19.5094 29.8039 19.7235 29.7043C19.9532 29.6047 20.2612 29.7358 20.2925 29.9925C20.3134 30.1497 20.3812 30.2388 20.4856 30.3436C20.778 30.6266 21.0547 30.9253 21.3366 31.2135C21.4462 31.3236 21.5663 31.3865 21.7333 31.3812C22.151 31.3707 22.5738 31.3707 22.9914 31.3812C23.1585 31.3812 23.2786 31.3288 23.3882 31.2188C23.8424 30.7629 24.3749 30.3594 24.7351 29.8353C25.3615 28.9287 26.2438 28.2789 26.959 27.4614C27.0112 27.3986 27.079 27.3462 27.0373 27.278C26.9903 27.1889 26.8859 27.2361 26.8024 27.2361C24.5001 27.2361 22.1927 27.2361 19.8905 27.2361C19.6556 27.2361 19.4885 27.1732 19.3267 27.0055C19.0187 26.6806 18.6689 26.3924 18.3766 26.057C18.2148 25.8736 18.0425 25.8212 17.8128 25.8212C14.3151 25.8212 6.11906 25.8212 2.6266 25.8212C-1.35136 25.8212 5.31511 25.8212 1.33193 25.8212C1.15444 25.8212 0.992606 25.8212 0.820332 25.9313C0.621956 26.0675 0.251306 25.947 0.110355 25.7478C-0.0410372 25.5382 -0.0358146 25.2448 0.120798 25.0509C0.287851 24.8413 0.554094 24.7731 0.815114 24.9251C1.00827 25.0352 1.20142 25.0456 1.41024 25.0456C8.9172 25.0456 10.4729 25.0456 17.9798 25.0404C18.2826 25.0404 18.5175 25.1033 18.7107 25.3496C18.8882 25.5697 19.1231 25.7426 19.3006 25.9627C19.666 26.4186 20.1098 26.5601 20.6997 26.5444C22.7252 26.5025 24.7559 26.5287 26.7867 26.5287C26.8702 26.5287 26.9903 26.5915 27.0373 26.471C27.0843 26.361 26.9642 26.3033 26.9015 26.2457C26.2124 25.554 25.5181 24.8622 24.8238 24.1757C24.7142 24.0657 24.5889 24.008 24.4218 24.0133C23.5292 24.0238 22.6312 24.0133 21.7385 24.0238C21.5558 24.0238 21.4253 23.9714 21.3 23.8404C20.7832 23.3163 20.2455 22.808 19.7339 22.2787C19.5773 22.1163 19.4938 22.1268 19.3424 22.2787C18.9456 22.6875 18.5175 23.0595 18.1312 23.4735C17.9329 23.6884 17.7136 23.767 17.4369 23.7617C13.0361 23.7617 9.01639 23.7617 4.61558 23.7617C4.42764 23.7617 4.25536 23.7565 4.07265 23.8718C3.92126 23.9714 3.69156 23.9504 3.56627 23.7722C3.4462 23.5993 3.43576 23.3897 3.57671 23.222C3.71766 23.0491 3.92648 23.0333 4.1092 23.1486C4.29713 23.2692 4.48507 23.3058 4.69911 23.3058C9.02161 23.3058 12.9682 23.3058 17.2908 23.3058C17.5466 23.3058 17.7293 23.222 17.9068 23.0438C18.2409 22.7084 18.5959 22.394 18.9404 22.0691L18.8725 21.9591L18.8882 21.9748Z" fill="white"/>
<path d="M42.0251 47.836C40.3963 47.7574 38.8406 47.1862 37.5982 45.9128C36.9456 45.2473 36.5123 44.435 36.2617 43.5284C36.0164 42.6481 35.8911 41.7572 35.9485 40.8506C35.9955 40.1432 36.0634 39.441 36.2409 38.744C36.3505 38.309 36.4549 37.8793 36.575 37.4444C36.6324 37.24 36.4392 37.0409 36.3557 36.847C36.0425 36.1133 35.8128 35.3587 35.6718 34.5674C35.5204 33.729 35.416 32.8853 35.4839 32.0363C35.5413 31.3498 35.6196 30.6634 35.7762 29.9874C35.9537 29.238 36.1626 28.4991 36.4758 27.7916C36.5332 27.6659 36.4027 27.5611 36.34 27.4667C35.4839 26.2353 35.3012 24.8466 35.4943 23.4159C35.6353 22.3626 36.0634 21.3827 36.6481 20.4918C36.8464 20.1826 36.8621 19.9783 36.6742 19.6639C36.2513 18.9407 35.9798 18.1599 35.7867 17.3371C35.5465 16.3257 35.5204 15.3039 35.604 14.2872C35.6718 13.475 35.8232 12.6627 36.126 11.8976C36.1834 11.7457 36.1939 11.5989 36.0895 11.4313C35.6248 10.6819 35.3638 9.86439 35.202 8.99449C35.1237 8.58574 35.1028 8.17175 35.0454 7.76825C34.9619 7.14464 35.1132 6.52628 35.2855 5.92364C35.3116 5.82931 35.3273 5.74023 35.3273 5.6459C35.3743 4.1524 35.9015 2.84755 36.9195 1.76804C37.452 1.20732 38.1098 0.803814 38.8563 0.547037C39.8116 0.216894 40.7931 0.0649239 41.7849 0.122568C43.6956 0.227375 45.3923 0.824775 46.6034 2.42308C46.7913 2.66938 46.9479 2.69034 47.2246 2.59602C47.5326 2.49121 47.8824 2.51741 48.2008 2.57505C49.3128 2.78467 50.2211 3.37159 50.9572 4.21004C51.6463 4.9961 52.1631 5.88696 52.4137 6.92979C52.539 7.45906 52.633 7.97786 52.6173 8.52286C52.6121 8.71151 52.5025 8.86872 52.5077 9.05737C52.5077 9.1779 52.539 9.24603 52.6643 9.29319C53.557 9.62333 54.2565 10.2103 54.8412 10.9491C55.3946 11.6409 55.7809 12.4217 56.0628 13.2549C56.2403 13.7842 56.3708 14.3292 56.4595 14.8899C56.6318 15.9694 56.7049 17.0542 56.6736 18.1494C56.6736 18.2332 56.6892 18.3014 56.7519 18.38C57.0808 18.7782 57.2844 19.2289 57.2739 19.7634C57.2687 20.1879 57.3105 20.6124 57.1434 21.0211C57.039 21.2726 57.1956 21.5085 57.2635 21.7443C57.4149 22.2735 57.5297 22.8133 57.6289 23.3583C57.7385 23.94 57.7803 24.5269 57.8012 25.1086C57.8377 26.0623 57.702 27.0056 57.5036 27.9436C57.1173 29.7777 56.3551 31.4337 55.2797 32.9534C55.1753 33.1001 55.0918 33.2626 54.9613 33.3779C54.6794 33.6294 54.7211 33.8967 54.8412 34.2058C54.9978 34.6146 55.0813 35.0391 55.1753 35.4688C55.2745 35.9404 55.2849 36.4068 55.2745 36.8784C55.2432 38.178 54.8203 39.3466 54.0529 40.3895C52.9827 41.841 51.5419 42.8 49.9236 43.5389C49.3232 43.8114 48.7124 44.0629 48.0755 44.2359C47.9346 44.2726 47.8406 44.3931 47.7623 44.5084C46.9427 45.7346 45.8882 46.6884 44.557 47.3172C44.1185 47.5268 43.6382 47.6526 43.1423 47.7364C42.8081 47.7941 42.474 47.8098 42.0146 47.836H42.0251ZM36.3087 4.27293C36.4601 4.25721 36.5228 4.15764 36.6167 4.12096C36.7629 4.06331 36.8777 3.88514 37.0761 4.01615C37.3841 4.21004 37.3998 4.4773 37.0761 4.70264C36.1991 5.321 35.8493 6.20662 35.8023 7.23897C35.771 7.94642 35.8598 8.63814 36.0216 9.32463C36.1521 9.87487 36.34 10.3937 36.6219 10.881C36.8516 11.274 37.144 11.6094 37.5146 11.8819C37.7026 12.0182 37.76 12.2225 37.6504 12.4322C37.5407 12.6418 37.3371 12.5894 37.1597 12.5475C37.0866 12.5317 37.0187 12.4636 36.9561 12.406C36.8308 12.2959 36.7786 12.2907 36.7107 12.4793C36.4079 13.3597 36.3192 14.2872 36.2983 15.1991C36.2826 15.9589 36.3609 16.7293 36.5802 17.4786C36.7629 18.097 36.9717 18.6891 37.2745 19.2603C37.3632 19.428 37.4311 19.3442 37.5094 19.297C37.5616 19.2656 37.5929 19.1975 37.6347 19.1503C37.8383 18.9302 38.0784 18.883 38.2455 19.0298C38.4178 19.1817 38.4021 19.4333 38.1881 19.6481C37.8592 19.9835 37.5929 20.3713 37.3424 20.7591C37.1962 20.9844 36.9769 21.194 36.9665 21.477C36.9195 22.5251 36.9039 23.5784 37.3163 24.5741C37.7182 25.5435 38.4491 26.1252 39.5349 26.1776C39.9421 26.1986 40.3441 26.1462 40.7304 26.0414C41.0645 25.9523 41.3934 25.7951 41.5866 25.4806C41.8685 25.03 41.811 24.5583 41.5761 24.1286C41.2368 23.4998 40.5164 22.9286 39.5924 23.2692C39.3313 23.3635 39.1486 23.5836 39.1382 23.8666C39.1277 24.3278 39.2844 24.6946 39.7072 24.9356C39.8116 24.9933 39.9891 25.0667 39.9108 25.2501C39.8273 25.4492 39.655 25.4282 39.4984 25.3601C39.2165 25.2448 39.039 25.0143 38.8772 24.7627C38.5744 24.2858 38.5065 23.3478 39.1434 22.9758C39.7072 22.6509 40.2919 22.5722 40.8818 22.8552C41.6022 23.1959 42.0303 23.7618 42.2078 24.5741C42.3644 25.3025 41.8841 26.0361 41.3569 26.2929C40.6991 26.6178 40.0048 26.6912 39.2896 26.6283C38.7101 26.5759 38.1776 26.382 37.7287 25.9785C37.0552 25.3758 36.7525 24.6003 36.5854 23.7356C36.528 23.4317 36.5071 23.1225 36.4549 22.7714C36.2148 23.1068 36.2043 23.4579 36.1625 23.7775C36.0216 24.9147 36.2722 25.9837 36.8673 26.9584C37.0135 27.1995 37.1701 27.4405 37.4572 27.582C38.2925 28.0013 39.2008 28.0275 40.0935 28.127C40.8557 28.2109 41.6127 28.0589 42.3696 28.0065C42.6202 27.9908 42.8812 27.9489 43.1318 27.8912C43.7739 27.7392 44.4213 27.5925 45.0373 27.3357C45.742 27.0423 46.4207 26.7069 46.9271 26.1147C47.6161 25.3025 47.9764 24.3016 48.4096 23.3478C48.8899 22.305 49.3493 21.2464 49.9497 20.2665C50.5344 19.3023 51.2287 18.4219 52.2362 17.8454C52.8313 17.5048 53.4787 17.3476 54.1469 17.3686C54.6585 17.3791 55.1701 17.4891 55.6504 17.6882C55.8853 17.7878 55.8801 17.6673 55.8748 17.5101C55.8435 16.8079 55.8748 16.1057 55.76 15.3982C55.6243 14.6069 55.4624 13.8313 55.1649 13.082C54.6846 11.8714 53.9903 10.8443 52.8313 10.1841C52.3145 9.89059 52.2675 9.88535 51.923 10.3308C51.3696 11.0487 50.6492 11.4889 49.7878 11.7509C48.963 12.0025 48.1591 11.9605 47.3708 11.6933C46.546 11.4155 45.8308 10.9229 45.3348 10.1945C44.8963 9.55521 44.557 8.85824 44.818 8.0355C44.8441 7.9569 44.8598 7.86781 44.7971 7.77873C43.9827 8.13507 43.4189 8.72723 43.2362 9.60237C43.1057 10.226 43.1579 10.8863 43.3615 11.4941C43.5599 12.0758 43.6904 12.6785 43.7583 13.2759C43.8679 14.2034 43.7113 15.1047 43.184 15.9013C43.137 15.9694 43.09 16.0323 43.1214 16.1004C43.2362 16.3624 43.2884 16.6402 43.3563 16.9179C43.5651 17.7302 43.6486 18.5319 43.4607 19.3652C43.2623 20.2403 42.2182 21.0368 41.2003 20.5652C40.5999 20.2875 40.1823 19.559 40.5634 18.9459C40.9862 18.2647 41.7849 17.9555 42.3957 18.6839C42.5262 18.8411 42.6724 19.0245 42.4532 19.1975C42.2235 19.3809 42.1608 19.1031 42.046 18.9983C41.7588 18.7363 41.6701 18.6682 41.336 18.8306C41.0489 18.9721 40.8505 19.3075 40.9027 19.559C40.9653 19.8577 41.3621 20.1879 41.6753 20.2193C42.4688 20.2927 42.97 19.7058 43.0796 18.9512C43.1684 18.3538 43.0953 17.7511 42.9491 17.1747C42.9021 16.9808 42.8917 16.7659 42.7873 16.572C42.709 16.4253 42.6463 16.4463 42.5628 16.5092C41.8215 17.0227 41.0175 17.1013 40.1771 16.8445C39.8012 16.7293 39.5088 16.4725 39.4149 16.1057C39.1277 14.9895 40.01 13.6898 41.2838 13.9414C41.4978 13.9833 41.7171 14.0567 41.811 14.2715C41.8685 14.4025 41.8789 14.5755 41.7275 14.6908C41.5605 14.8218 41.3725 14.7956 41.2159 14.7065C41.0436 14.6122 40.8661 14.5912 40.72 14.675C40.4276 14.8375 40.2136 15.089 40.104 15.4139C40.01 15.6969 40.1405 16.0375 40.3702 16.1266C40.8557 16.3257 41.3464 16.2891 41.8163 16.0794C42.2496 15.8856 42.5523 15.5607 42.7768 15.1309C43.0065 14.696 43.0535 14.2191 43.0431 13.7685C43.0326 13.3911 42.9909 12.9929 42.9073 12.5999C42.7716 11.9763 42.5732 11.3736 42.474 10.7343C42.3905 10.205 42.4636 9.71242 42.5732 9.22507C42.7142 8.59098 43.0953 8.08267 43.586 7.6582C43.6278 7.62152 43.6904 7.6058 43.6695 7.53243C43.6486 7.44858 43.586 7.4381 43.5129 7.43286C43.2623 7.42238 43.0222 7.36998 42.782 7.31758C42.3279 7.21801 41.8789 7.10272 41.4822 6.86166C40.6365 6.34811 39.7542 6.12277 38.7675 6.35335C38.1202 6.50532 37.499 7.29137 37.5773 7.96738C37.6869 8.853 38.3865 9.36131 39.2269 9.27223C39.4723 9.24603 39.7594 8.99973 39.7699 8.69579C39.7803 8.32896 39.608 8.08791 39.3418 7.87829C39.2269 7.78397 39.086 7.68964 39.2321 7.51147C39.3627 7.35426 39.4827 7.39618 39.6289 7.50099C39.7855 7.61104 39.9108 7.74204 40.0204 7.89401C40.3911 8.40233 40.3389 9.38752 39.5558 9.65477C38.8928 9.88011 38.3081 9.72814 37.7965 9.30891C37.2484 8.85824 37.0187 8.27656 37.1753 7.54815C37.3058 6.93503 37.5773 6.44244 38.115 6.10181C38.3342 5.96556 38.5692 5.92888 38.8041 5.86076C39.2217 5.74547 39.6393 5.78215 40.057 5.8398C40.1196 5.85028 40.1823 5.91316 40.2397 5.866C40.318 5.80835 40.2397 5.74023 40.2188 5.68258C39.9943 5.01182 39.9996 4.34105 40.2084 3.67029C40.4903 2.77419 41.4665 2.24491 42.3487 2.54361C43.1788 2.82135 43.8522 3.64933 43.4607 4.66596C43.3667 4.90701 43.231 5.01182 42.9909 4.9699C42.7403 4.92273 42.7142 4.73408 42.7455 4.52971C42.7716 4.3725 42.876 4.2048 42.8499 4.05807C42.7455 3.44495 42.0355 3.03096 41.4456 3.30346C41.0854 3.47115 40.9706 3.77509 40.8505 4.11048C40.6625 4.63451 40.8087 5.39437 41.2055 5.78215C41.6597 6.22758 42.2391 6.44768 42.8342 6.57869C43.6225 6.74638 44.4265 6.84594 45.2356 6.82498C45.4444 6.82498 45.6115 6.7621 45.7838 6.63109C46.2275 6.29571 46.7443 6.11229 47.2977 6.15422C48.0233 6.20662 48.6863 6.47388 49.2084 6.98743C49.6051 7.37522 49.8557 7.87305 49.6782 8.43901C49.4433 9.18838 48.8116 9.50804 48.1225 9.7229C47.8876 9.79626 47.7258 9.64429 47.6527 9.4504C47.5848 9.26175 47.6788 9.10978 47.8824 9.02593C48.1747 8.9054 48.488 8.8268 48.7229 8.58574C49.0048 8.29228 49.057 8.06695 48.8273 7.71584C48.4357 7.1132 47.3917 6.72018 46.5668 7.05032C45.8308 7.34378 45.3139 8.26608 45.5593 8.99449C45.9613 10.205 47.1411 10.9806 48.2635 11.1273C48.9369 11.2164 49.5895 11.1116 50.2055 10.7919C51.0146 10.3779 51.6202 9.78054 51.782 8.86872C51.9178 8.09839 51.8395 7.3071 51.5419 6.5682C51.119 5.52013 50.4926 4.61355 49.5738 3.94279C49.0257 3.54452 48.4201 3.27202 47.7049 3.29822C47.3395 3.31394 46.9897 3.41351 46.6295 3.45543C46.4677 3.4764 46.3476 3.51832 46.2327 3.62313C45.8569 3.96375 45.6689 4.38822 45.6637 4.89653C45.6637 5.05898 45.6637 5.21619 45.434 5.21095C45.2147 5.20571 45.1887 5.06422 45.1939 4.89653C45.2095 4.22577 45.4392 3.65457 45.9665 3.23534C46.1544 3.08337 46.1388 2.9838 46.003 2.82135C45.0425 1.64227 43.7791 1.03963 42.2965 0.908621C41.5344 0.840496 40.7617 0.840496 39.9943 0.992467C39.2687 1.1392 38.5953 1.38025 37.9949 1.80996C37.1544 2.4126 36.6219 3.23534 36.3087 4.24673V4.27293ZM45.387 38.9274C45.3609 38.8855 45.3505 38.8488 45.3244 38.8226C45.267 38.7597 45.2095 38.7021 45.1469 38.6497C44.5152 38.1099 44.1968 37.4496 44.2646 36.6007C44.3325 35.7675 44.865 35.0076 45.8725 35.1281C46.546 35.212 47.2142 35.9509 47.1515 36.6321C47.0889 37.3343 46.8279 37.6383 46.1492 37.7798C45.9508 37.8217 45.7681 37.7221 45.5906 37.6697C45.5071 37.6435 45.5175 37.4915 45.5541 37.4025C45.6167 37.261 45.742 37.2348 45.8882 37.2557C46.4833 37.3343 46.6347 37.1038 46.6191 36.6321C46.6191 36.543 46.6086 36.4592 46.6086 36.3701C46.6086 35.867 45.8308 35.3692 45.2617 35.6784C44.818 35.9194 44.557 36.7369 44.7606 37.2872C45.0007 37.9527 45.7733 38.8383 46.7757 38.8698C47.3708 38.8907 47.8511 39.2156 48.206 39.6925C48.4879 40.0803 48.6132 40.5257 48.7124 41.0026C48.8638 41.7153 48.6602 42.3703 48.5245 43.0411C48.5088 43.1144 48.4044 43.1931 48.4775 43.2664C48.5402 43.3345 48.6446 43.2926 48.7229 43.2612C49.1353 43.0778 49.5529 42.9101 49.9549 42.7057C51.3122 42.0244 52.5442 41.1912 53.4682 39.944C54.2252 38.9274 54.5436 37.7798 54.5697 36.5378C54.5697 36.2705 54.4653 36.0085 54.4758 35.736C54.4862 35.474 54.387 35.2225 54.3244 34.9762C54.1886 34.4469 54.0007 33.9281 53.771 33.4355C53.5257 32.9062 53.2803 32.3717 52.7948 32.0101C52.0117 31.4284 51.1504 31.2188 50.1689 31.3918C49.4955 31.5123 48.8795 31.7271 48.3261 32.1254C47.9503 32.3927 47.6318 32.7333 47.5431 33.184C47.376 34.0172 47.5431 34.777 48.1747 35.4216C48.7072 35.9666 49.3389 36.2915 50.0645 36.4068C50.6074 36.4959 51.1765 36.4959 51.6359 36.0871C51.9804 35.7779 52.1423 35.3954 52.1997 34.929C52.2623 34.405 52.1683 33.9438 51.8134 33.5665C51.5106 33.2416 51.0982 33.1578 50.6649 33.1892C50.4561 33.2049 50.3151 33.1158 50.3047 32.88C50.2942 32.6547 50.383 32.508 50.6179 32.4818C51.9909 32.3298 52.8314 33.2416 52.9671 34.4574C53.0193 34.9342 52.9305 35.4006 52.7374 35.8303C52.4346 36.5064 51.9282 36.999 51.1974 37.109C50.5187 37.2138 49.8296 37.1981 49.1614 36.9256C47.9711 36.4435 47.1202 35.6784 46.8018 34.384C46.5877 33.5036 46.7704 32.7176 47.3342 32.0573C48.1121 31.1455 49.1718 30.7262 50.3464 30.6267C51.0564 30.569 51.7612 30.611 52.4137 30.9411C52.4659 30.9673 52.5286 30.9725 52.5808 30.9411C52.633 30.9097 52.6121 30.8573 52.5964 30.8101C52.398 30.1341 52.3824 29.4476 52.6382 28.7873C52.9619 27.9436 53.9328 27.1156 54.9613 27.9436C55.7078 28.5463 56.0001 29.7515 55.0605 30.459C54.7107 30.721 54.3087 30.873 53.8807 30.6896C53.3064 30.438 53.1707 29.762 53.5152 29.1961C53.6771 28.9288 53.8807 28.7506 54.2043 28.7821C54.34 28.7926 54.481 28.8554 54.4914 29.0441C54.5019 29.2485 54.3661 29.2485 54.2252 29.2485C53.9537 29.2485 53.8911 29.479 53.8232 29.6624C53.7501 29.8668 53.8232 30.0502 54.0007 30.1917C54.1678 30.3332 54.34 30.3018 54.5071 30.2232C55.3215 29.8563 55.3685 29.1384 54.8516 28.5043C54.6272 28.2318 54.3505 28.0013 53.9798 28.0799C53.5518 28.1794 53.2594 28.4938 53.108 28.9026C52.8366 29.6153 52.9514 30.3437 53.1341 31.0564C53.1707 31.2031 53.1916 31.3865 53.343 31.5071C53.7554 31.8424 54.0529 32.2669 54.2722 32.7543C54.3244 32.8643 54.387 32.9429 54.528 32.7647C54.9091 32.2721 55.2327 31.7481 55.5303 31.2084C55.9845 30.3804 56.3447 29.5105 56.6109 28.5987C56.8197 27.8702 56.992 27.1366 57.039 26.382C57.1225 25.0195 57.0703 23.6675 56.6945 22.3417C56.6266 22.1059 56.5535 22.0587 56.3551 22.2264C55.6451 22.8185 54.8151 22.7819 53.9851 22.6718C53.7293 22.6404 53.463 22.5408 53.2229 22.3888C52.2519 21.7652 52.1475 20.5128 52.7008 19.6481C53.1811 18.8935 53.7762 18.5791 54.4601 18.7363C54.6741 18.7835 54.8725 19.0036 54.8308 19.1713C54.7733 19.4018 54.6063 19.5066 54.3766 19.4542C54.0007 19.3704 53.7293 19.5381 53.5048 19.8001C52.9566 20.4394 52.8888 21.2255 53.5883 21.7233C54.0059 22.022 54.5228 22.043 55.0239 22.0011C55.4676 21.9591 55.8331 21.7652 56.115 21.4194C56.5431 20.9006 56.6683 20.2875 56.5587 19.6481C56.4856 19.2079 56.2768 18.8202 55.8383 18.6001C55.5251 18.4428 55.2014 18.3328 54.8569 18.249C54.2148 18.0917 53.5988 18.1179 52.9827 18.359C52.3145 18.621 51.8134 19.0874 51.3696 19.6219C50.4508 20.7434 49.8818 22.0639 49.2658 23.3635C48.6811 24.595 48.2896 25.9366 47.2455 26.906C47.2037 26.9479 47.1881 26.9846 47.2142 27.0318C47.2455 27.0999 47.2925 27.0423 47.3342 27.037C47.5692 27.0056 47.8041 26.9584 48.039 26.9113C48.7438 26.7593 49.4694 26.7855 50.1794 26.6859C50.905 26.5864 51.5889 26.3925 52.231 26.0623C52.6069 25.8684 52.9723 25.6169 53.0924 25.1819C53.2124 24.7418 53.1185 24.3173 52.7374 24.0238C52.3406 23.7199 51.8708 23.6308 51.4062 23.7933C50.9311 23.9609 50.691 24.354 50.6701 24.8623C50.6649 25.03 50.6231 25.1453 50.4247 25.14C50.2211 25.14 50.2002 25.0038 50.2002 24.8466C50.2002 24.5741 50.289 24.333 50.3986 24.0867C50.8371 23.0963 52.3511 23.0334 53.0976 23.7094C53.8076 24.354 53.818 25.6221 52.7583 26.2981C51.8447 26.8798 50.8215 27.1104 49.7722 27.21C49.104 27.2728 48.441 27.3253 47.778 27.4458C46.9062 27.603 46.0657 27.8336 45.2409 28.1532C43.988 28.6406 42.8603 29.3218 41.999 30.3751C41.1428 31.418 40.5999 32.5866 40.6991 33.9753C40.7304 34.405 40.9445 34.7613 41.2838 35.0391C41.7641 35.4321 42.3226 35.4426 42.8864 35.364C43.3302 35.3011 43.7583 34.8818 43.8209 34.5255C43.9723 33.6975 43.325 33.0058 42.5732 33.0425C42.2809 33.0582 42.0355 33.1525 41.7954 33.294C41.6492 33.3831 41.4978 33.3726 41.4195 33.2469C41.3308 33.1158 41.3986 32.9796 41.5396 32.8853C42.213 32.4556 43.1788 32.4241 43.8 33.0477C44.5309 33.7709 44.4996 35.0129 43.5964 35.5631C42.9856 35.9404 42.3226 35.9352 41.6388 35.757C40.9236 35.5683 40.2345 34.7508 40.2084 33.8809C40.1927 33.2573 40.3023 32.6599 40.4746 32.0678C40.4903 32.0206 40.5895 31.9839 40.5164 31.9263C40.4642 31.8844 40.4068 31.9263 40.3389 31.963C39.6916 32.3036 39.0442 32.5551 38.2716 32.3822C37.5042 32.2093 37.0448 31.6223 37.191 30.852C37.3737 29.8825 38.376 29.2589 39.3209 29.9245C39.6968 30.1917 39.8638 30.5323 39.7594 30.9463C39.7177 31.1193 39.5976 31.245 39.441 31.3132C39.3679 31.3446 39.2478 31.3551 39.2008 31.2712C39.1277 31.1245 39.1538 30.9883 39.2687 30.8468C39.3418 30.7524 39.3366 30.611 39.2374 30.5009C38.8667 30.0817 38.2716 29.9297 37.8435 30.5009C37.5877 30.8415 37.5042 31.4494 37.8905 31.6957C38.2716 31.9368 38.6527 32.0311 39.1173 31.9368C40.01 31.7481 40.6991 31.2555 41.242 30.5638C41.7327 29.9402 42.26 29.369 42.8969 28.8974C42.9856 28.8345 43.0274 28.7716 43.0587 28.6982C42.4166 28.7506 41.7954 28.8816 41.1637 28.8816C40.4015 28.8816 39.6446 28.9078 38.8876 28.7768C38.3499 28.6825 37.8226 28.5829 37.3267 28.3576C37.1283 28.2685 37.0448 28.3419 37.003 28.4729C36.8203 29.0493 36.6167 29.6205 36.4914 30.2179C36.4288 30.5009 36.4236 30.7891 36.3557 31.0669C36.2148 31.6433 36.2148 32.2407 36.2252 32.8171C36.2304 33.3202 36.2513 33.8495 36.3714 34.363C36.4967 34.9185 36.6272 35.4688 36.8151 36.0085C37.0291 36.6216 37.3267 37.1928 37.6504 37.7536C37.8331 38.0732 37.6713 38.3248 37.2902 38.3248C37.1858 38.3248 37.1179 38.3248 37.0761 38.4558C36.9038 38.9955 36.8673 39.5615 36.7525 40.1117C36.7211 40.2742 36.7107 40.4471 36.7525 40.6148C36.789 40.6148 36.7994 40.6148 36.8047 40.6148C36.836 40.5781 36.8673 40.5467 36.8986 40.51C37.6295 39.5353 38.5535 39.1737 39.7699 39.4567C40.934 39.7292 42.0251 40.9345 41.6231 42.3284C41.4665 42.8734 41.2055 43.3293 40.7565 43.6804C40.3389 44.0105 39.8638 44.1782 39.347 44.2883C38.825 44.3983 38.3969 44.2673 38.0054 43.9529C37.4207 43.4813 37.4155 42.3441 37.7235 41.7834C37.9688 41.3327 38.2977 41.0445 38.8458 41.0917C39.0181 41.1074 39.1643 41.1598 39.1486 41.3484C39.1382 41.5057 39.0129 41.5738 38.8406 41.5685C38.7101 41.5685 38.59 41.5528 38.4595 41.6367C37.8957 41.993 37.8748 43.062 38.2037 43.4603C38.5117 43.8271 38.8667 43.9005 39.3366 43.8114C40.0465 43.6752 40.6051 43.3345 40.9653 42.7162C41.2577 42.2131 41.3308 41.6733 41.1011 41.0969C40.7148 40.1274 39.3209 39.6034 38.4021 39.9178C37.4416 40.2532 36.6376 41.3589 36.7525 42.3546C36.789 42.6533 36.8569 42.952 36.9404 43.2507C37.2171 44.2883 37.7443 45.1477 38.5744 45.8289C39.3522 46.4683 40.2501 46.8508 41.2211 47.0185C41.7223 47.1076 42.2339 47.1705 42.7612 47.0657C43.2936 46.9661 43.8209 46.8665 44.3064 46.6255C45.5906 45.9914 46.5721 45.0534 47.3186 43.8114C47.7989 43.0149 48.0494 42.2079 47.9816 41.296C47.9294 40.5362 47.6631 39.9231 46.8488 39.6768C46.0291 39.4305 45.2356 39.6558 44.7867 40.3161C44.5726 40.6305 44.4996 40.9973 44.6666 41.3537C44.8389 41.7257 45.1939 41.8201 45.575 41.8148C46.0552 41.8148 46.2275 41.5371 46.0344 41.0759C45.9352 40.8454 46.0448 40.6829 46.2275 40.5676C46.405 40.4576 46.5773 40.5414 46.6765 40.6882C46.9218 41.0602 46.9531 41.9092 46.4468 42.2865C46.0448 42.5852 45.6324 42.6218 45.1365 42.5275C44.3377 42.3703 43.6434 41.5423 43.8835 40.6096C44.1028 39.7763 44.6196 39.2942 45.3766 38.9536L45.387 38.9274Z" fill="url(#paint0_linear_19_406)"/>
<path d="M49.4175 15.2673C49.5897 14.6332 49.6837 13.9991 49.5166 13.3546C49.4749 13.1869 49.548 13.0663 49.6994 13.0244C49.856 12.9825 49.9343 13.0506 49.9708 13.2235C50.1065 13.8157 50.0752 14.4026 49.9865 15C49.903 15.5398 49.7568 16.0481 49.5323 16.5459C49.1878 17.3163 48.5926 17.8613 47.9714 18.3905C46.9273 19.2866 45.7945 20.0832 44.9279 21.1784C44.4998 21.7182 44.1501 22.2841 44.2597 23.0282C44.3275 23.4737 44.9122 24.1182 45.3455 24.1864C45.6796 24.2388 46.2226 23.8772 46.3635 23.4999C46.494 23.1645 46.4053 22.8344 46.1599 22.7138C45.8728 22.5723 45.3455 22.6981 45.215 22.9706C45.1211 23.1697 44.9801 23.2274 44.8287 23.1226C44.6773 23.0178 44.7086 22.8501 44.813 22.6929C44.9383 22.5042 45.1054 22.3942 45.3038 22.2946C45.9668 21.9697 46.7707 22.3313 46.9221 23.0387C46.99 23.3479 46.8438 23.6204 46.7028 23.8824C46.4523 24.3593 45.7057 24.7523 45.2568 24.6475C44.7295 24.527 44.3275 24.2126 44.0509 23.7514C43.6019 23.002 43.7011 22.2579 44.1135 21.5347C44.6147 20.6491 45.356 19.9836 46.1025 19.3181C46.1547 19.2709 46.1912 19.2133 46.2643 19.1294C45.8154 19.1818 45.4395 19.3286 45.0427 19.3233C44.8966 19.3233 44.7347 19.339 44.7347 19.1189C44.7347 18.9198 44.8653 18.8726 45.0375 18.8517C45.9981 18.7469 46.9064 18.4953 47.7156 17.9346C48.1541 17.6307 48.436 17.1905 48.6605 16.7241C48.8902 16.2525 48.9685 15.7337 48.9059 15.2096C48.8119 14.4131 48.5143 13.7423 47.7678 13.3336C47.0683 12.951 46.1704 13.1659 45.6118 13.6061C45.3977 13.7738 45.3507 14.1511 45.4813 14.3869C45.7736 14.9005 46.2278 15.2044 46.7968 15.3302C47.0422 15.3826 47.2301 15.2306 47.3867 15.0577C47.4285 15.0105 47.4598 14.9424 47.4807 14.8847C47.6947 14.3817 47.7052 14.1144 47.0317 14.1825C46.8855 14.1982 46.7081 14.2402 46.6872 13.9991C46.6663 13.7476 46.8281 13.7109 47.0213 13.7161C47.2875 13.7214 47.559 13.6585 47.7991 13.8419C48.0445 14.0306 48.1437 14.4445 48.0549 14.6804C47.9244 15.0157 47.8357 15.3668 47.5172 15.5922C47.0161 15.9485 46.5097 15.8123 46.0398 15.5607C45.6118 15.3302 45.2255 15.0157 45.048 14.5336C44.8392 13.9729 44.9488 13.4489 45.4395 13.1345C46.0346 12.7519 46.682 12.579 47.3711 12.6995C48.128 12.8253 48.6709 13.2864 49.0311 13.9677C49.2452 14.3764 49.3757 14.8061 49.4279 15.2673H49.4175Z" fill="url(#paint1_linear_19_406)"/>
<path d="M55.1545 16.3994C55.1701 16.63 55.1127 16.7453 54.93 16.761C54.7473 16.7768 54.7212 16.6719 54.6899 16.5147C54.481 15.3461 54.2931 14.1723 53.6614 13.1347C53.4161 12.7312 53.155 12.3486 52.6748 12.181C52.539 12.1338 52.4346 12.029 52.4868 11.8456C52.539 11.6674 52.6904 11.7146 52.7948 11.7355C53.2177 11.8194 53.5048 12.1076 53.7554 12.4325C54.2252 13.0351 54.4967 13.7321 54.7212 14.4605C54.9248 15.1208 55.0031 15.802 55.1493 16.3994H55.1545Z" fill="url(#paint2_linear_19_406)"/>
<path d="M51.234 8.05714C51.234 8.19339 51.234 8.32964 51.234 8.46589C51.2392 8.63358 51.1975 8.74887 50.9991 8.74887C50.8059 8.74887 50.759 8.64406 50.7642 8.47113C50.8373 6.65797 49.8871 5.48413 48.4045 4.64043C48.2532 4.55134 48.1279 4.4413 48.2062 4.25789C48.3001 4.04303 48.5037 4.13736 48.6238 4.20548C49.5008 4.70332 50.2526 5.34264 50.7433 6.23874C51.0513 6.79946 51.2497 7.4021 51.234 8.06238V8.05714Z" fill="url(#paint3_linear_19_406)"/>
<path d="M54.0221 36.6375C53.949 37.0568 53.8133 37.4865 53.6462 37.8952C53.2234 38.9118 52.6335 39.8184 51.7982 40.5521C51.1665 41.1076 50.4357 41.4744 49.6578 41.7626C49.4908 41.8255 49.3342 41.7626 49.2872 41.6001C49.2402 41.4377 49.3603 41.3539 49.5117 41.3014C50.5662 40.9399 51.4693 40.3477 52.1741 39.4673C52.7692 38.718 53.2025 37.8952 53.4479 36.9677C53.4792 36.8367 53.5523 36.7266 53.5575 36.5851C53.5575 36.4122 53.641 36.2917 53.8394 36.3021C54.0691 36.3126 54.0117 36.4856 54.0273 36.6428L54.0221 36.6375Z" fill="url(#paint4_linear_19_406)"/>
<path d="M69.7772 27.8651V27.0109C71.7192 26.8275 71.9593 26.6755 71.9593 24.6685V10.1003C71.9593 8.24518 71.8079 8.06177 69.866 7.82071V7.02942C71.5052 6.84601 73.3793 6.35865 74.3503 5.99707V24.6737C74.3503 26.6808 74.533 26.8327 76.5011 27.0161V27.8703H69.772L69.7772 27.8651Z" fill="white"/>
<path d="M89.8654 15.3355C88.2888 15.5766 87.9547 15.8229 87.1977 17.5575C86.4408 19.2606 85.6212 21.3305 83.533 26.6233C81.5649 31.4916 81.0168 33.3781 80.5313 34.9607C80.3486 35.6 80.0145 35.752 79.6229 35.752C78.6519 35.752 77.7749 35.0498 77.7749 34.2899C77.7749 33.8969 77.9889 33.6191 78.4431 33.2261C79.4141 32.4663 80.1084 31.7379 80.4738 30.9728C81.1107 29.6941 81.5649 28.6303 81.7163 28.2321C81.8364 27.7761 81.8364 27.5036 81.6537 26.9849C80.4738 23.5157 78.8346 19.7741 77.9263 17.5837C77.2581 15.912 76.9866 15.5452 75.3213 15.3303V14.5076H81.4448V15.3303C80.051 15.5452 79.8996 15.8491 80.2911 16.9758L83.2302 24.459C84.0812 22.3576 85.2923 18.9828 85.9292 17.0649C86.2946 15.9067 86.0806 15.5766 84.3213 15.3303V14.5076H89.8654V15.3303V15.3355Z" fill="white"/>
<path d="M95.5612 27.8649V27.0107C96.8663 26.8587 97.1377 26.6439 96.6209 25.8264L94.35 22.2682C93.6818 23.3634 93.0188 24.4272 92.408 25.491C91.8338 26.5233 91.8912 26.8011 93.4678 27.0107V27.8649H87.741V27.0107C89.6516 26.7696 90.0432 26.5548 91.1656 25.0613C92.0165 23.8769 92.8048 22.6874 93.7131 21.3197L91.1081 17.2112C90.1998 15.7492 89.8344 15.5395 88.1377 15.3247V14.502H94.2299V15.3247C92.9562 15.5081 92.8361 15.7492 93.379 16.6348L95.1957 19.4017C95.77 18.5213 96.3755 17.4837 96.9237 16.5719C97.4405 15.7177 97.2578 15.4767 95.9527 15.3247V14.502H101.471V15.3247C99.8314 15.5081 99.1998 15.6286 97.9834 17.2112C97.5606 17.7877 96.8297 18.7938 95.8326 20.3135L98.7404 24.815C99.8941 26.4866 100.223 26.7644 102.076 27.0054V27.8596H95.5612V27.8649Z" fill="white"/>
<path d="M112.02 25.282C110.078 27.7135 107.959 28.2323 106.988 28.2323C103.292 28.2323 101.047 25.1877 101.047 21.6924C101.047 19.6224 101.773 17.7044 103.015 16.3682C104.289 14.9375 105.954 14.1462 107.531 14.1462C110.167 14.1462 112.167 16.4258 112.167 18.8626C112.135 19.4704 112.047 19.7429 111.561 19.8687C110.955 19.9892 107.077 20.2617 103.469 20.3875C103.381 24.4645 105.866 26.1362 108.016 26.1362C109.259 26.1362 110.413 25.6174 111.53 24.585L112.015 25.2872L112.02 25.282ZM106.805 15.3044C105.411 15.3044 104.049 16.6144 103.621 19.0774C105.317 19.0774 107.014 19.0774 108.805 18.9883C109.353 18.9883 109.53 18.8364 109.53 18.3804C109.562 16.7664 108.502 15.3096 106.8 15.3096L106.805 15.3044Z" fill="white"/>
<path d="M112.015 27.8651V27.0109C113.957 26.8275 114.198 26.6755 114.198 24.6685V10.1003C114.198 8.24518 114.046 8.06177 112.109 7.82071V7.02942C113.749 6.84601 115.628 6.35865 116.594 5.99707V24.6737C116.594 26.6808 116.776 26.8327 118.745 27.0161V27.8703H112.015V27.8651Z" fill="white"/>
<path d="M139.658 15.7909C137.538 16.032 137.173 16.5822 136.171 18.0705C135.382 19.2286 134.563 20.4444 133.472 22.0846C134.777 23.3318 137.747 26.6175 138.624 28.111L138.441 28.4464C136.776 28.2944 135.08 27.5922 134.714 27.1992C134.349 26.7747 132.897 25.3756 131.926 24.338C129.713 27.2883 127.714 28.2944 125.531 28.2944C121.621 28.2944 119.47 25.4332 119.47 22.7868C119.502 19.957 121.11 18.8304 124.017 16.9753C122.561 15.7281 121.653 14.3289 121.653 12.6572C121.684 9.91651 123.955 7.85181 126.685 7.85181C129.201 7.85181 131.201 9.58636 131.201 12.0493C131.169 13.2965 130.564 14.2084 129.896 14.7586C129.321 15.2145 128.413 15.7909 127.291 16.4617C128.293 17.3159 130.778 19.3806 132.715 21.2986C133.414 20.2033 134.02 19.1972 134.594 17.8294C135.168 16.4303 134.928 16.032 132.715 15.7909V14.9106H139.653V15.7909H139.658ZM126.262 26.1983C128.356 26.1983 129.535 25.5275 131.143 23.489C129.567 21.723 127.447 19.9308 124.837 17.7089C122.686 19.1395 122.081 20.4496 122.081 22.0008C122.081 24.862 124.294 26.1983 126.262 26.1983ZM126.351 8.9156C124.837 8.9156 123.897 10.0999 123.897 11.8974C123.897 13.4485 124.686 14.3918 126.502 15.8538C128.199 14.6381 128.925 13.6634 128.925 12.1122C128.893 10.3462 128.016 8.9156 126.351 8.9156Z" fill="white"/>
<path d="M147.984 27.865V27.0109C149.801 26.8274 149.984 26.6755 149.984 24.8204V8.79015C149.435 7.96741 148.318 7.45386 147.253 7.45386C146.282 7.45386 145.614 7.94121 145.16 8.51765C144.612 9.21986 144.189 10.7396 144.189 13.0506V14.5126H147.4C147.582 14.7851 147.431 15.545 147.097 15.7598H144.189V24.8256C144.189 26.6807 144.46 26.8327 146.34 27.0161V27.8703H139.611V27.0161C141.553 26.8013 141.793 26.6807 141.793 24.8256V15.7598H139.642L139.553 15.393L140.221 14.5126H141.798C141.798 12.8671 141.981 12.0811 142.163 11.3474C142.466 10.4042 143.072 8.85303 144.768 7.5115C145.948 6.56824 147.133 6.14377 148.376 5.9918C149.284 5.96036 150.286 6.17521 150.892 6.56824C151.377 6.44771 151.712 6.2643 152.134 6.018L152.437 6.13853C152.375 7.20232 152.375 8.23991 152.375 9.3037V24.8204C152.375 26.6755 152.589 26.8274 154.557 27.0109V27.865H147.979H147.984Z" fill="white"/>
<path d="M164.225 28.2315C163.771 28.2315 163.102 27.9904 162.8 27.655C162.408 27.262 162.225 26.8323 162.074 26.2873C160.863 27.11 159.375 28.2367 158.435 28.2367C156.285 28.2367 154.739 26.4393 154.739 24.4951C154.739 23.0069 155.559 22.0321 157.224 21.4505C159.072 20.8111 161.348 20.0198 162.011 19.4749V18.867C162.011 16.7079 160.92 15.4607 159.344 15.4607C158.644 15.4607 158.221 15.7961 157.918 16.1629C157.584 16.5874 157.37 17.2582 157.099 18.1386C156.948 18.6259 156.676 18.8408 156.222 18.8408C155.648 18.8408 154.891 18.2329 154.891 17.5045C154.891 17.08 155.282 16.7132 155.893 16.2887C156.77 15.6494 158.529 14.5227 160.257 14.1611C161.166 14.1611 162.105 14.4336 162.805 14.9839C163.865 15.8957 164.35 16.9333 164.35 18.5106V24.3798C164.35 25.779 164.867 26.2035 165.41 26.2035C165.775 26.2035 166.167 26.0515 166.501 25.8681L166.804 26.7223L164.23 28.242L164.225 28.2315ZM162.011 20.5334C161.343 20.8688 159.892 21.5081 159.192 21.8121C158.039 22.3308 157.344 22.9073 157.344 24.034C157.344 25.648 158.555 26.3764 159.526 26.3764C160.315 26.3764 161.406 25.889 162.011 25.2812V20.5334Z" fill="white"/>
<path d="M183.196 27.8651V27.0109C184.986 26.8275 185.195 26.707 185.195 24.5794V19.4962C185.195 17.3372 184.469 15.9695 182.59 15.9695C181.436 15.9695 180.377 16.6088 179.228 17.5521C179.26 17.9189 179.317 18.2805 179.317 18.8622V24.7628C179.317 26.6808 179.588 26.8327 181.259 27.0162V27.8703H174.775V27.0162C176.655 26.8327 176.926 26.7122 176.926 24.7052V19.47C176.926 17.2167 176.226 15.9695 174.378 15.9695C173.167 15.9695 171.982 16.7922 171.043 17.5521V24.6999C171.043 26.707 171.257 26.8275 172.985 27.0109V27.8651H166.469V27.0109C168.469 26.8275 168.652 26.707 168.652 24.6999V18.401C168.652 16.4516 168.532 16.3311 166.835 16.0271V15.2673C168.26 15.0524 169.685 14.6594 171.048 14.0515V16.5145C171.685 16.0271 172.322 15.5083 173.293 14.9319C174.05 14.4445 174.718 14.1406 175.689 14.1406C177.145 14.1406 178.388 15.0524 178.993 16.635C179.844 15.9642 180.632 15.4507 181.389 14.9319C182.058 14.5074 182.903 14.1406 183.786 14.1406C186.15 14.1406 187.607 15.8437 187.607 18.8255V24.6947C187.607 26.7332 187.79 26.8223 189.518 27.0057V27.8598H183.211L183.196 27.8651Z" fill="white"/>
<path d="M189.769 27.865V27.0108C191.68 26.8274 191.888 26.6755 191.888 24.6055V18.3381C191.888 16.4515 191.8 16.331 189.978 16.0271V15.2987C191.554 15.0262 192.979 14.6279 194.279 14.0829V24.6108C194.279 26.6807 194.493 26.8327 196.461 27.0161V27.8703H189.764L189.769 27.865ZM192.922 11.1011C192.071 11.1011 191.314 10.3413 191.314 9.4871C191.314 8.5124 192.071 7.81543 192.953 7.81543C193.836 7.81543 194.499 8.51764 194.499 9.4871C194.499 10.3413 193.799 11.1011 192.922 11.1011Z" fill="white"/>
<path d="M205.195 27.8652V27.011C206.954 26.8276 207.137 26.618 207.137 24.5481V19.5278C207.137 17.4002 206.38 15.9696 204.38 15.9696C203.138 15.9696 201.958 16.698 201.018 17.5522V24.6738C201.018 26.7752 201.201 26.8329 202.986 27.0163V27.8705H196.44V27.0163C198.439 26.8014 198.622 26.6809 198.622 24.6738V18.4064C198.622 16.4308 198.408 16.3364 196.774 16.0639V15.2726C198.257 15.0316 199.744 14.6333 201.018 14.0569V16.4622C201.624 16.0377 202.292 15.5818 203.08 15.063C203.931 14.5128 204.72 14.1512 205.597 14.1512C208.019 14.1512 209.538 15.9487 209.538 18.899V24.6791C209.538 26.749 209.721 26.8381 211.48 27.0215V27.8757H205.205L205.195 27.8652Z" fill="white"/>
<path d="M215.734 23.4265C215.009 24.0029 214.732 24.5846 214.732 24.9462C214.732 25.4964 215.249 26.1043 216.612 26.1043C217.734 26.1043 219.008 26.0729 220.005 26.0729C221.947 26.0729 224.432 26.7122 224.432 29.7254C224.432 32.8906 220.704 35.8724 216.674 35.8724C213.25 35.8724 211.402 33.8653 211.339 32.0679C211.339 31.3971 211.61 30.8206 212.096 30.3333C212.701 29.694 213.886 28.6878 214.581 28.1428C213.49 27.8389 212.701 27.1367 212.31 26.4974C212.038 26.0414 211.944 25.4912 211.944 25.1873C213.098 24.7628 214.127 23.9086 214.732 23.0859L215.734 23.4213V23.4265ZM217.191 23.7304C214.372 23.7304 212.038 21.9959 212.038 19.1347C212.038 15.6655 215.129 14.0515 217.494 14.0515C218.496 14.0515 219.493 14.324 220.402 14.8114C221.795 14.8114 223.612 14.5703 224.463 14.3555L224.646 14.628C224.463 15.1153 223.978 15.9642 223.523 16.242C223.069 16.242 222.067 16.1215 221.644 16.09C222.161 16.7922 222.521 17.7617 222.521 18.8569C222.521 22.1741 219.791 23.7252 217.186 23.7252L217.191 23.7304ZM217.891 28.2319C216.408 28.2319 215.74 28.4153 215.192 28.8712C214.341 29.5734 213.735 30.4853 213.735 31.3656C213.735 33.0373 215.463 34.2845 217.797 34.2845C220.678 34.2845 222.312 32.7963 222.312 30.8468C222.312 29.8145 221.827 28.9918 220.981 28.6249C220.224 28.2896 219.164 28.2319 217.891 28.2319ZM217.191 15.0262C215.828 15.0262 214.617 16.2734 214.617 18.6787C214.617 21.0841 215.828 22.7557 217.499 22.7557C218.83 22.6929 220.015 21.5714 220.015 19.1032C220.015 16.635 218.893 15.0262 217.196 15.0262H217.191Z" fill="white"/>
<path d="M230.769 14.1462C234.559 14.1462 237.378 17.0389 237.378 20.9587C237.378 25.8899 233.74 28.2323 230.769 28.2323C226.588 28.2323 224.04 24.8575 224.04 21.4461C224.04 16.4887 227.887 14.1462 230.769 14.1462ZM230.404 15.1786C228.556 15.1786 226.89 16.976 226.89 20.5028C226.89 24.3649 228.587 27.1633 231.072 27.1633C232.951 27.1633 234.528 25.7956 234.528 21.6242C234.528 18.066 233.071 15.1733 230.404 15.1733V15.1786Z" fill="white"/>
<path d="M110.22 38.0836C111.133 38.2355 111.875 38.6757 111.875 39.598C111.875 40.2478 111.514 40.7614 110.956 41.0653C110.46 41.3431 109.98 41.4374 109.311 41.4374H106.973V41.1701C107.782 41.0915 107.829 41.0077 107.829 40.2531V36.4328C107.829 35.6415 107.745 35.5734 106.973 35.5053V35.238H109.463C110.178 35.238 110.622 35.3638 110.925 35.5734C111.259 35.804 111.483 36.1551 111.483 36.6425C111.483 37.5386 110.752 37.9473 110.22 38.0836ZM109.129 37.9683C110.173 37.9683 110.601 37.549 110.601 36.7682C110.601 36.1027 110.194 35.5891 109.28 35.5891C109.014 35.5891 108.842 35.6153 108.748 35.6835C108.669 35.7411 108.643 35.8459 108.643 36.1499V37.9735H109.129V37.9683ZM108.643 40.2373C108.643 40.9238 108.805 41.0968 109.478 41.0968C110.22 41.0968 110.94 40.6985 110.94 39.6976C110.94 38.6967 110.256 38.3036 109.097 38.3036H108.643V40.2426V40.2373Z" fill="#FFDA0A"/>
<path d="M117.127 41.2229C116.672 41.2911 116.156 41.4168 115.675 41.5583V40.8247C115.164 41.2544 114.746 41.5583 114.224 41.5583C113.587 41.5583 113.039 41.1653 113.039 40.1277V38.2779C113.039 37.7643 112.961 37.7067 112.726 37.6595L112.459 37.6123V37.366C112.867 37.3451 113.493 37.2508 113.817 37.1931C113.791 37.4971 113.791 37.953 113.791 38.5871V39.8814C113.791 40.7199 114.229 40.9609 114.657 40.9609C115.007 40.9609 115.362 40.809 115.686 40.505V38.2831C115.686 37.7696 115.571 37.7014 115.247 37.6543L114.944 37.6176V37.3713C115.55 37.3451 116.218 37.235 116.437 37.1984V40.395C116.437 40.8718 116.516 40.9347 116.876 40.9557L117.142 40.9662V41.2334L117.127 41.2229Z" fill="#FFDA0A"/>
<path d="M117.591 41.4424V41.1751C118.186 41.1175 118.254 41.0703 118.254 40.4205V38.4554C118.254 37.8632 118.227 37.8265 117.658 37.7322V37.5016C118.154 37.4178 118.598 37.292 119.005 37.1191V40.4205C119.005 41.0703 119.073 41.1175 119.689 41.1751V41.4424H117.591ZM118.577 36.1863C118.311 36.1863 118.071 35.9505 118.071 35.6832C118.071 35.3793 118.306 35.1592 118.582 35.1592C118.859 35.1592 119.068 35.3793 119.068 35.6832C119.068 35.9505 118.849 36.1863 118.572 36.1863H118.577Z" fill="#FFDA0A"/>
<path d="M120.081 41.443V41.1757C120.687 41.1181 120.765 41.0709 120.765 40.4421V35.8725C120.765 35.2908 120.718 35.2332 120.107 35.1598V34.9135C120.619 34.8559 121.209 34.7039 121.512 34.5886V40.4421C121.512 41.0709 121.569 41.1181 122.185 41.1757V41.443H120.076H120.081Z" fill="#FFDA0A"/>
<path d="M127.28 41.2016C127.082 41.2383 126.367 41.3535 125.808 41.5527V40.9343C125.636 41.0391 125.391 41.1701 125.218 41.2749C124.837 41.495 124.582 41.5527 124.472 41.5527C123.71 41.5527 122.702 40.7928 122.702 39.4565C122.702 38.1202 123.861 37.1403 125.161 37.1403C125.297 37.1403 125.61 37.1613 125.808 37.2451V35.8407C125.808 35.2328 125.74 35.2119 125.067 35.1542V34.9079C125.542 34.8398 126.21 34.7088 126.56 34.583V40.3317C126.56 40.8295 126.628 40.8924 126.978 40.9134L127.28 40.9343V41.2016ZM125.808 37.9997C125.589 37.6643 125.182 37.5124 124.811 37.5124C124.357 37.5124 123.548 37.8163 123.548 39.1893C123.548 40.3422 124.258 40.95 124.869 40.9605C125.213 40.9605 125.584 40.7876 125.808 40.6147V37.9945V37.9997Z" fill="#FFDA0A"/>
<path d="M127.724 41.4424V41.1751C128.324 41.1175 128.387 41.0703 128.387 40.4205V38.4554C128.387 37.8632 128.361 37.8265 127.792 37.7322V37.5016C128.287 37.4178 128.731 37.292 129.138 37.1191V40.4205C129.138 41.0703 129.206 41.1175 129.822 41.1751V41.4424H127.724ZM128.716 36.1863C128.449 36.1863 128.209 35.9505 128.209 35.6832C128.209 35.3793 128.444 35.1592 128.721 35.1592C128.997 35.1592 129.206 35.3793 129.206 35.6832C129.206 35.9505 128.987 36.1863 128.71 36.1863H128.716Z" fill="#FFDA0A"/>
<path d="M133.033 41.4428V41.1755C133.586 41.1179 133.638 41.0498 133.638 40.4V38.8279C133.638 38.1623 133.404 37.7117 132.772 37.7117C132.386 37.7117 132.015 37.9422 131.717 38.2095V40.4419C131.717 41.0969 131.775 41.1179 132.333 41.1755V41.4428H130.282V41.1755C130.908 41.1074 130.966 41.0707 130.966 40.4419V38.4767C130.966 37.8584 130.898 37.8269 130.386 37.7431V37.4968C130.851 37.4234 131.315 37.2977 131.717 37.1143V37.8689C131.905 37.7326 132.114 37.5911 132.365 37.4287C132.631 37.2557 132.876 37.1405 133.153 37.1405C133.915 37.1405 134.39 37.7012 134.39 38.6287V40.4419C134.39 41.0917 134.448 41.1179 134.996 41.1755V41.4428H133.028H133.033Z" fill="#FFDA0A"/>
<path d="M136.807 40.0485C136.577 40.2267 136.494 40.4101 136.494 40.5254C136.494 40.693 136.656 40.8869 137.084 40.8869C137.433 40.8869 137.835 40.8765 138.149 40.8765C138.754 40.8765 139.537 41.0756 139.537 42.0189C139.537 43.0093 138.368 43.9421 137.105 43.9421C136.029 43.9421 135.45 43.3132 135.434 42.7525C135.434 42.5429 135.518 42.3647 135.669 42.2127C135.857 42.0136 136.228 41.6992 136.447 41.5263C136.102 41.4319 135.857 41.2118 135.732 41.0127C135.648 40.8712 135.617 40.6983 135.617 40.604C135.977 40.4729 136.301 40.2057 136.489 39.9437L136.802 40.0485H136.807ZM137.261 40.1428C136.379 40.1428 135.648 39.603 135.648 38.7017C135.648 37.6117 136.619 37.1086 137.36 37.1086C137.674 37.1086 137.987 37.1925 138.274 37.3445C138.712 37.3445 139.282 37.2711 139.548 37.203L139.605 37.2868C139.548 37.4388 139.396 37.706 139.25 37.7951C139.109 37.7951 138.796 37.7532 138.66 37.748C138.822 37.9681 138.937 38.272 138.937 38.6179C138.937 39.6555 138.081 40.1428 137.266 40.1428H137.261ZM137.48 41.5525C137.016 41.5525 136.807 41.6101 136.635 41.7516C136.369 41.9717 136.181 42.2547 136.181 42.5324C136.181 43.0564 136.724 43.4495 137.454 43.4495C138.358 43.4495 138.869 42.9831 138.869 42.37C138.869 42.0451 138.718 41.7883 138.451 41.673C138.217 41.5682 137.882 41.5472 137.48 41.5472V41.5525ZM137.261 37.4126C136.833 37.4126 136.452 37.8004 136.452 38.555C136.452 39.3096 136.833 39.8336 137.355 39.8336C137.773 39.8127 138.143 39.4616 138.143 38.686C138.143 37.9104 137.794 37.4126 137.261 37.4126Z" fill="#FFDA0A"/>
<path d="M146.392 36.7313C146.308 36.464 146.23 36.2334 146.099 36.0238C145.922 35.6989 145.776 35.6255 145.243 35.6255H144.225C143.949 35.6255 143.922 35.6517 143.922 35.9295V38.1304H145.102C145.786 38.1304 145.833 38.0151 145.974 37.3496H146.261V39.341H145.964C145.838 38.6754 145.776 38.5235 145.102 38.5235H143.922V40.2266C143.922 41.0546 144.016 41.0965 144.883 41.1698V41.4371H142.241V41.1698C143.009 41.1122 143.098 41.0441 143.098 40.2266V36.4483C143.098 35.6203 143.004 35.5836 142.241 35.505V35.2378H145.254C146.11 35.2378 146.428 35.2273 146.59 35.2168C146.601 35.5627 146.637 36.2282 146.684 36.6841L146.392 36.7208V36.7313Z" fill="#FFDA0A"/>
<path d="M149.389 37.1401C150.574 37.1401 151.461 38.0467 151.461 39.2782C151.461 40.8241 150.318 41.5578 149.389 41.5578C148.078 41.5578 147.28 40.4992 147.28 39.4302C147.28 37.8738 148.485 37.1401 149.389 37.1401ZM149.274 37.465C148.694 37.465 148.172 38.031 148.172 39.1367C148.172 40.3472 148.705 41.2224 149.483 41.2224C150.072 41.2224 150.563 40.7927 150.563 39.4878C150.563 38.3716 150.109 37.465 149.269 37.465H149.274Z" fill="#FFDA0A"/>
<path d="M154.254 41.4432H152.072V41.1759C152.672 41.1183 152.724 41.0711 152.724 40.4527V38.4719C152.724 37.843 152.688 37.8116 152.134 37.7487V37.5077C152.599 37.4343 153.027 37.319 153.471 37.1199V38.1679C153.805 37.6701 154.201 37.1461 154.677 37.1461C155.026 37.1461 155.23 37.3662 155.23 37.602C155.23 37.8221 155.078 38.0317 154.906 38.126C154.812 38.1837 154.734 38.1732 154.661 38.1051C154.52 37.9636 154.405 37.8692 154.233 37.8692C154.034 37.8692 153.679 38.1627 153.471 38.6501V40.4423C153.471 41.0711 153.518 41.1183 154.248 41.1759V41.4432H154.254Z" fill="#FFDA0A"/>
<path d="M162.936 36.7423C162.852 36.4383 162.737 36.1239 162.633 35.951C162.482 35.6942 162.388 35.6261 161.866 35.6261H160.916V40.269C160.916 41.0132 160.989 41.118 161.892 41.1756V41.4429H159.125V41.1756C160.007 41.118 160.086 41.0236 160.086 40.269V35.6261H159.219C158.697 35.6261 158.546 35.6837 158.384 35.9719C158.269 36.1606 158.191 36.3912 158.07 36.7423H157.783C157.841 36.1606 157.898 35.5632 157.924 35.0234H158.144C158.284 35.254 158.389 35.2435 158.655 35.2435H162.419C162.685 35.2435 162.764 35.2016 162.905 35.0234H163.134C163.134 35.4741 163.171 36.1606 163.218 36.7108L162.931 36.737L162.936 36.7423Z" fill="#FFDA0A"/>
<path d="M166.396 41.4424V41.1751C166.95 41.1175 167.023 41.0703 167.023 40.4415V38.8799C167.023 38.0886 166.72 37.6903 166.083 37.6956C165.723 37.6956 165.342 37.8737 165.075 38.1934V40.4467C165.075 41.0651 165.154 41.1227 165.723 41.1804V41.4476H163.65V41.1804C164.204 41.1332 164.324 41.0861 164.324 40.4467V35.8509C164.324 35.3479 164.298 35.2221 163.661 35.1645V34.9182C164.162 34.871 164.736 34.7295 165.075 34.5933V37.8475C165.42 37.5017 165.942 37.1506 166.454 37.1506C167.231 37.1506 167.774 37.6379 167.774 38.7803V40.4572C167.774 41.0861 167.847 41.1332 168.401 41.1804V41.4476H166.396V41.4424Z" fill="#FFDA0A"/>
<path d="M172.384 40.6306C171.779 41.3904 171.11 41.5581 170.808 41.5581C169.649 41.5581 168.944 40.6044 168.944 39.5091C168.944 38.8593 169.174 38.2619 169.565 37.8427C169.962 37.3973 170.489 37.1458 170.98 37.1458C171.805 37.1458 172.431 37.8637 172.431 38.6235C172.421 38.8122 172.395 38.9013 172.238 38.938C172.05 38.9746 170.834 39.0637 169.701 39.1004C169.675 40.379 170.453 40.9031 171.126 40.9031C171.512 40.9031 171.878 40.7406 172.228 40.4157L172.379 40.6358L172.384 40.6306ZM170.75 37.5021C170.312 37.5021 169.884 37.9161 169.753 38.6864C170.286 38.6864 170.818 38.6864 171.377 38.6602C171.549 38.6602 171.606 38.6131 171.606 38.4716C171.617 37.9632 171.283 37.5073 170.75 37.5073V37.5021Z" fill="#FFDA0A"/>
<path d="M179.474 36.7313C179.391 36.464 179.312 36.2334 179.182 36.0238C179.004 35.6989 178.858 35.6255 178.326 35.6255H177.308C177.031 35.6255 177.005 35.6517 177.005 35.9295V38.1304H178.185C178.869 38.1304 178.916 38.0151 179.056 37.3496H179.344V39.341H179.046C178.921 38.6754 178.858 38.5235 178.185 38.5235H177.005V40.2266C177.005 41.0546 177.099 41.0965 177.965 41.1698V41.4371H175.324V41.1698C176.091 41.1122 176.18 41.0441 176.18 40.2266V36.4483C176.18 35.6203 176.086 35.5836 175.324 35.505V35.2378H178.336C179.192 35.2378 179.511 35.2273 179.672 35.2168C179.683 35.5627 179.719 36.2282 179.766 36.6841L179.474 36.7208V36.7313Z" fill="#FFDA0A"/>
<path d="M184.872 41.2229C184.417 41.2911 183.901 41.4168 183.415 41.5583V40.8247C182.904 41.2544 182.486 41.5583 181.964 41.5583C181.327 41.5583 180.779 41.1653 180.779 40.1277V38.2779C180.779 37.7643 180.706 37.7067 180.466 37.6595L180.199 37.6123V37.366C180.607 37.3451 181.233 37.2508 181.557 37.1931C181.531 37.4971 181.531 37.953 181.531 38.5871V39.8814C181.531 40.7199 181.969 40.9609 182.397 40.9609C182.747 40.9609 183.102 40.809 183.42 40.505V38.2831C183.42 37.7696 183.305 37.7014 182.982 37.6543L182.679 37.6176V37.3713C183.285 37.3451 183.953 37.235 184.167 37.1984V40.395C184.167 40.8718 184.245 40.9347 184.605 40.9557L184.872 40.9662V41.2334V41.2229Z" fill="#FFDA0A"/>
<path d="M187.205 41.4322C187.043 41.5161 186.892 41.558 186.798 41.558C186.192 41.558 185.869 41.186 185.869 40.4209V37.6435H185.211L185.174 37.5282L185.43 37.2504H185.869V36.4487C186.046 36.26 186.323 36.0085 186.506 35.8198L186.646 35.8355C186.626 36.2338 186.62 36.7893 186.62 37.2452H187.701C187.785 37.3395 187.758 37.5491 187.644 37.633H186.62V40.075C186.62 40.8506 186.923 40.9921 187.174 40.9921C187.403 40.9921 187.617 40.9082 187.753 40.8401L187.837 41.0864L187.21 41.4218L187.205 41.4322Z" fill="#FFDA0A"/>
<path d="M192.692 41.2229C192.238 41.2911 191.721 41.4168 191.235 41.5583V40.8247C190.724 41.2544 190.306 41.5583 189.784 41.5583C189.147 41.5583 188.599 41.1653 188.599 40.1277V38.2779C188.599 37.7643 188.526 37.7067 188.286 37.6595L188.02 37.6123V37.366C188.427 37.3451 189.053 37.2508 189.377 37.1931C189.351 37.4971 189.351 37.953 189.351 38.5871V39.8814C189.351 40.7199 189.789 40.9609 190.217 40.9609C190.567 40.9609 190.922 40.809 191.241 40.505V38.2831C191.241 37.7696 191.126 37.7014 190.802 37.6543L190.499 37.6176V37.3713C191.105 37.3451 191.773 37.235 191.987 37.1984V40.395C191.987 40.8718 192.065 40.9347 192.426 40.9557L192.692 40.9662V41.2334V41.2229Z" fill="#FFDA0A"/>
<path d="M195.349 41.4432H193.167V41.1759C193.768 41.1183 193.82 41.0711 193.82 40.4527V38.4719C193.82 37.843 193.783 37.8116 193.23 37.7487V37.5077C193.695 37.4343 194.123 37.319 194.566 37.1199V38.1679C194.901 37.6701 195.297 37.1461 195.772 37.1461C196.122 37.1461 196.326 37.3662 196.326 37.602C196.326 37.8221 196.174 38.0317 196.002 38.126C195.908 38.1837 195.83 38.1732 195.757 38.1051C195.616 37.9636 195.501 37.8692 195.329 37.8692C195.13 37.8692 194.775 38.1627 194.566 38.6501V40.4423C194.566 41.0711 194.613 41.1183 195.344 41.1759V41.4432H195.349Z" fill="#FFDA0A"/>
<path d="M200.094 40.6306C199.488 41.3904 198.82 41.5581 198.517 41.5581C197.358 41.5581 196.654 40.6044 196.654 39.5091C196.654 38.8593 196.883 38.2619 197.275 37.8427C197.672 37.3973 198.199 37.1458 198.69 37.1458C199.514 37.1458 200.141 37.8637 200.141 38.6235C200.131 38.8122 200.104 38.9013 199.948 38.938C199.76 38.9746 198.543 39.0637 197.411 39.1004C197.385 40.379 198.162 40.9031 198.836 40.9031C199.222 40.9031 199.588 40.7406 199.937 40.4157L200.089 40.6358L200.094 40.6306ZM198.46 37.5021C198.021 37.5021 197.593 37.9161 197.463 38.6864C197.995 38.6864 198.528 38.6864 199.086 38.6602C199.259 38.6602 199.316 38.6131 199.316 38.4716C199.327 37.9632 198.992 37.5073 198.46 37.5073V37.5021Z" fill="#FFDA0A"/>
<defs>
<linearGradient id="paint0_linear_19_406" x1="46.4154" y1="48.1714" x2="46.4154" y2="-0.207573" gradientUnits="userSpaceOnUse">
<stop stop-color="#EF5662"/>
<stop offset="0.28" stop-color="#F58956"/>
<stop offset="0.6" stop-color="#F7AF50"/>
<stop offset="1" stop-color="#FCDC3F"/>
</linearGradient>
<linearGradient id="paint1_linear_19_406" x1="46.9117" y1="48.1715" x2="46.9117" y2="-0.207488" gradientUnits="userSpaceOnUse">
<stop stop-color="#EF5662"/>
<stop offset="0.28" stop-color="#F58956"/>
<stop offset="0.6" stop-color="#F7AF50"/>
<stop offset="1" stop-color="#FCDC3F"/>
</linearGradient>
<linearGradient id="paint2_linear_19_406" x1="53.818" y1="48.1717" x2="53.818" y2="-0.207243" gradientUnits="userSpaceOnUse">
<stop stop-color="#EF5662"/>
<stop offset="0.28" stop-color="#F58956"/>
<stop offset="0.6" stop-color="#F7AF50"/>
<stop offset="1" stop-color="#FCDC3F"/>
</linearGradient>
<linearGradient id="paint3_linear_19_406" x1="49.7097" y1="48.1721" x2="49.7097" y2="-0.206899" gradientUnits="userSpaceOnUse">
<stop stop-color="#EF5662"/>
<stop offset="0.28" stop-color="#F58956"/>
<stop offset="0.6" stop-color="#F7AF50"/>
<stop offset="1" stop-color="#FCDC3F"/>
</linearGradient>
<linearGradient id="paint4_linear_19_406" x1="51.6468" y1="48.1716" x2="51.6468" y2="-0.207404" gradientUnits="userSpaceOnUse">
<stop stop-color="#EF5662"/>
<stop offset="0.28" stop-color="#F58956"/>
<stop offset="0.6" stop-color="#F7AF50"/>
<stop offset="1" stop-color="#FCDC3F"/>
</linearGradient>
</defs>
</svg>
