<svg width="25" height="94" viewBox="0 0 25 94" fill="none" xmlns="http://www.w3.org/2000/svg">
<g clip-path="url(#clip0_141_810)">
<path d="M13.4951 93.5703L13.4951 1.22486C13.4951 1.04218 13.0484 0.89502 12.5024 0.89502C11.9565 0.89502 11.5098 1.04218 11.5098 1.22486L11.5098 93.5703C11.5098 93.7529 11.9565 93.9001 12.5024 93.9001C13.0484 93.9001 13.4951 93.7529 13.4951 93.5703Z" fill="white"/>
<path d="M12.6117 34.6149C11.3808 41.1001 6.36788 46.1391 -5.54088e-07 47.2859C6.34306 48.5444 11.2716 53.6696 12.3933 60.1751C13.6242 53.6899 18.6371 48.6509 25.005 47.5041C18.6619 46.2456 13.7334 41.1204 12.6117 34.6099" fill="white"/>
</g>
<defs>
<clipPath id="clip0_141_810">
<rect width="93" height="25" fill="white" transform="matrix(-4.37114e-08 1 1 4.37114e-08 0 0.89502)"/>
</clipPath>
</defs>
</svg>
