<svg width="402" height="125" viewBox="0 0 402 125" fill="none" xmlns="http://www.w3.org/2000/svg">
<path d="M356.946 94.0066C358.723 92.2006 360.443 90.4519 362.106 88.7606C363.769 87.0693 365.259 85.4209 366.578 83.8156C367.925 82.2103 368.972 80.6623 369.717 79.1716C370.491 77.6809 370.878 76.2333 370.878 74.8286C370.878 73.9686 370.735 73.2233 370.448 72.5926C370.19 71.9333 369.817 71.4029 369.33 71.0016C368.843 70.5716 368.298 70.2563 367.696 70.0556C367.094 69.8263 366.449 69.7116 365.761 69.7116C364.872 69.7116 364.113 69.8549 363.482 70.1416C362.851 70.4283 362.335 70.8009 361.934 71.2596C361.561 71.6896 361.275 72.1626 361.074 72.6786C360.873 73.1946 360.773 73.7106 360.773 74.2266C360.773 75.1726 360.916 76.0183 361.203 76.7636C361.518 77.5089 361.934 78.1539 362.45 78.6986L359.655 81.2786C358.938 80.8486 358.322 80.2323 357.806 79.4296C357.319 78.5983 356.946 77.7239 356.688 76.8066C356.43 75.8893 356.301 75.0723 356.301 74.3556C356.301 72.7789 356.688 71.3169 357.462 69.9696C358.265 68.5936 359.426 67.4756 360.945 66.6156C362.493 65.7556 364.356 65.3256 366.535 65.3256C368.37 65.3256 369.961 65.7413 371.308 66.5726C372.684 67.4039 373.745 68.5219 374.49 69.9266C375.264 71.3026 375.651 72.8076 375.651 74.4416C375.651 75.8463 375.379 77.2223 374.834 78.5696C374.289 79.9169 373.558 81.2499 372.641 82.5686C371.752 83.8586 370.749 85.1486 369.631 86.4386C368.542 87.6999 367.452 88.9756 366.363 90.2656L364.299 89.5776H376.468V94.0066H356.946ZM378.656 87.2986V87.2556L396.114 65.3256H396.157V83.7726H399.769V87.2986H396.157V94.0066H391.556V87.2986H378.656ZM391.814 75.6026L385.364 83.9876L384.719 83.7726H391.556V74.9146L391.814 75.6026Z" fill="white"/>
<path d="M341.727 69.4941C343.987 67.9199 345.642 66.4062 346.692 64.9531C347.741 63.5404 348.266 62.168 348.266 60.8359C348.266 60.4323 348.104 60.2305 347.781 60.2305L347.721 60.2305C347.68 60.2305 347.62 60.2507 347.539 60.291L346.51 60.3516C345.218 60.3516 344.189 60.0085 343.422 59.3223C342.655 58.6764 342.272 57.7884 342.272 56.6582C342.272 55.528 342.675 54.5996 343.483 53.873C344.249 53.1465 345.218 52.7832 346.389 52.7832C347.923 52.7832 349.174 53.3281 350.143 54.418C351.071 55.5482 351.535 57.082 351.535 59.0195C351.535 61.2799 350.869 63.3991 349.537 65.377C348.205 67.3952 346.126 69.373 343.301 71.3105L341.727 69.4941Z" fill="white"/>
<path d="M29.6386 124.637C23.971 124.637 18.913 123.359 14.4648 120.798C10.0165 118.242 6.49402 114.756 3.89731 110.348C1.30061 105.936 0 100.942 0 95.3508C0 89.76 1.27803 84.8827 3.83861 80.4705C6.39467 76.0629 9.86296 72.5811 14.2299 70.0205C18.6014 67.4644 23.5013 66.1819 28.9341 66.1819C34.0507 66.1819 38.6164 67.3651 42.6311 69.7224C46.6458 72.0843 49.7754 75.3539 52.0199 79.5222C54.2644 83.695 55.3843 88.4593 55.3843 93.8108C55.3843 94.6011 55.3437 95.4456 55.2669 96.3488C55.1856 97.2565 55.0321 98.2591 54.7927 99.361H7.43786V90.5051H49.1251L45.2278 93.9282C45.2278 90.1483 44.5594 86.942 43.2182 84.3046C41.8769 81.6673 39.9893 79.6215 37.5506 78.1629C35.1074 76.7087 32.1585 75.9771 28.6947 75.9771C25.2309 75.9771 21.8846 76.7674 19.1298 78.339C16.375 79.9151 14.248 82.1189 12.7532 84.9504C11.2584 87.7865 10.5088 91.1328 10.5088 94.9895C10.5088 98.8462 11.2945 102.369 12.8706 105.322C14.4467 108.276 16.6866 110.556 19.604 112.173C22.5168 113.79 25.8632 114.593 29.6431 114.593C32.7907 114.593 35.6855 114.043 38.3228 112.941C38.5441 112.85 38.7609 112.751 38.9731 112.652C43.3492 110.624 48.5064 111.432 51.8889 114.873L51.9612 114.946C49.2064 118.093 45.8962 120.496 42.044 122.149C38.1874 123.802 34.0507 124.628 29.6431 124.628L29.6386 124.637Z" fill="white"/>
<path d="M64.7007 123.454V-0.000244141C70.5716 -0.000244141 75.3314 4.75963 75.3314 10.6304V123.458H64.7007V123.454Z" fill="white"/>
<path d="M114.585 124.637C108.917 124.637 103.859 123.359 99.4109 120.798C94.9627 118.242 91.4402 114.756 88.8435 110.348C86.2468 105.941 84.9462 100.942 84.9462 95.3508C84.9462 89.76 86.2242 84.8827 88.7848 80.4705C91.3408 76.0629 94.8091 72.5811 99.1761 70.0205C103.548 67.4644 108.447 66.1819 113.88 66.1819C118.997 66.1819 123.563 67.3651 127.577 69.7224C131.592 72.0843 134.722 75.3539 136.966 79.5222C139.211 83.695 140.33 88.4593 140.33 93.8108C140.33 94.6011 140.29 95.4456 140.213 96.3488C140.132 97.2565 139.978 98.2591 139.739 99.361H92.384V90.5051H134.071L130.174 93.9282C130.174 90.1483 129.506 86.942 128.164 84.3046C126.823 81.6673 124.935 79.6215 122.497 78.1629C120.054 76.7087 117.105 75.9771 113.641 75.9771C110.177 75.9771 106.831 76.7674 104.076 78.339C101.321 79.9151 99.1942 82.1189 97.6994 84.9504C96.2046 87.7865 95.4549 91.1328 95.4549 94.9895C95.4549 98.8462 96.2407 102.369 97.8168 105.322C99.3929 108.276 101.633 110.556 104.55 112.173C107.463 113.79 110.809 114.593 114.589 114.593C117.737 114.593 120.632 114.043 123.269 112.941C123.49 112.85 123.707 112.751 123.919 112.652C128.295 110.624 133.453 111.432 136.835 114.873L136.907 114.946C134.153 118.093 130.842 120.496 126.99 122.149C123.134 123.802 118.997 124.628 114.589 124.628L114.585 124.637Z" fill="white"/>
<path d="M166.415 123.454L140.674 67.3604H152.483L173.148 114.715H166.298L184.194 73.9357C185.947 69.939 189.898 67.3604 194.261 67.3604H198.415L172.674 123.454H166.415Z" fill="white"/>
<path d="M249.257 77.0474V67.3651H280.002C284.152 67.3651 287.516 70.7295 287.516 74.8797V77.0474H249.257ZM263.071 123.458V43.8638H264.553C269.601 43.8638 273.697 47.9598 273.697 53.0087V123.458H263.071Z" fill="white"/>
<path d="M317.407 124.637C311.74 124.637 306.682 123.359 302.234 120.798C297.785 118.242 294.263 114.756 291.666 110.348C289.069 105.941 287.769 100.942 287.769 95.3508C287.769 89.76 289.047 84.8827 291.607 80.4705C294.163 76.0629 297.632 72.5811 301.999 70.0205C306.366 67.4644 311.27 66.1819 316.703 66.1819C321.82 66.1819 326.385 67.3651 330.4 69.7224C334.415 72.0843 337.544 75.3539 339.789 79.5222C342.033 83.695 343.153 88.4593 343.153 93.8108C343.153 94.6011 343.112 95.4456 343.036 96.3488C342.959 97.2565 342.801 98.2591 342.562 99.361H295.207V90.5051H336.894L332.997 93.9282C332.997 90.1483 332.328 86.942 330.987 84.3046C329.646 81.6673 327.758 79.6215 325.319 78.1629C322.876 76.7087 319.927 75.9771 316.464 75.9771C313 75.9771 309.653 76.7674 306.899 78.339C304.144 79.9151 302.017 82.1189 300.522 84.9504C299.027 87.7865 298.278 91.1328 298.278 94.9895C298.278 98.8462 299.063 102.369 300.639 105.322C302.211 108.276 304.455 110.556 307.368 112.173C310.281 113.79 313.627 114.593 317.407 114.593C320.555 114.593 323.45 114.043 326.087 112.941C326.308 112.85 326.525 112.751 326.737 112.652C331.113 110.624 336.271 111.432 339.653 114.873L339.726 114.95C336.971 118.098 333.661 120.5 329.804 122.153C325.947 123.806 321.811 124.633 317.403 124.633L317.407 124.637Z" fill="white"/>
<path d="M226.446 51.0938L252.187 107.187H248.168C243.435 107.187 239.154 104.383 237.262 100.047L219.713 59.8323H226.564L208.901 100.07C207.005 104.396 202.728 107.187 198.004 107.187H194.441L220.182 51.0938L223.312 44.2837L226.442 51.0938H226.446Z" fill="url(#paint0_linear_1_335)"/>
<defs>
<linearGradient id="paint0_linear_1_335" x1="223.317" y1="45.9636" x2="223.317" y2="103.71" gradientUnits="userSpaceOnUse">
<stop stop-color="#EF5662"/>
<stop offset="0.36" stop-color="#F58956"/>
<stop offset="0.66" stop-color="#F7AF50"/>
<stop offset="1" stop-color="#FCDC3F"/>
</linearGradient>
</defs>
</svg>
