<svg width="33" height="33" viewBox="0 0 33 33" fill="none" xmlns="http://www.w3.org/2000/svg">
<path d="M31.2604 25.8946L22.1958 16.83C24.1304 12.5928 23.37 7.41866 19.8871 3.93578C17.7183 1.76697 14.8346 0.571533 11.7685 0.571533C8.70235 0.571533 5.81871 1.76697 3.64989 3.93578C1.48108 6.1046 0.285645 8.98824 0.285645 12.0544C0.285645 15.1205 1.48108 18.0042 3.64989 20.173C5.81871 22.3418 8.70235 23.5372 11.7685 23.5372C13.4476 23.5372 15.0658 23.1661 16.5502 22.4878L25.6088 31.5463C26.3875 32.325 27.4126 32.7144 28.4346 32.7144C29.4567 32.7144 30.4817 32.325 31.2604 31.5463C32.8179 29.9889 32.8179 27.4521 31.2604 25.8946ZM4.5959 19.227C2.67955 17.3106 1.62404 14.7646 1.62404 12.0544C1.62404 9.34413 2.67955 6.79813 4.5959 4.88179C6.51224 2.96544 9.05824 1.90993 11.7685 1.90993C14.4788 1.90993 17.0248 2.96544 18.9411 4.88179C22.1015 8.04527 22.7282 12.7875 20.8331 16.5867C20.7905 16.6506 20.7571 16.7144 20.7388 16.7875C20.2765 17.6665 19.6772 18.4909 18.9411 19.227C18.2141 19.954 17.3959 20.5563 16.5137 21.0247C16.4316 21.046 16.3556 21.0825 16.2826 21.1342C14.8955 21.8247 13.3624 22.1988 11.7685 22.1988C9.05824 22.1988 6.51224 21.1433 4.5959 19.227ZM19.8871 20.173C20.535 19.5251 21.0765 18.8133 21.5388 18.065L23.3091 19.8354L19.5495 23.592L17.7822 21.8247C18.5365 21.3593 19.2453 20.8148 19.8871 20.173ZM30.3114 30.5973C29.2772 31.6315 27.589 31.6346 26.5517 30.5973L20.4955 24.541L24.2551 20.7844L30.3114 26.8406C31.3487 27.8779 31.3487 29.5631 30.3114 30.6003V30.5973Z" fill="#3E2670"/>
<path d="M6.74623 13.5908C6.37512 13.5908 6.07703 13.892 6.07703 14.26V17.4113C6.07703 17.7824 6.37512 18.0805 6.74623 18.0805C7.11733 18.0805 7.41542 17.7794 7.41542 17.4113V14.26C7.41542 13.8889 7.11733 13.5908 6.74623 13.5908Z" fill="#3E2670"/>
<path d="M10.0955 11.0688C9.72437 11.0688 9.42627 11.37 9.42627 11.738V17.411C9.42627 17.7821 9.72437 18.0802 10.0955 18.0802C10.4666 18.0802 10.7647 17.7791 10.7647 17.411V11.738C10.7647 11.3669 10.4666 11.0688 10.0955 11.0688Z" fill="#3E2670"/>
<path d="M13.4414 8.54712C13.0703 8.54712 12.7722 8.84826 12.7722 9.21632V17.411C12.7722 17.7821 13.0703 18.0802 13.4414 18.0802C13.8125 18.0802 14.1106 17.779 14.1106 17.411V9.21936C14.1106 8.84826 13.8125 8.55016 13.4414 8.55016V8.54712Z" fill="#3E2670"/>
<path d="M16.7902 18.0802C17.1613 18.0802 17.4594 17.7791 17.4594 17.411V6.69776C17.4594 6.32666 17.1613 6.02856 16.7902 6.02856C16.4191 6.02856 16.121 6.3297 16.121 6.69776V17.411C16.121 17.7821 16.4191 18.0802 16.7902 18.0802Z" fill="#3E2670"/>
</svg>
