<svg width="122" height="32" viewBox="0 0 122 32" fill="none" xmlns="http://www.w3.org/2000/svg">
<path d="M28.9316 29.32H22.2475L20.2027 24.1104H9.06261L7.2011 29.32H0.62793L10.6685 3.01748H17.8638L28.9316 29.32ZM14.3578 9.30156L10.7071 19.5221H18.375L14.3578 9.30156ZM53.2084 3.01748H58.6145V29.32H52.4031V12.8917L45.6852 21.1415H44.7352L38.0173 12.8917V29.32H31.8059V3.01748H37.212L45.2078 12.7746L53.2084 3.01748ZM74.3458 3.01748C83.4411 3.01748 88.1142 8.99601 88.1142 16.2069C88.1142 23.4178 83.5858 29.32 73.6513 29.32H63.3503V3.01748H74.3458ZM69.5618 24.4974H73.6127C79.858 24.4974 81.7195 20.0212 81.7195 16.1662C81.7195 11.6543 79.4191 7.83493 73.5404 7.83493H69.5618V24.4974ZM100.465 9.25063L92.6378 0.985596H121.139V31.0819L113.312 22.8118V9.25063H100.465ZM100.455 10.9108L92.3966 19.4202V31.3366H103.677L111.735 22.8271H100.455V10.9108Z" fill="#4D4D4D"/>
</svg>
