<svg width="123" height="42" viewBox="0 0 123 42" fill="none" xmlns="http://www.w3.org/2000/svg">
<g clip-path="url(#clip0_58_138)">
<path d="M13.159 29.178C10.8326 29.178 9.71906 27.3871 10.2993 25.3187C11.5017 21.03 19.2441 14.6676 24.519 14.6676C28.3666 14.6676 28.0739 18.1132 25.8155 21.0562L24.5713 22.4386C20.1015 26.8321 15.9558 29.178 13.159 29.178ZM32.0104 0.240967C25.277 0.240967 17.864 4.36735 13.2112 8.2738L13.5772 8.80793C20.802 3.73373 30.8289 0.434718 33.5944 5.38324C35.053 7.99626 32.575 13.2642 29.0881 17.4325C29.9245 15.5945 29.3704 12.0598 24.5085 12.0598C16.4211 12.0598 0.502441 22.7895 0.502441 33.7757C0.502441 38.1744 3.55025 41.044 8.56894 41.044C22.0044 41.044 40.2181 18.9877 40.2181 7.90724C40.2181 3.99556 37.9701 0.240967 32.0156 0.240967" fill="#4D4D4D"/>
<path d="M49.3039 29.178C48.5198 29.178 47.8715 28.9057 47.4638 28.4082C47.0403 27.8845 46.9148 27.141 47.1135 26.3764C47.5631 24.7164 49.3458 23.4125 51.186 23.4125H55.5094L53.9619 29.1832H49.2987L49.3039 29.178ZM61.7304 11.887C60.4967 10.3631 58.4944 9.68237 57.062 9.68237H49.2046L47.8715 14.6623H55.2793L55.9903 14.7356C55.9903 14.7356 56.6699 14.8142 57.0463 15.3221C57.3495 15.7463 57.3966 16.3747 57.177 17.1968L56.8268 18.5059H52.1583C48.1381 18.5059 42.5392 21.3912 41.2897 26.057C40.6676 28.382 41.2113 30.3981 42.4189 31.8748C43.6161 33.3462 45.8745 34.1579 48.3159 34.1579H58.1337L60.711 24.5175L62.6087 17.4324C63.3511 14.6466 62.546 12.8767 61.7357 11.8817" fill="#4D4D4D"/>
<path d="M115.697 9.68237C113.569 9.68237 111.598 10.3108 109.988 11.5047C108.367 12.7091 107.473 14.1544 106.94 16.1442C105.785 20.4644 109.172 22.5485 111.896 24.0305C113.851 25.0882 115.54 26.0046 115.174 27.3609C114.918 28.3349 114.494 29.1832 112.09 29.1832H104.755L103.422 34.1631H111.541C113.715 34.1631 115.728 33.7076 117.349 32.4613C118.969 31.2097 119.884 29.4712 120.449 27.3452C120.993 25.3239 120.627 23.3916 119.325 21.9516C118.243 20.7419 116.685 19.8988 115.31 19.1605C113.553 18.2127 111.891 17.3172 112.184 16.2333C112.361 15.5787 113.01 14.6623 114.432 14.6623H121.568L122.901 9.68237H115.692H115.697Z" fill="#4D4D4D"/>
<path d="M73.1217 9.68237C70.994 9.68237 69.0231 10.3108 67.4182 11.5047C65.7976 12.7091 64.9036 14.1544 64.3651 16.1442C63.2098 20.4644 66.6026 22.5485 69.3263 24.0305C71.2815 25.0882 72.9649 26.0046 72.6042 27.3609C72.3428 28.3349 71.9193 29.1832 69.5198 29.1832H62.1851L60.8521 34.1631H68.9708C71.1508 34.1631 73.1583 33.7076 74.7789 32.4613C76.3995 31.2097 77.3144 29.4712 77.8842 27.3452C78.4279 25.3239 78.0568 23.3916 76.7655 21.9516C75.6833 20.7419 74.1255 19.8988 72.7505 19.1605C70.994 18.2127 69.3368 17.3172 69.6295 16.2333C69.8021 15.5787 70.4555 14.6623 71.8723 14.6623H79.003L80.3413 9.68237H73.1322H73.1217Z" fill="#4D4D4D"/>
<path d="M84.2047 9.68237L77.832 34.1631H83.2167L89.5789 9.68237H84.2047Z" fill="#4D4D4D"/>
<path d="M103.893 9.68237C94.42 9.71903 89.464 16.0343 87.8904 21.9254C86.0241 28.9057 89.7359 34.1684 96.5215 34.1684H101.07L102.403 29.1884H97.8599C95.3192 29.1884 91.827 27.1881 93.2385 21.9306C94.3572 17.7519 98.4245 14.6728 102.884 14.6728H105.77L107.103 9.69285H103.898L103.893 9.68237Z" fill="#4D4D4D"/>
</g>
<defs>
<clipPath id="clip0_58_138">
<rect width="122.409" height="40.803" fill="white" transform="translate(0.49707 0.240967)"/>
</clipPath>
</defs>
</svg>
