<svg width="169" height="35" viewBox="0 0 169 35" fill="none" xmlns="http://www.w3.org/2000/svg">
<g clip-path="url(#clip0_19_52)">
<path d="M123.043 1.14742C123.043 1.84159 122.252 2.4018 121.377 2.4018C120.502 2.4018 120.047 1.86595 120.047 1.34228C120.035 0.696815 120.826 0.0878906 121.7 0.0878906C122.575 0.0878906 123.043 0.623744 123.043 1.14742ZM132.318 0.0878906C133.217 0.0878906 133.696 0.623744 133.696 1.14742C133.696 1.84159 132.857 2.4018 132.031 2.4018C131.132 2.4018 130.652 1.86595 130.652 1.34228C130.652 0.696815 131.491 0.0878906 132.318 0.0878906ZM166.149 11.2677C167.635 11.2677 168.498 12.1568 168.498 13.058C168.498 14.3002 167.084 15.2501 165.622 15.2501C164.16 15.2501 163.273 14.3611 163.273 13.4477C163.273 12.2177 164.687 11.2677 166.149 11.2677ZM145.093 13.0702C145.093 14.3124 143.679 15.2623 142.217 15.2623C140.755 15.2623 139.868 14.3733 139.868 13.4599C139.868 12.2177 141.282 11.2677 142.744 11.2677C144.23 11.2677 145.093 12.1568 145.093 13.0702ZM73.7881 9.50186C72.3021 10.0864 71.7029 10.2204 71.1036 10.2204C70.1809 10.2204 69.7734 9.80633 69.8214 8.81987L69.8333 8.58848L66.298 9.89158C64.7161 10.4761 64.2368 10.2813 64.2008 9.1974L64.1888 8.97819L61.4924 10.0377C60.0543 10.5857 59.527 9.78197 59.7308 8.95383L59.8027 8.67373L56.2194 9.989C56.0756 10.0377 55.9198 10.0986 55.764 10.1473C55.6083 10.196 55.4764 10.2204 55.3566 10.2204C54.9611 10.2204 54.5177 9.95247 54.4458 9.66018L54.3979 9.45315L54.2181 9.56276C53.3792 10.0864 52.6362 10.2204 51.9411 10.2204C50.8386 10.2204 50.4192 9.76979 50.4192 8.52759C50.4192 7.17577 52.5763 3.75362 55.4525 3.75362C56.0876 3.75362 56.7228 3.98501 57.1183 4.3869L57.2501 4.52086L57.6455 3.88758H60.1982L57.1422 8.45451L61.0131 6.88349L62.9785 3.89976H65.4951L62.4991 8.45451L65.2554 7.38281L67.4964 3.89976H70.049L67.0051 8.45451L70.5764 7.09052L74.7348 0.672458H77.2994L76.2568 2.28002H78.9532L78.2462 3.38826H75.5617L72.8773 7.40716C72.338 8.19877 72.7575 8.71026 73.7282 8.32055L76.113 7.40716C76.4485 5.39771 78.1143 3.74144 80.7268 3.74144C82.3327 3.74144 83.0518 4.61829 83.2675 5.38553L83.3154 5.55603L87.39 3.88758H90.0025L89.1516 5.21503L91.7522 4.00936C93.5258 3.15687 93.8734 4.41125 93.7895 4.91057L93.7415 5.20286L96.3061 4.00936C98.2475 3.12033 98.4992 4.65482 98.1277 5.19068L95.8867 8.52759L98.7269 7.4437C98.9786 6.22585 100.045 3.72926 103.401 3.72926C105.007 3.72926 105.845 4.64265 105.989 5.98228L106.013 6.20149L108.973 4.8375L111.933 0.380174H114.45L112.029 4.09461L112.425 3.98501C112.94 3.83887 113.503 3.74144 113.971 3.74144C115.145 3.74144 115.852 5.27593 114.654 7.16359L114.402 7.56548L117.29 6.45724L119.004 3.89976H121.521L118.525 8.46669L122.347 6.94438L126.638 0.33146H129.202L123.857 8.46669L127.68 6.94438L129.682 3.89976H132.198L129.202 8.46669L132.726 7.07834L133.145 8.19877L128.483 9.90375C128.22 10.0012 128.004 10.0864 127.812 10.1473C127.62 10.2082 127.453 10.2326 127.285 10.2326C126.686 10.2326 126.254 9.66018 126.422 8.96601L126.494 8.68591L123.342 9.80633C123.079 9.90376 122.851 10.0134 122.623 10.0986C122.407 10.1839 122.228 10.2326 122.048 10.2326C121.245 10.2326 120.921 9.66018 121.089 8.96601L121.161 8.68591L117.818 9.90375C117.554 10.0012 117.338 10.0864 117.146 10.1473C116.955 10.2082 116.787 10.2326 116.619 10.2326C115.912 10.2326 115.409 9.38008 115.972 8.52759L116.248 8.12569L111.574 9.85504C109.716 10.5005 106.96 10.4883 106.96 8.52759C106.96 8.18659 107.128 7.77252 107.367 7.33409L107.883 6.49378L105.714 7.52895C105.606 7.85777 105.426 8.13787 105.234 8.38144C104.395 9.46533 102.861 10.2204 101.22 10.2204C100.033 10.2204 99.3141 9.72108 98.8108 8.7468L98.7509 8.62501L95.0718 10.0377C93.394 10.6832 92.8188 9.57493 93.4299 8.61283L95.5152 5.47078L92.5791 6.83477L90.398 10.0743H87.9772L90.9972 5.4586L88.0611 6.83477L85.9279 10.0743H83.4592L86.3594 5.60475L83.2914 6.84695C82.7162 8.94165 80.6669 10.2204 78.8573 10.2204C77.2275 10.2204 76.4845 9.56276 76.2208 8.72244L76.1729 8.56412L73.7881 9.50186ZM56.3633 5.84832C56.4831 5.25157 56.2314 4.89839 55.6922 4.89839C54.326 4.89839 52.9478 7.1027 52.9478 8.13787C52.9478 8.51541 53.1156 8.68591 53.4871 8.68591C53.8586 8.68591 54.29 8.51541 54.8652 8.12569L56.3633 5.84832ZM78.7615 6.54249C77.9825 7.84559 77.7908 8.77115 78.342 9.06344C78.9652 9.38008 79.4805 8.8564 80.3194 7.54113C80.607 7.07834 80.8707 6.56685 81.0025 6.1406C81.1223 5.73871 81.1703 5.30028 80.8467 5.08107C80.2834 4.67918 79.7082 4.95929 78.7615 6.54249ZM101.435 6.54249C100.656 7.84559 100.465 8.77115 101.016 9.06344C101.639 9.38008 102.154 8.8564 102.993 7.54113C103.281 7.07834 103.544 6.56685 103.676 6.1406C103.796 5.73871 103.844 5.30028 103.521 5.08107C102.957 4.67918 102.382 4.95929 101.435 6.54249ZM110.375 6.4816C109.561 7.69945 109.489 8.07698 109.489 8.38144C109.489 8.73462 109.68 9.12433 110.22 9.12433C110.759 9.12433 111.31 8.71026 111.981 7.63856C112.509 6.71299 112.724 6.1406 112.724 5.65346C112.724 5.26375 112.545 4.91057 112.089 4.91057C111.574 4.89839 111.334 5.08107 110.375 6.4816ZM33.977 17.3205C35.0915 17.3205 36.1102 17.698 36.8532 18.3556L36.985 18.4774L37.5603 17.564H41.8506L36.5057 25.7114L41.8146 23.0931L45.4458 17.564H49.8799L48.4298 19.7562L52.2168 17.8928C53.2114 17.4057 53.583 17.3205 54.1222 17.3205C55.3806 17.3205 55.9318 18.4652 55.7521 19.476L55.6922 19.7805L59.563 17.8928C60.5577 17.4057 60.9172 17.3205 61.4685 17.3205C62.7987 17.3205 63.7934 18.8062 62.595 20.6452L59.3593 25.614L64.6083 23.0565L71.9665 11.8036H76.4006L72.4818 17.7711L72.8893 17.6493C73.5484 17.4544 74.3993 17.3083 75.1063 17.3083C76.5923 17.3083 77.7428 17.8563 77.7428 19.8901C77.7428 20.9862 77.3234 22.4111 76.5804 23.3001L76.113 23.8603L80.1756 21.863C81.8054 19.0254 84.3101 17.3083 87.6057 17.3083C89.5711 17.3083 91.3447 17.7954 91.9319 19.1716L91.9919 19.3177L96.6057 17.0282C98.9186 17.5397 101.627 17.7832 104.096 17.9781L102.262 20.7791C99.8055 21.3515 97.924 23.7507 97.924 24.6763C97.924 25.5044 99.1104 25.6749 100.357 25.066L103.341 23.5802C104.407 20.9618 107.487 17.3205 111.346 17.3205C112.473 17.3205 113.575 17.7467 114.162 18.3922L114.294 18.5383L114.929 17.564H119.363L114.067 25.614L119.423 22.9469L126.746 11.8036H131.18L125.931 19.7562L129.706 17.8928C130.7 17.4057 131.06 17.3205 131.611 17.3205C132.941 17.3205 133.936 18.8062 132.738 20.6452L129.49 25.614L134.751 22.9956L138.334 17.564H142.768L137.471 25.614L142.78 22.9956L146.364 17.564H150.798L149.396 19.6953L153.123 17.8928C154.117 17.4057 154.525 17.3205 155.028 17.3205C156.358 17.3205 157.353 18.8062 156.155 20.6452L152.907 25.614L158.108 23.0565L161.739 17.5762H166.173L160.876 25.6262L167.36 22.4111L168.031 23.7385L159.953 27.6722C159.103 28.1106 158.599 28.2446 158 28.2446C156.658 28.2446 156.095 26.978 156.466 25.8089L156.574 25.4679L152.02 27.6722C150.965 28.1593 150.654 28.2446 150.115 28.2446C148.784 28.2446 147.838 26.7101 149 24.9198L152.248 19.951L147.766 22.1797L143.943 28.001H139.509L141.198 25.4192L136.609 27.6722C135.614 28.1593 135.158 28.2446 134.607 28.2446C133.169 28.2446 132.702 26.9293 133.073 25.7602L133.181 25.407L128.627 27.6722C127.632 28.1593 127.273 28.2446 126.722 28.2446C125.391 28.2446 124.397 26.7588 125.595 24.9198L128.843 19.951L124.361 22.1797L120.538 28.001H116.104L117.853 25.3704L112.473 28.0253L110.1 31.6789C109.165 33.1403 107.2 34.2486 104.995 34.2486C103.173 34.2486 101.843 33.53 100.824 32.4827L101.567 31.4475C102.262 31.9955 103.245 32.3122 104.036 32.3122C104.959 32.2635 105.63 31.7763 106.229 30.9238L108.47 27.5382L108.015 27.7087C107.26 28.001 106.313 28.2324 105.522 28.2324C103.928 28.2324 103.125 27.6113 102.933 25.6384L102.909 25.4192L99.6377 27.0267C97.8641 27.9036 96.7855 28.2324 95.7189 28.2324C93.9453 28.2324 93.1303 27.4408 93.1303 26.1864C93.1303 24.0795 94.7961 21.9726 98.0798 20.4747L98.6071 20.2311L98.0318 20.1702C96.5578 20.0241 95.5991 19.8292 94.7961 19.5857L92.0997 20.8766C92.0997 21.9117 91.7282 22.9956 90.7815 24.4083C89.2235 26.7101 86.7668 28.2446 83.7948 28.2446C81.0145 28.2446 79.2408 27.2825 79.2408 25.273C79.2408 24.932 79.2408 24.5545 79.3367 24.1891L79.4206 23.8603L74.1236 26.503C71.4512 27.8183 69.5457 28.2446 67.7481 28.2446C65.2674 28.2446 63.6855 27.2337 63.8173 25.2852L63.8413 25.0173L58.4605 27.6722C57.4658 28.1593 57.1063 28.2446 56.555 28.2446C55.2248 28.2446 54.2301 26.7588 55.4285 24.9198L58.6762 19.951L54.1941 22.1797L50.3712 28.001H46.0809L51.3299 19.951L46.8479 22.1797L43.025 28.001H38.5909L40.2447 25.5166L35.8825 27.6722C35.1635 28.0132 34.5163 28.2446 33.977 28.2446C33.222 28.2446 32.479 27.7087 32.3472 26.9171L32.3112 26.6735L32.1075 26.8197C30.6934 27.8305 29.2793 28.2567 28.1168 28.2567C26.7746 28.2567 26.1754 27.8914 25.8159 26.8075L25.756 26.637L23.2873 27.8427C22.1607 28.4151 21.1781 28.5612 20.3272 28.5612C19.6321 28.5612 18.8651 28.3298 17.9783 27.9523C17.0915 27.5747 16.1088 27.0754 15.0063 26.5639L14.8625 26.5761C12.6694 27.9279 10.1527 28.7561 7.20464 28.7561C3.09411 28.7561 0.541504 27.3799 0.541504 25.5896C0.541504 23.4706 3.21395 21.522 8.3671 21.522C10.5602 21.522 12.4177 21.9117 14.0835 22.4476L14.1913 22.4841C15.6294 20.5965 16.9117 18.4531 18.2659 16.2366C19.6081 14.0323 21.0223 11.7671 22.6641 9.72108C25.9357 5.64128 30.0822 2.48705 36.3858 2.48705C41.5629 2.48705 43.8759 4.56958 43.8759 6.67645C43.8759 11.0485 36.1102 12.8875 31.4724 10.9024L32.0596 9.83068C35.7387 10.3544 38.2553 9.0269 39.1062 7.49241C40.017 5.8605 39.0223 4.17986 36.0623 4.17986C31.9877 4.17986 29.2553 7.41934 26.6787 11.4504C25.3964 13.4721 24.1381 15.7129 22.76 17.8807C21.3938 20.0484 19.9077 22.1431 18.1701 23.8968L18.0143 24.0552L18.218 24.1526C19.1408 24.591 19.9916 25.0051 20.7946 25.3217C21.5975 25.6262 22.3645 25.8332 23.0835 25.8332C23.8026 25.8332 24.4377 25.6749 25.5043 25.139L25.5882 25.0173C25.9956 22.131 29.6508 17.3205 33.977 17.3205ZM71.7148 19.7562L70.9119 20.158L69.6416 21.9483C68.2395 23.909 68.0717 24.7737 68.0717 25.2608C68.0717 25.821 68.4192 26.3447 69.1862 26.3447C70.097 26.3447 70.9958 25.5775 72.0983 23.7263C73.105 22.0335 73.5604 21.108 73.5604 20.2798C73.5604 19.6587 73.2608 19.3908 72.7814 19.3908C72.5058 19.403 72.0983 19.5613 71.7148 19.7562ZM112.916 20.6452C113.084 19.8049 112.7 19.2081 111.909 19.2081C111.023 19.2081 109.776 20.0363 108.71 21.4124C108.17 22.0579 107.583 23.1052 107.152 24.2378C106.756 25.3095 107.343 27.526 109.848 25.2365L112.916 20.6452ZM87.402 19.2081C85.8321 19.2081 82.9199 24.1769 82.9199 25.1756C82.9199 25.9306 83.2675 26.3569 83.9865 26.3569C85.5564 26.3569 88.4686 21.4002 88.4686 20.3894C88.4686 19.6344 88.121 19.2081 87.402 19.2081ZM35.5589 20.6452C35.7267 19.7562 35.3312 19.2081 34.5523 19.2081C32.3712 19.2081 29.7826 23.1783 29.7826 24.8346C29.7826 25.3948 30.0343 25.7236 30.6095 25.7236C31.0409 25.7236 31.5443 25.5044 32.1315 25.1634L32.8385 24.7493L35.5589 20.6452ZM5.62275 24.2378C3.75323 24.2378 2.49491 24.7493 2.49491 25.5166C2.49491 26.3813 3.90902 27.0389 6.7852 27.0389C8.60678 27.0389 10.0808 26.3934 11.3991 25.3948L11.6387 25.2121L11.3511 25.1147C9.64939 24.5788 7.75591 24.2378 5.62275 24.2378Z" fill="#4D4D4D"/>
</g>
<defs>
<clipPath id="clip0_19_52">
<rect width="167.957" height="34.1607" fill="white" transform="translate(0.541504 0.0878906)"/>
</clipPath>
</defs>
</svg>
