<svg width="89" height="87" viewBox="0 0 89 87" fill="none" xmlns="http://www.w3.org/2000/svg">
<g clip-path="url(#clip0_58_145)">
<path d="M44.3764 86.8007H44.9658C45.1565 86.8007 45.3645 86.7834 45.5552 86.7834C49.8546 86.6798 54.0673 85.9547 58.1414 84.6079C66.3414 81.8799 73.2065 77.2008 78.6328 70.5016C85.2552 62.3175 88.5144 52.9249 88.4624 42.4099C88.4451 39.0085 88.0464 35.6416 87.2489 32.3265C85.3766 24.6087 81.6666 17.8749 76.119 12.1772C72.045 7.98153 67.2949 4.73553 61.938 2.35282C60.1697 1.55859 58.3841 0.816153 56.4424 0.539898C55.5236 0.419036 54.6048 0.453568 53.7553 0.885217C51.7616 1.93844 51.6403 4.92545 53.5646 6.23767C54.2234 6.68658 54.9515 7.06643 55.6969 7.37722C58.072 8.41318 60.4991 9.34554 62.7875 10.5887C69.982 14.5081 75.5123 20.0332 79.2049 27.3367C82.8455 34.5539 84.007 42.2027 82.8802 50.1796C82.2907 54.3752 81.0425 58.3636 79.1009 62.1276C75.0789 69.9318 69.0979 75.8195 61.1579 79.6526C54.102 83.054 46.6474 84.1417 38.8981 83.0712C34.6854 82.5015 30.6634 81.241 26.8668 79.3073C19.3082 75.4569 13.5872 69.7592 9.7039 62.2485C6.67006 56.378 5.3005 50.1105 5.47386 43.5149C5.54321 41.0804 5.82059 38.6977 6.34067 36.3323C8.43836 27.0777 13.3098 19.5843 20.8684 13.8347C24.145 11.3311 27.8203 9.5182 31.6342 7.98153C32.8304 7.49808 34.0266 6.92831 35.1362 6.25493C36.2804 5.5643 36.7484 4.13122 36.4364 2.81901C36.107 1.43773 34.9281 0.539898 33.4025 0.4881C31.981 0.436302 30.6461 0.816153 29.3285 1.2996C22.6021 3.82043 16.7598 7.65348 11.8883 12.9196C5.36984 19.9468 1.60788 28.269 0.515697 37.7481C-0.0043897 42.2545 0.1343 46.7609 1.03578 51.2155C3.08146 61.4024 8.0743 69.88 16.049 76.5447C24.2317 83.3648 33.7319 86.6971 44.3764 86.8007ZM9.0798 43.7048C9.0798 43.9638 9.04513 44.2401 9.09714 44.4818C9.13181 44.6372 9.2705 44.8789 9.40919 44.8962C9.54788 44.9307 9.75591 44.7753 9.8946 44.6544C9.96395 44.5854 9.98128 44.43 10.0333 44.3091C10.2067 43.6876 10.38 43.0487 10.5707 42.4271C12.6164 35.5035 16.361 29.6849 22.082 25.1784C24.7518 23.072 27.7163 21.4317 30.8194 20.0159C31.6689 19.6361 32.3277 19.0663 32.7784 18.2548C33.8706 16.2865 32.8651 13.5066 30.0046 13.4894C28.9991 13.4894 28.0803 13.8347 27.2135 14.3181C20.5737 18.0131 15.6849 23.331 12.391 30.1165C10.3107 34.4157 9.21849 38.9394 9.0798 43.7048ZM79.6383 43.653C79.5863 41.5293 79.3262 39.4401 78.8582 37.3682C77.5753 31.774 75.0442 26.8014 71.3342 22.4159C68.5778 19.1526 65.3359 16.4246 61.5566 14.3699C60.6031 13.852 59.6149 13.4894 58.5054 13.5239C56.8585 13.5757 55.5756 14.8016 55.5236 16.4419C55.4716 18.1339 56.3557 19.2562 57.812 19.9986C58.7134 20.4476 59.6323 20.8619 60.5164 21.3281C63.7583 22.9857 66.7401 25.0403 69.3579 27.5957C73.5533 31.705 76.3791 36.6085 78.0607 42.1854C78.3034 42.9624 78.5114 43.7566 78.7368 44.5336C78.8061 44.8098 78.9968 44.9825 79.2742 44.948C79.5689 44.9134 79.6209 44.6717 79.6209 44.4127C79.6383 44.1537 79.6383 43.8947 79.6383 43.653ZM30.9581 47.3134C30.9408 50.145 31.8943 52.0443 33.6799 53.2356C35.1015 54.1853 36.6964 54.4788 38.378 54.3752C40.025 54.2716 41.4986 53.7363 42.6774 52.5623C44.255 51.0256 44.7578 49.0918 44.5844 46.9508C44.4457 45.466 43.9256 44.1365 42.9028 43.0314C40.7531 40.7005 36.367 40.4761 33.8359 42.1682C31.8249 43.5149 31.0101 45.466 30.9581 47.3134ZM47.5489 54.0989C48.9531 54.0989 50.3227 54.1162 51.6923 54.0989C52.3337 54.0817 52.9925 54.0471 53.6339 53.9608C57.4479 53.391 59.7536 50.076 58.9908 46.312C58.4014 43.394 56.2344 41.5466 53.1485 41.4084C51.3455 41.3394 49.5426 41.3739 47.7396 41.3739C47.6876 41.3739 47.6183 41.3912 47.5489 41.4084V54.0989ZM19.3082 54.0817C19.3775 54.0989 19.4469 54.0989 19.4989 54.0989C21.0245 54.0989 22.5327 54.1162 24.0583 54.0989C25.0118 54.0817 25.9306 53.9435 26.8148 53.5292C28.9125 52.545 29.4152 49.7652 27.7509 48.2112C27.2482 47.7451 26.6241 47.5379 25.8959 47.3825C26.104 47.2961 26.2427 47.2443 26.364 47.1753C28.2017 46.3638 28.7391 43.9983 27.4042 42.548C26.6761 41.7538 25.7226 41.4257 24.6997 41.3912C22.9661 41.3394 21.2498 41.3567 19.5162 41.3567C19.4469 41.3567 19.3775 41.3912 19.3082 41.4084V54.0817ZM51.0335 69.7764C51.1895 69.7592 51.3282 69.7592 51.4842 69.7419C54.6221 69.5865 57.1358 67.5319 57.4826 64.3204C57.6906 62.3348 57.2919 60.4873 55.853 59.0025C54.6394 57.7248 53.0965 57.2068 51.3629 57.155C49.2305 57.0859 47.3755 57.6903 46.006 59.3996C45.0872 60.5391 44.6884 61.8514 44.6538 63.3017C44.6017 65.27 45.1738 66.9966 46.6994 68.3088C47.965 69.3448 49.4386 69.7419 51.0335 69.7764ZM32.4664 57.4485V69.4484H34.5987V64.1995H40.2157V69.4484H42.348V57.4485H40.1983V62.1794H34.5987V57.4485H32.4664ZM60.031 57.3795V69.4656H62.1634V64.8211C62.6141 64.8211 63.0302 64.8384 63.4636 64.8211C64.209 64.7693 64.9545 64.7175 65.6826 64.5794C66.7055 64.3895 67.6069 63.9405 68.0924 62.9564C68.6298 61.8686 68.6991 60.7291 68.2484 59.6068C67.7283 58.3291 66.6361 57.6903 65.3532 57.5694C63.5849 57.3967 61.8166 57.4313 60.031 57.3795ZM22.0993 66.7204C22.0993 67.3937 22.082 68.0153 22.1166 68.6196C22.1166 68.7577 22.238 68.9649 22.3594 69.0167C24.1103 69.8628 25.9306 70.0527 27.7509 69.2757C29.0338 68.7232 29.7966 67.7218 29.8833 66.2887C29.97 64.8038 29.2939 63.7333 27.9763 63.0772C27.4735 62.8355 26.9535 62.6456 26.4334 62.4211C25.9133 62.1967 25.3759 62.0067 24.8558 61.765C24.3877 61.5233 24.0583 61.1607 24.093 60.5909C24.1277 60.0212 24.4917 59.6758 24.9771 59.4514C25.5319 59.1924 26.1213 59.1233 26.7281 59.2097C27.4909 59.3133 28.2537 59.5032 29.0165 59.6413V57.6903C27.7856 57.2241 26.5374 57.0341 25.2545 57.2759C24.249 57.4658 23.3822 57.8802 22.6887 58.6744C21.5446 60.0039 21.5446 62.4729 23.5902 63.4916C24.1103 63.7506 24.6651 63.9405 25.2025 64.165C25.8266 64.424 26.4854 64.6484 27.0575 64.9938C27.9243 65.529 27.959 66.6513 27.1442 67.2901C26.8841 67.4973 26.5374 67.6527 26.208 67.7218C24.8558 67.998 23.6249 67.6355 22.4634 66.9448C22.3594 66.8757 22.2553 66.8067 22.0993 66.7204ZM41.4986 33.3625H46.5781V38.1106H48.4677V27.3885H46.5607V31.6359H41.4812V27.3712C40.9611 27.3712 40.4931 27.3885 40.025 27.3539C39.6783 27.3367 39.5916 27.4575 39.5916 27.7856C39.6089 31.1007 39.5916 34.3985 39.6089 37.7135C39.6089 37.8517 39.6262 37.9725 39.6262 38.1106H41.4986V33.3625ZM53.2179 33.4143H58.124C58.124 32.9654 58.1067 32.5337 58.124 32.1194C58.1414 31.8431 58.0373 31.7568 57.76 31.774C56.3904 31.7913 55.0208 31.774 53.6513 31.774H53.2352V29.0978H58.3841V27.3885H51.2935V38.1106H58.6788V36.3495H53.2179V33.4143ZM67.0868 54.0817V53.6673C67.0868 52.1133 67.0695 50.5421 67.0868 48.9882C67.0868 48.7637 67.1735 48.5048 67.2949 48.3148C68.7165 46.1221 70.1554 43.9465 71.5943 41.7538C71.6636 41.6502 71.733 41.5466 71.8196 41.3739C71.0395 41.3739 70.3287 41.3912 69.6179 41.3739C69.3406 41.3567 69.1672 41.443 69.0285 41.702C68.127 43.2041 67.2082 44.6717 66.2894 46.1566C66.22 46.2774 66.1334 46.381 66.0467 46.5192C65.9427 46.3638 65.8733 46.2774 65.804 46.1566C64.9372 44.7753 64.0183 43.4113 63.1862 42.0128C62.8915 41.5293 62.5794 41.3221 62.0073 41.3739C61.3832 41.4257 60.7591 41.3912 60.0657 41.3912C60.1697 41.5638 60.2217 41.6674 60.291 41.771C61.73 43.9638 63.1862 46.1566 64.6078 48.3666C64.7291 48.5566 64.7985 48.8155 64.7985 49.0573C64.8158 50.5939 64.8158 52.1306 64.8158 53.6673V54.1162H67.0868V54.0817ZM34.5294 29.0978H37.8406V27.3712H29.2592V29.1323H32.6051V38.1106H34.5121V29.0978H34.5294ZM87.3529 82.1216C87.3529 79.6008 85.3072 77.5634 82.7761 77.5634C80.2277 77.5461 78.182 79.6008 78.1647 82.1389C78.1474 84.6597 80.2277 86.7143 82.7588 86.7143C85.3072 86.6971 87.3529 84.6597 87.3529 82.1216Z" fill="white"/>
<path d="M44.3764 86.8007C33.7319 86.6971 24.2317 83.3648 16.0663 76.5447C8.0743 69.8801 3.08146 61.4025 1.03578 51.2156C0.1343 46.7609 -0.00438973 42.2545 0.515697 37.7481C1.60788 28.2518 5.36984 19.9469 11.8883 12.9196C16.7598 7.65351 22.6194 3.82046 29.3285 1.29963C30.6287 0.798917 31.981 0.436331 33.3852 0.488129C34.9108 0.539927 36.0897 1.43776 36.419 2.81904C36.7311 4.11398 36.263 5.54706 35.1188 6.25496C34.0093 6.92834 32.8304 7.49811 31.6169 7.98156C27.8029 9.5355 24.145 11.3312 20.8511 13.8347C13.2925 19.5843 8.42102 27.0777 6.306 36.3323C5.76858 38.6805 5.50853 41.0804 5.43919 43.5149C5.26583 50.1278 6.63539 56.3781 9.66923 62.2485C13.5352 69.7592 19.2735 75.457 26.8148 79.3073C30.6114 81.2411 34.6334 82.5015 38.8461 83.0713C46.5954 84.1245 54.05 83.0367 61.1059 79.6526C69.0458 75.8196 75.0268 69.9491 79.0489 62.1276C80.9905 58.3637 82.2387 54.3752 82.8282 50.1796C83.955 42.1855 82.7762 34.5539 79.1529 27.3367C75.4776 20.0332 69.93 14.4908 62.7355 10.5887C60.4471 9.34557 58.02 8.41321 55.6449 7.37725C54.8995 7.0492 54.1714 6.68661 53.5126 6.2377C51.5883 4.90822 51.7096 1.92121 53.7033 0.885247C54.5528 0.436331 55.4716 0.401799 56.3904 0.539927C58.3321 0.798917 60.1177 1.55862 61.9033 2.33559C67.2429 4.71829 72.0104 7.9643 76.0844 12.1772C81.632 17.8922 85.3419 24.6087 87.2142 32.3266C88.0117 35.6417 88.4104 38.9912 88.4278 42.4099C88.4798 52.9249 85.2206 62.3176 78.5981 70.5016C73.1719 77.2008 66.3067 81.8799 58.1067 84.6079C54.0153 85.9547 49.82 86.6799 45.5206 86.7835C45.3299 86.7835 45.1218 86.8007 44.9311 86.818C44.7751 86.8007 44.5671 86.8007 44.3764 86.8007Z" fill="#4D4D4D"/>
<path d="M9.07986 43.7048C9.20122 38.9566 10.3107 34.4157 12.3737 30.1337C15.6676 23.3482 20.5738 18.0303 27.1962 14.3354C28.063 13.8519 28.9819 13.5066 29.9874 13.5066C32.8478 13.5239 33.8533 16.3037 32.7612 18.272C32.3104 19.0835 31.6343 19.6533 30.8022 20.0331C27.7163 21.4489 24.7518 23.0892 22.0647 25.1957C16.3437 29.7021 12.5991 35.5034 10.5534 42.4271C10.3627 43.0659 10.1894 43.6875 10.016 44.3263C9.98135 44.4472 9.96401 44.5853 9.87733 44.6717C9.73864 44.7925 9.53061 44.9479 9.39192 44.9134C9.25323 44.8789 9.11454 44.6544 9.07986 44.499C9.04519 44.24 9.07986 43.9638 9.07986 43.7048Z" fill="#4D4D4D"/>
<path d="M79.6381 43.653V44.3955C79.6381 44.6372 79.5688 44.8962 79.2914 44.9307C79.014 44.9652 78.8233 44.7926 78.754 44.5163C78.5286 43.7394 78.3032 42.9451 78.0779 42.1682C76.3789 36.5912 73.5531 31.6877 69.3577 27.5957C66.74 25.0403 63.7755 23.0029 60.5336 21.3281C59.6321 20.8792 58.7133 20.4476 57.8291 19.9986C56.3729 19.2562 55.4887 18.1339 55.5407 16.4419C55.5928 14.8016 56.8756 13.5757 58.5226 13.5239C59.6321 13.4894 60.6203 13.8692 61.5738 14.3699C65.3531 16.4246 68.5949 19.1526 71.3514 22.4159C75.0613 26.8014 77.5924 31.774 78.8753 37.3682C79.3261 39.4401 79.5688 41.5293 79.6381 43.653Z" fill="#4D4D4D"/>
<path d="M30.9578 47.3133C31.0098 45.4658 31.8246 43.5148 33.8182 42.1853C36.3493 40.476 40.7354 40.7177 42.8851 43.0486C43.9253 44.1536 44.4453 45.4831 44.5667 46.968C44.7574 49.109 44.2546 51.0427 42.6597 52.5794C41.4808 53.7362 39.9899 54.2715 38.3603 54.3923C36.6787 54.4959 35.0838 54.2024 33.6622 53.2528C31.8939 52.0442 30.9404 50.1277 30.9578 47.3133ZM33.2981 47.6586C33.3502 48.0212 33.3502 48.4011 33.4195 48.7636C34.2516 52.8211 38.499 53.1147 40.4753 51.5607C41.7062 50.5938 42.209 49.2644 42.2436 47.7449C42.3303 44.7061 39.9553 42.617 36.9388 43.1004C34.7891 43.4457 33.3155 45.2932 33.2981 47.6586Z" fill="#4D4D4D"/>
<path d="M47.5488 54.0988V41.3911C47.6182 41.3738 47.6875 41.3565 47.7395 41.3565C49.5425 41.3565 51.3455 41.322 53.1484 41.3911C56.2169 41.5119 58.384 43.3767 58.9734 46.2946C59.7362 50.0586 57.4131 53.3736 53.6165 53.9434C52.9751 54.047 52.3336 54.0816 51.6922 54.0988C50.3226 54.1161 48.9531 54.0988 47.5488 54.0988ZM49.8025 43.2558V52.0614C51.0334 52.3204 53.3565 52.0787 54.4313 51.578C55.6102 51.0255 56.425 50.1622 56.685 48.85C56.789 48.2975 56.8237 47.7449 56.789 47.1924C56.6504 45.1723 55.4542 43.8083 53.4605 43.4802C52.2643 43.2903 51.0507 43.3249 49.8025 43.2558Z" fill="#4D4D4D"/>
<path d="M19.3081 54.0816V41.4257C19.3775 41.4084 19.4468 41.3739 19.5161 41.3739C21.2498 41.3739 22.9661 41.3566 24.6997 41.4084C25.7399 41.4429 26.6933 41.771 27.4041 42.5479C28.739 44.0156 28.2016 46.381 26.364 47.1752C26.2253 47.227 26.0866 47.2961 25.8959 47.3651C26.624 47.5205 27.2481 47.7105 27.7509 48.1939C29.3978 49.7306 28.895 52.5104 26.7974 53.5118C25.9305 53.9262 24.9944 54.0643 24.0409 54.0816C22.5153 54.0989 21.0071 54.0816 19.4815 54.0816C19.4468 54.0989 19.3948 54.0816 19.3081 54.0816ZM21.4751 52.1996C22.4113 52.1996 23.3301 52.2342 24.2489 52.1824C24.6823 52.1651 25.1331 52.0442 25.5318 51.8716C26.2773 51.5608 26.6067 50.8874 26.5373 50.0586C26.468 49.2989 26.0519 48.7982 25.2544 48.6083C24.0062 48.332 22.7407 48.5047 21.4578 48.4529V52.1996H21.4751ZM21.4751 46.5882C22.3246 46.5882 23.1221 46.6054 23.9369 46.5882C24.1623 46.5882 24.405 46.5364 24.6303 46.4673C25.4625 46.2256 25.8959 45.6385 25.8785 44.8443C25.8439 44.0501 25.4105 43.463 24.5263 43.3594C23.5208 43.2386 22.498 43.2386 21.4751 43.2041V46.5882Z" fill="#4D4D4D"/>
<path d="M51.0331 69.7764C49.4382 69.7592 47.9646 69.3448 46.7164 68.2916C45.1908 66.9621 44.6187 65.2355 44.6707 63.2672C44.7054 61.8341 45.0868 60.5046 46.0229 59.365C47.3925 57.673 49.2648 57.0687 51.3798 57.1205C53.1135 57.1723 54.6564 57.7075 55.8699 58.9679C57.3088 60.4701 57.7076 62.3003 57.4995 64.3031C57.1528 67.5146 54.639 69.5865 51.5012 69.7246C51.3452 69.7592 51.1891 69.7592 51.0331 69.7764ZM51.0504 67.7908C51.9173 67.7908 52.68 67.5837 53.3562 67.152C54.8818 66.1678 55.6272 64.1995 55.1418 62.283C54.7604 60.7291 53.7896 59.6758 52.2293 59.2442C50.6517 58.8125 49.2128 59.1406 48.0686 60.3665C47.0458 61.4715 46.7857 62.8182 47.0111 64.2686C47.3058 66.375 48.9528 67.7908 51.0504 67.7908Z" fill="#4D4D4D"/>
<path d="M32.4663 57.4485H34.5987V62.1966H40.1983V57.4485H42.348V69.4483H40.2156V64.1995H34.5987V69.4656H32.4663V57.4485Z" fill="#4D4D4D"/>
<path d="M60.0137 57.3794C61.8166 57.4312 63.5849 57.3967 65.3359 57.5693C66.6188 57.6902 67.711 58.329 68.231 59.6067C68.6818 60.729 68.6124 61.8685 68.075 62.9563C67.5896 63.9405 66.6881 64.3894 65.6653 64.5793C64.9372 64.7174 64.1917 64.752 63.4462 64.8038C63.0302 64.8383 62.6141 64.8038 62.146 64.8038V69.4483H60.0137V57.3794ZM62.1807 59.2959V63.0426C62.7181 63.0426 63.2382 63.0772 63.7583 63.0254C64.2264 62.9908 64.7291 62.939 65.1799 62.7836C65.9947 62.4901 66.4107 61.6441 66.2547 60.7463C66.116 59.883 65.5959 59.3477 64.6771 59.2959C63.8623 59.2614 63.0475 59.2959 62.1807 59.2959Z" fill="#4D4D4D"/>
<path d="M22.0989 66.7204C22.255 66.824 22.359 66.8758 22.463 66.9448C23.6245 67.6355 24.8554 67.9808 26.2076 67.7218C26.537 67.6527 26.8837 67.4973 27.1438 67.2901C27.9413 66.6686 27.9239 65.529 27.0571 64.9938C26.485 64.6484 25.8089 64.4413 25.2021 64.165C24.6647 63.9405 24.1099 63.7506 23.5899 63.4916C21.5442 62.4729 21.5615 60.0039 22.7057 58.6744C23.3818 57.8802 24.266 57.4658 25.2715 57.2759C26.5717 57.0342 27.8199 57.2241 29.0334 57.6903V59.6413C28.2706 59.4859 27.5078 59.3133 26.7451 59.2097C26.1556 59.1233 25.5489 59.1924 24.9941 59.4514C24.5087 59.6931 24.1446 60.0212 24.1099 60.5909C24.0753 61.1607 24.4047 61.5406 24.8727 61.765C25.3755 62.024 25.9129 62.2139 26.4503 62.4211C26.9704 62.6456 27.4905 62.8183 27.9933 63.0772C29.3108 63.7333 29.9869 64.7866 29.9002 66.2887C29.8136 67.7218 29.0508 68.7232 27.7852 69.2757C25.9649 70.0527 24.1446 69.8628 22.3763 69.0167C22.255 68.9649 22.151 68.7577 22.1336 68.6196C22.0816 68.0153 22.0989 67.3937 22.0989 66.7204Z" fill="#4D4D4D"/>
<path d="M41.4812 33.3624V38.0932H39.6089C39.5916 37.9551 39.5916 37.8342 39.5916 37.6961C39.5916 34.381 39.5916 31.0832 39.5742 27.7682C39.5742 27.4229 39.6609 27.3193 40.0076 27.3365C40.4757 27.3711 40.9438 27.3538 41.4639 27.3538V31.6185H46.5607V27.3711H48.4504V38.1105H46.5607V33.3624H41.4812Z" fill="#4D4D4D"/>
<path d="M53.2178 33.4142V36.3321H58.6787V38.0933H51.2935V27.3711H58.384V29.0977H53.2178V31.7739H57.7599C58.0373 31.7739 58.1413 31.843 58.1239 32.1192C58.1066 32.5336 58.1239 32.9653 58.1239 33.4142H53.2178Z" fill="#4D4D4D"/>
<path d="M67.0866 54.0816H64.8329V53.6327C64.8329 52.096 64.8502 50.5593 64.8329 49.0226C64.8329 48.7982 64.7636 48.5392 64.6249 48.332C63.186 46.1392 61.747 43.9465 60.3081 41.7364C60.2388 41.6328 60.1694 41.5292 60.0654 41.3566C60.7589 41.3566 61.383 41.4084 62.0071 41.3393C62.5792 41.2875 62.8912 41.4947 63.186 41.9781C64.0181 43.3767 64.9196 44.7407 65.8037 46.122C65.8731 46.2256 65.9598 46.3464 66.0464 46.4845C66.1504 46.3292 66.2198 46.2256 66.2891 46.122C67.208 44.6371 68.1268 43.1522 69.0283 41.6501C69.1843 41.4084 69.3403 41.322 69.6177 41.322C70.3285 41.3393 71.0393 41.322 71.8194 41.322C71.7154 41.4774 71.6634 41.5983 71.5767 41.7019C70.1378 43.8947 68.6989 46.0702 67.2773 48.2629C67.156 48.4529 67.0693 48.7119 67.0693 48.9363C67.0519 50.4903 67.0519 52.0615 67.0519 53.6154V54.0816H67.0866Z" fill="#4D4D4D"/>
<path d="M34.529 29.0978V38.0933H32.622V29.1323H29.2588V27.3884H37.8402V29.0978H34.529Z" fill="#4D4D4D"/>
<path d="M87.3529 82.1215C87.3529 84.6596 85.3072 86.6969 82.7588 86.7142C80.2103 86.7142 78.1473 84.6423 78.1647 82.1387C78.182 79.6006 80.245 77.5632 82.7761 77.5632C85.3072 77.5632 87.3529 79.6006 87.3529 82.1215ZM86.5207 82.1387C86.5207 80.015 84.8564 78.3057 82.7934 78.2884C80.6957 78.2711 78.9968 79.9805 78.9968 82.1042C78.9795 84.2279 80.6784 85.9372 82.7588 85.9372C84.8391 85.9545 86.5207 84.2452 86.5207 82.1387Z" fill="#4D4D4D"/>
<path d="M33.2983 47.6585C33.333 45.2931 34.7893 43.4456 36.939 43.1003C39.9555 42.6169 42.3479 44.706 42.2438 47.7449C42.1918 49.2643 41.7064 50.5765 40.4755 51.5606C38.4992 53.1146 34.2518 52.8383 33.4197 48.7635C33.3503 48.401 33.333 48.0384 33.2983 47.6585Z" fill="white"/>
<path d="M49.8025 43.2559C51.0507 43.3249 52.2642 43.3077 53.4431 43.4976C55.4541 43.8256 56.633 45.1896 56.7717 47.2098C56.8063 47.7623 56.7717 48.3321 56.6676 48.8673C56.4249 50.1622 55.6101 51.0428 54.4139 51.5953C53.3391 52.096 51.016 52.3378 49.7852 52.0788V43.2559H49.8025Z" fill="white"/>
<path d="M21.4751 52.1995V48.4528C22.758 48.5046 24.0235 48.3147 25.2717 48.6082C26.0519 48.7809 26.4679 49.2989 26.5373 50.0586C26.6066 50.8873 26.2599 51.5607 25.5318 51.8715C25.133 52.0442 24.6823 52.165 24.2489 52.1823C23.3301 52.2341 22.4113 52.1995 21.4751 52.1995Z" fill="white"/>
<path d="M21.4751 46.5882V43.1868C22.5153 43.2386 23.5208 43.2213 24.5263 43.3422C25.3931 43.4458 25.8438 44.0328 25.8785 44.827C25.9132 45.6213 25.4624 46.2083 24.6303 46.45C24.4049 46.5191 24.1622 46.5709 23.9368 46.5709C23.122 46.6054 22.3246 46.5882 21.4751 46.5882Z" fill="white"/>
<path d="M51.0509 67.7908C48.9358 67.7908 47.3062 66.375 46.9942 64.2685C46.7861 62.8182 47.0289 61.4714 48.0517 60.3664C49.1959 59.1405 50.6348 58.8125 52.2124 59.2441C53.7727 59.6758 54.7435 60.729 55.1249 62.2829C55.6103 64.1995 54.8648 66.1678 53.3392 67.1519C52.6805 67.5836 51.935 67.7908 51.0509 67.7908Z" fill="white"/>
<path d="M62.1807 59.2959C63.0475 59.2959 63.8623 59.2614 64.6771 59.3132C65.5959 59.365 66.1333 59.9003 66.2547 60.7636C66.3934 61.6614 65.9773 62.5074 65.1798 62.8009C64.7291 62.9563 64.2437 63.0081 63.7583 63.0427C63.2382 63.0945 62.7181 63.0599 62.1807 63.0599V59.2959Z" fill="white"/>
<path d="M86.5204 82.1387C86.5204 84.2452 84.8388 85.9545 82.7584 85.9545C80.6781 85.9545 78.9618 84.2279 78.9791 82.1214C78.9965 79.9977 80.6954 78.3057 82.7758 78.3057C84.8561 78.3057 86.5204 80.0323 86.5204 82.1387ZM81.7529 82.6222C82.3424 82.4668 82.7238 82.5876 83.0011 83.1229C83.2265 83.5718 83.5386 83.9689 83.8159 84.366C84.1627 84.884 84.232 84.9185 84.8908 84.7631C84.4054 84.0207 83.92 83.2955 83.4345 82.5531C83.5906 82.5013 83.7119 82.484 83.8333 82.4495C84.5267 82.2423 84.8908 81.7243 84.8561 80.9646C84.8214 80.2049 84.4401 79.6351 83.7119 79.5661C82.8104 79.497 81.8743 79.5488 80.9555 79.5488V84.7977H81.7529V82.6222Z" fill="white"/>
<path d="M81.753 82.6223V84.7978H80.9556V79.5489C81.8917 79.5489 82.7932 79.4971 83.712 79.5662C84.4402 79.6353 84.8215 80.1878 84.8562 80.9475C84.8909 81.7072 84.5268 82.2251 83.8334 82.4323C83.712 82.4669 83.5907 82.5014 83.4347 82.5359C83.9374 83.2784 84.4055 84.0035 84.8909 84.746C84.2148 84.9014 84.1454 84.8841 83.816 84.3489C83.5387 83.9345 83.2266 83.5374 83.0012 83.1057C82.7239 82.5877 82.3251 82.4841 81.753 82.6223ZM81.7704 81.8798C82.3425 81.8453 82.8972 81.828 83.4347 81.759C83.8334 81.7072 84.0067 81.4136 84.0241 81.0165C84.0241 80.6367 83.816 80.3432 83.4173 80.2914C82.8799 80.2223 82.3425 80.2223 81.7704 80.1878V81.8798Z" fill="#4D4D4D"/>
<path d="M81.7705 81.8798V80.1877C82.3426 80.2223 82.88 80.2223 83.4175 80.2913C83.8162 80.3431 84.0242 80.6367 84.0242 81.0165C84.0242 81.3964 83.8335 81.7072 83.4348 81.7589C82.8974 81.828 82.3599 81.8453 81.7705 81.8798Z" fill="white"/>
</g>
<defs>
<clipPath id="clip0_58_145">
<rect width="88.2484" height="86.3506" fill="white" transform="translate(0.213867 0.467285)"/>
</clipPath>
</defs>
</svg>
