<svg width="138" height="37" viewBox="0 0 138 37" fill="none" xmlns="http://www.w3.org/2000/svg">
<g clip-path="url(#clip0_58_171)">
<path d="M29.736 1.33186V0.981201H23.1924V1.33186H26.1963L18.5566 26.3175L9.50819 1.33186H12.487V0.981201H0.360352V1.33186H3.55114L16.0767 35.8694L26.8441 1.33186H29.736Z" fill="#4D4D4D"/>
<path d="M40.9517 0.239502C36.6141 0.239502 32.7136 2.6653 30.1212 6.05841C27.4919 9.51456 26.2207 13.8762 26.2207 18.212C26.2207 22.5478 27.605 27.2871 30.4457 30.8171C32.9387 33.9232 36.7898 36.1971 40.8153 36.1971C45.1148 36.1971 48.9909 33.7323 51.5577 30.3656C54.1751 26.9094 55.4594 22.5478 55.4594 18.2252C55.4594 13.9026 54.0513 9.13749 51.2219 5.60567C48.7658 2.5404 44.9403 0.239502 40.9517 0.239502ZM40.8397 35.6819C34.1349 35.6819 32.3772 23.2137 32.3772 18.212C32.3772 13.2103 34.123 0.754083 40.8403 0.754083C47.5577 0.754083 49.3023 13.2223 49.3023 18.212C49.3023 23.2017 47.5327 35.6807 40.8403 35.6819H40.8397Z" fill="#4D4D4D"/>
<path d="M75.4878 21.3031H78.6029V30.58C78.6029 31.1954 78.5779 31.7977 78.2534 32.3387C76.9953 34.4132 74.4768 35.6195 72.1094 35.6195C69.13 35.6195 67.5224 34.2001 66.4137 31.3089C64.8312 27.1869 64.4822 22.6499 64.4822 18.2505C64.4822 13.3364 65.1301 0.453905 72.2589 0.453905C75.3621 0.453905 77.7432 3.19313 79.2382 5.63154C80.4963 7.71808 81.2198 10.0178 81.7306 12.3805H82.0051V0.377649H81.733C80.8982 1.00571 79.9259 1.72204 78.8411 1.72204C77.9694 1.72204 77.0846 1.43383 76.2743 1.13181L75.5634 0.855002C74.5911 0.464713 73.5569 0.138672 72.5101 0.138672C69.8308 0.138672 67.3134 1.33175 65.2325 2.95415C60.596 6.56102 58.415 12.7324 58.415 18.5015C58.415 26.3937 63.1265 35.9071 71.9743 35.9071C73.9058 35.9071 75.5765 35.3427 77.3216 34.5633L78.0945 34.1364C78.9524 33.6591 79.9122 33.3066 80.8976 33.3066C82.2552 33.3066 83.315 34.0482 83.9884 35.1794H84.2236V21.3037H86.891V20.9405H75.4872V21.3037L75.4878 21.3031Z" fill="#4D4D4D"/>
<path d="M137.678 22.1707C137.616 23.4281 137.515 24.6968 137.304 25.9415C136.918 28.1668 135.807 30.2275 134.213 31.8109C132.343 33.6704 129.715 34.8263 127.072 34.8263H121.975V17.8343C122.585 17.7839 123.183 17.7461 123.794 17.7461C127.671 17.7461 129.128 21.3157 129.664 24.6458H129.976V10.7083H129.664C129.477 14.3788 128.368 17.3444 124.094 17.3444C123.383 17.3444 122.671 17.2939 121.975 17.2189V1.33173H125.376C128.529 1.33173 131.596 1.58331 133.851 4.15982C136.081 6.71111 136.705 10.067 137.067 13.3346H137.304V0.980469H105.91V1.33173H109.722V27.7267C109.722 31.8619 106.345 34.6768 102.332 34.6768C98.6063 34.6768 94.3444 32.1375 94.3444 27.9656V1.33293H97.5721V0.98167H85.4097V1.33233H88.7362V26.7449C88.7362 33.055 94.7695 35.7318 100.241 35.7318C105.075 35.7318 110.235 33.306 110.235 27.8269V1.33173H116.268V34.8269H113.413V35.1794H137.953V22.1713H137.678L137.678 22.1707Z" fill="#4D4D4D"/>
</g>
<defs>
<clipPath id="clip0_58_171">
<rect width="137.592" height="36.0585" fill="white" transform="translate(0.360352 0.138672)"/>
</clipPath>
</defs>
</svg>
