<svg width="124" height="60" viewBox="0 0 124 60" fill="none" xmlns="http://www.w3.org/2000/svg">
<g clip-path="url(#clip0_58_178)">
<path fill-rule="evenodd" clip-rule="evenodd" d="M118.111 1.20527L114.507 5.28211C114.131 5.65971 114.019 5.5463 114.169 4.94187L114.958 2.56371L109.551 4.03624C109.551 4.03624 107.299 10.3787 106.398 12.4176C104.821 15.7019 101.826 19.2752 99.7545 20.2321C97.6701 21.195 96.9391 19.5526 96.9391 18.1931C104.596 14.9088 104.709 9.58561 104.483 8.5664C104.258 7.09438 102.869 5.75166 98.7405 7.88693C94.7986 9.92586 92.0391 15.5883 91.7581 18.5329C90.8571 21.0246 88.6047 23.5163 88.0417 23.5163C87.4787 23.5163 86.9157 23.7425 87.5907 21.4774L95.0236 0.751953L89.5051 2.56422C89.5051 2.56422 83.4247 18.5334 82.0732 21.9307C80.7228 25.3281 78.8083 26.9705 77.7948 27.1409C77.0921 27.2585 77.0063 27.0278 77.5683 25.215L85.3392 3.92317L79.5953 5.84902C79.5953 5.84902 73.0643 22.0443 71.7129 25.895C70.3609 29.7457 68.5594 29.9718 67.9964 30.0849C67.4329 30.1985 66.8689 29.8588 67.5454 27.8209L71.3744 17.5147L65.8559 19.2133C65.8559 19.2133 63.2654 25.896 61.8025 29.1803C60.338 32.4646 58.1985 34.4467 56.453 34.4467C55.4395 34.4467 55.6645 33.3144 56.228 31.2755L63.0975 14.1736C65.1259 8.85036 61.634 4.09354 60.2825 2.96126L50.4846 10.832C50.3721 8.45383 48.4576 5.67864 47.5566 4.77302L36.0698 14.06C35.2813 11.5683 33.8178 9.30318 31.7898 7.26425C26.0464 2.84767 18.4788 2.57588 9.60456 7.0381C0.146688 11.7939 0.259185 20.6286 1.16018 22.4403C4.42664 31.8404 14.449 29.2361 16.8135 28.2164C24.2464 25.1587 24.2464 17.6835 23.7954 15.3054L14.448 20.2888C15.574 23.0067 13.4345 25.3859 11.745 26.0649C10.0556 26.7438 5.10062 26.8579 3.63664 21.7614C2.17316 16.6653 5.77611 11.7954 12.083 8.96395C18.39 6.13247 24.3584 7.49142 27.6239 11.116C30.8893 14.7405 29.8758 20.516 26.9479 27.0851C24.0199 33.6542 13.096 51.7748 12.1955 53.2474L22.4439 49.85C24.5834 46.3385 33.1423 29.804 34.8318 25.1603C35.8372 22.3947 36.2953 19.044 36.1828 16.5528L41.1942 12.4754C42.6577 14.061 42.1512 17.3453 41.5887 18.9309C40.0117 26.7454 31.7908 44.5268 30.3268 47.018L39.4482 43.8473C40.6872 42.714 47.4441 25.6126 48.4576 21.8755C49.3011 18.7656 50.2596 16.2125 50.2596 13.6072L55.0455 9.70021C56.847 10.7194 55.665 15.5325 54.989 17.1181C54.989 17.1181 50.7091 27.5379 49.1331 31.6148C47.5561 35.6921 48.3446 39.6564 51.6111 39.882C56.566 39.6559 60.226 34.5025 61.2395 33.3707C61.6895 34.3899 62.9103 36.0329 64.6184 35.5217C66.7019 34.899 69.2359 32.5767 70.6999 31.2182C71.3744 31.8977 72.0503 33.1441 73.8523 32.5772C76.5553 31.8977 79.7088 28.5003 80.7223 27.4811C81.5107 28.8401 81.8482 29.52 84.7757 28.5003C87.7032 27.4806 90.6886 23.6304 91.9271 22.0448C91.9271 23.064 94.4571 25.2034 96.9391 24.4235C99.642 23.5736 103.302 19.5536 104.427 18.1941L103.639 21.1392L108.651 19.6667C108.651 19.6667 111.24 12.6448 112.929 9.47355C114.476 6.57108 115.295 8.00102 115.745 8.56742C116.196 9.13382 116.646 9.58663 117.997 9.47355C120.813 9.2474 122.39 6.30234 123.178 4.82981C118.899 4.8293 118.786 2.79037 118.11 1.20477L118.111 1.20527ZM100.552 10.0815C101.793 9.28695 101.931 9.99228 101.681 10.7062C101.342 11.6712 100.383 13.8856 98.2941 15.1345C97.7306 15.3611 97.7306 15.0214 97.7306 14.7374C98.1251 13.3182 99.3096 10.8771 100.552 10.082V10.0815ZM119.763 20.1702L119.756 20.1717L9.97081 59.2242L9.95971 59.248L10.1918 59.5842L10.2513 59.5639C33.2432 50.9169 62.8674 44.5313 78.72 48.5428C86.2533 38.7097 108.176 25.3149 119.869 20.6245H119.87L119.762 20.1702H119.763ZM118.959 15.4798C119.228 15.4661 119.437 15.3272 119.437 14.955C119.437 14.4758 119.124 14.3546 118.604 14.3546H117.855V16.3454H118.354V15.4975H118.439L118.893 16.3454H119.468L118.959 15.4798ZM118.638 15.1583H118.354V14.6994H118.593C118.74 14.6994 118.908 14.7172 118.908 14.9093C118.908 15.1137 118.812 15.1588 118.637 15.1588L118.638 15.1583Z" fill="#4D4D4D"/>
</g>
<defs>
<clipPath id="clip0_58_178">
<rect width="122.409" height="58.8323" fill="white" transform="translate(0.769531 0.751953)"/>
</clipPath>
</defs>
</svg>
