<svg width="152" height="33" viewBox="0 0 152 33" fill="none" xmlns="http://www.w3.org/2000/svg">
<g clip-path="url(#clip0_58_176)">
<path fill-rule="evenodd" clip-rule="evenodd" d="M22.1583 1.22486C26.0935 2.87229 29.2214 6.01848 30.8586 9.97566C31.6625 11.9278 32.0762 14.0192 32.0768 16.1321C32.0768 18.2369 31.6632 20.3404 30.8586 22.2892C30.054 24.238 28.8597 26.0334 27.3703 27.5308C25.8803 29.0289 24.0959 30.2297 22.1583 31.0387C18.2397 32.6707 13.837 32.6707 9.91842 31.0387C5.98323 29.3906 2.85599 26.245 1.21744 22.2885C-0.406463 18.3461 -0.406463 13.9168 1.21744 9.97499C2.85599 6.01915 5.98322 2.87363 9.91775 1.22553C11.8587 0.418554 13.9375 0.00267875 16.0377 0C18.1285 0.00267875 20.2206 0.417215 22.1583 1.22486ZM28.5939 20.2158C28.5353 20.0103 28.464 19.808 28.3814 19.6105L21.0452 7.04109L20.8561 21.6376C20.9114 22.1586 21.0666 22.6703 21.313 23.129C21.5595 23.5884 21.8945 23.9956 22.2941 24.3217C22.6945 24.6492 23.1574 24.895 23.6516 25.0443C24.1452 25.1916 24.6694 25.2412 25.1843 25.1883C26.226 25.0784 27.1825 24.5601 27.8459 23.7444C28.5047 22.9301 28.8144 21.8867 28.7078 20.8427C28.6832 20.6311 28.6452 20.4221 28.5939 20.2158ZM13.2748 3.39665C13.1269 3.55135 12.9884 3.71409 12.8591 3.88486L5.70014 16.5567L18.3676 9.42384C19.6645 8.48427 20.2706 6.85157 19.9036 5.28718C19.6598 4.26189 19.0224 3.37589 18.1298 2.82273C17.2406 2.27292 16.1709 2.09947 15.1545 2.33989C14.6509 2.46177 14.176 2.68076 13.7557 2.98413C13.5898 3.11605 13.4233 3.24664 13.2748 3.39665ZM5.52496 24.7115C5.84734 24.8842 6.05116 24.9445 6.25832 24.9947C6.46547 25.045 6.67528 25.0858 6.88709 25.1139L21.3823 25.0108L8.90398 17.5478C8.42707 17.3362 7.90886 17.215 7.39065 17.2002C6.87244 17.1855 6.35423 17.2732 5.87266 17.4581C4.38197 18.0307 3.38152 19.4504 3.33889 21.0536C3.32424 21.5746 3.4135 22.095 3.59533 22.5805C3.77651 23.066 4.0516 23.5167 4.40795 23.8851C4.7643 24.2534 5.20258 24.538 5.5243 24.7108L5.52496 24.7115ZM29.7882 28.976V27.2409H29.1741V26.8879H30.8226V27.2409H30.2092V28.976H29.7882ZM31.0184 28.976V26.8879H31.6446L32.0209 28.3117L32.3892 26.8879H33.018V28.976H32.6317L32.629 27.3319L32.2214 28.976H31.8171L31.4074 27.3319L31.4041 28.976H31.0178H31.0184ZM149.647 27.4813V26.9187H150.136C150.293 26.9187 150.419 27.0473 150.416 27.2074C150.4 27.3942 150.223 27.4994 150.047 27.482H149.646L149.647 27.4813ZM149.647 27.7786V28.5622H149.242V26.606H150.242C150.543 26.596 150.796 26.833 150.807 27.1364C150.807 27.1531 150.807 27.1699 150.807 27.186C150.783 27.3929 150.642 27.5677 150.446 27.634C150.591 27.6742 150.701 27.7947 150.727 27.944L150.77 28.4336C150.782 28.4724 150.795 28.5206 150.817 28.5602H150.424C150.39 28.4697 150.384 28.3787 150.373 28.2842C150.37 28.2079 150.366 28.1282 150.352 28.0565C150.328 27.8958 150.191 27.7766 150.029 27.7766H149.648L149.647 27.7786ZM150.029 26.1794C149.257 26.1794 148.627 26.8136 148.627 27.5837C148.627 28.3539 149.257 28.9934 150.029 28.9934C150.8 28.9934 151.425 28.3592 151.425 27.5837C151.425 26.8083 150.795 26.1794 150.029 26.1794ZM150.029 25.7776C149.036 25.7803 148.232 26.5866 148.227 27.5844C148.227 28.5796 149.038 29.3959 150.029 29.3959C151.019 29.3959 151.826 28.5802 151.826 27.5844C151.821 26.5886 151.019 25.7823 150.029 25.7776ZM81.3706 14.0969V17.1601H71.6279V26.0649H81.9901V29.1294H68.1436V2.98346H81.9901V6.04661H71.6279V14.0962H81.3706V14.0969ZM103.991 26.0649V29.1294H90.8716V2.98346H94.3565V26.0649H103.991ZM115.202 6.04728H123.297V2.98346H103.714V6.04661H111.718V29.1294H115.202V6.04728ZM128.965 23.1404L126.874 29.1294H123.328L133.161 2.98346H136.776L147.211 29.1294H143.359L141.142 23.1404H128.966H128.965ZM134.887 7.55407L130.632 20.1984H139.375L134.887 7.55407ZM39.5256 29.1294V2.98346H48.5809C50.1216 2.98346 51.6722 3.04775 52.8858 3.27946C54.0987 3.5105 54.9739 3.85673 55.7739 4.31747C56.5832 4.78358 57.3179 5.37022 57.9533 6.05665C58.6074 6.76049 59.1896 7.59024 59.6811 8.56396C60.208 9.61805 60.5963 10.7364 60.8361 11.8916C61.0985 13.1292 61.2211 14.4907 61.2151 15.9017C61.2091 17.3114 61.0726 18.774 60.8041 20.0578C60.5357 21.3416 60.1327 22.4479 59.6471 23.4216C59.1622 24.3974 58.5947 25.2405 57.9426 25.9423C57.2952 26.6368 56.5432 27.2241 55.714 27.6829C54.8734 28.1577 53.9289 28.5448 52.7905 28.7972C51.6522 29.0497 50.3201 29.128 48.9946 29.128H39.5256V29.1294ZM43.0098 26.0662H48.5929C49.6953 26.0662 50.803 25.9952 51.6962 25.8238C52.5894 25.6524 53.2681 25.4019 53.8436 25.0892C54.4011 24.7912 54.9013 24.3954 55.3203 23.9199C55.7499 23.4377 56.1349 22.8484 56.4753 22.101C56.8156 21.353 57.1101 20.4509 57.3159 19.4169C57.5217 18.3849 57.6369 17.2257 57.6442 16.039C57.6522 14.8985 57.5597 13.7601 57.3678 12.6357C57.1873 11.6291 56.9282 10.8248 56.5998 10.123C56.2954 9.46 55.8918 8.84791 55.4042 8.3068C54.9333 7.7898 54.3898 7.35651 53.8336 7.01497C53.2774 6.67343 52.7079 6.4223 51.8167 6.25488C50.9255 6.08746 49.7106 6.04527 48.5063 6.04527H43.0105V26.0649L43.0098 26.0662Z" fill="#4D4D4D"/>
</g>
<defs>
<clipPath id="clip0_58_176">
<rect width="151.825" height="32.2629" fill="white"/>
</clipPath>
</defs>
</svg>
