<svg width="152" height="30" viewBox="0 0 152 30" fill="none" xmlns="http://www.w3.org/2000/svg">
<g clip-path="url(#clip0_58_121)">
<path d="M71.661 17.0545L71.3787 17.512C70.4964 18.9194 69.2611 19.6232 67.7435 19.6232C65.1319 19.6232 63.1908 17.6527 63.1908 15.0841C63.1908 12.5154 65.1672 10.545 67.7435 10.545C69.2964 10.545 70.4258 11.2135 71.3787 12.6562L71.661 13.1136L75.6138 10.7913L75.2609 10.2987C73.3551 7.55411 70.9199 6.2522 67.7082 6.2522C61.6732 6.2522 58.4263 10.8265 58.4263 15.1193C58.4263 19.412 61.6732 23.9863 67.7082 23.9863C70.7787 23.9863 73.6727 22.4381 75.2609 19.9047L75.6138 19.3769L71.661 17.0545Z" fill="#4D4D4D"/>
<path d="M83.0957 0.446533L84.4015 3.57815L75.4019 23.9161H80.8369L82.4604 19.9048H90.613L92.2365 23.9161H97.7068L87.9661 0.446533H83.0957ZM84.3309 15.225L86.5896 9.70065L88.7778 15.225H84.3309Z" fill="#4D4D4D"/>
<path d="M106.46 5.02078C107.06 5.02078 107.448 5.12634 107.801 5.26709L108.33 5.47821L110.306 1.15024L109.777 0.974304C108.895 0.622436 107.66 0.481689 106.777 0.481689C104.624 0.481689 102.824 1.18542 101.624 2.52252C100.566 3.68368 99.9657 5.30227 99.9657 7.0968V8.99688H97.8481V13.4304H99.9657V23.9513H104.73V13.3952H107.836V8.9617H104.73V6.88568C104.73 5.97082 105.33 5.02078 106.46 5.02078Z" fill="#4D4D4D"/>
<path d="M35.9448 0.305664V23.8808L41.1329 23.916V10.4043L46.1797 14.1341L51.1913 10.4043V23.916H56.3793V0.305664L46.1797 7.97638L35.9448 0.305664Z" fill="#4D4D4D"/>
<path d="M118.6 6.2522C112.6 6.2522 109.354 10.7913 109.354 15.0841C109.354 19.3769 112.6 23.9159 118.6 23.9159C121.353 23.8808 123.929 22.6492 125.941 20.3621L122.059 18.2509C121.071 19.2713 119.835 19.7991 118.494 19.7991C116.518 19.7991 114.789 18.4972 114.33 16.773H127.317V15.6119C127.353 9.1727 122.235 6.28738 118.6 6.2522ZM114.436 12.9377C115.071 11.3191 116.412 10.4042 118.141 10.4042C119.871 10.4042 121.282 11.3191 121.988 12.9729L114.436 12.9377Z" fill="#4D4D4D"/>
<path d="M138.117 6.28735C132.117 6.28735 128.87 10.8264 128.87 15.1192C128.87 19.412 132.117 23.9511 138.117 23.9511C140.87 23.9159 143.446 22.6844 145.458 20.3972L141.575 18.286C140.587 19.3065 139.352 19.8343 138.011 19.8343C136.035 19.8343 134.305 18.5323 133.846 16.8082H146.834V15.647C146.869 9.20785 141.752 6.28735 138.117 6.28735ZM133.952 12.9377C134.588 11.3191 135.929 10.369 137.658 10.4042C139.423 10.4042 140.799 11.3191 141.505 12.9728L133.952 12.9377Z" fill="#4D4D4D"/>
<path d="M146.234 5.86508H147.011V7.97629H147.434V5.86508H148.246V5.47803H146.234V5.86508Z" fill="#4D4D4D"/>
<path d="M150.54 5.47803L149.869 7.4133L149.164 5.47803H148.564H148.528V7.97629H148.952V6.04102L149.658 7.97629H150.011L150.716 6.04102V7.97629H151.14V5.47803H150.54Z" fill="#4D4D4D"/>
<path d="M0.263672 0.270508V23.7753L13.0749 29.6866L25.9215 23.7753V0.270508L13.0749 6.18188L0.263672 0.270508ZM20.6628 8.46902V20.4325L13.0749 23.916L5.52228 20.4325V8.46902L13.0749 11.9525L20.6628 8.46902Z" fill="#4D4D4D"/>
</g>
<defs>
<clipPath id="clip0_58_121">
<rect width="150.876" height="29.4161" fill="white" transform="translate(0.263672 0.270508)"/>
</clipPath>
</defs>
</svg>
