<svg width="137" height="42" viewBox="0 0 137 42" fill="none" xmlns="http://www.w3.org/2000/svg">
<g clip-path="url(#clip0_58_132)">
<path d="M0.672852 0.577148V41.1988H28.4978V0.577148H0.672852ZM24.471 37.1084H4.686V4.66755H24.4778V37.1084H24.471Z" fill="#4D4D4D"/>
<path d="M45.0776 14.7421H45.0365C42.8176 11.1062 40.5782 7.89721 38.3182 4.66069H36.5924V18.8049H38.4963V8.66158H38.5168C40.7562 12.3181 42.9956 15.5478 45.2556 18.8049H46.9814V4.66069H45.0776V14.7421ZM58.8154 18.8049L54.3913 4.66758H52.4122L47.6115 18.8049H49.6728L50.885 14.9487H55.0693L56.1582 18.8049H58.8154ZM51.5013 13.2065C52.0561 11.3472 52.6108 9.63253 53.1107 7.44961H53.1518C53.7065 9.63253 54.1996 11.3472 54.7201 13.2065H51.5082H51.5013ZM61.0548 18.8049H63.4312V6.56129H67.0814V4.66069H57.4046V6.56129H61.0548V18.8049ZM70.2111 4.66758H67.8553V18.8049H70.2111V4.66069V4.66758ZM77.5457 19.046C81.1754 19.046 83.4353 15.7544 83.4353 11.5331C83.4353 7.57356 80.9357 4.41968 77.5457 4.41968C74.1558 4.41968 71.6561 7.57356 71.6561 11.5331C71.6561 15.7544 73.9161 19.046 77.5457 19.046ZM77.5457 6.44422C79.9016 6.44422 80.8946 8.93014 80.8946 11.5331C80.8946 14.1361 80.0248 17.0283 77.5457 17.0283C75.0666 17.0283 74.1969 14.2394 74.1969 11.5331C74.1969 8.82685 75.1899 6.44422 77.5457 6.44422ZM86.7842 8.66846H86.8047C89.0441 12.325 91.2836 15.5547 93.5435 18.8118H95.2693V4.66069H93.3655V14.7421H93.3244C91.1055 11.1062 88.8661 7.89721 86.6061 4.66069H84.8803V18.8049H86.7842V8.66158V8.66846ZM99.1729 14.9487H103.357L104.446 18.8049H107.103L102.686 4.66758H100.7L95.8994 18.8049H97.9607L99.166 14.9487H99.1729ZM101.399 7.45649H101.44C101.994 9.63942 102.487 11.3541 103.008 13.2134H99.7961C100.351 11.3541 100.906 9.63942 101.405 7.45649H101.399ZM114.856 16.9112H110.158V4.66069H107.795V18.8049H114.856V16.9044V16.9112ZM43.1395 34.9737C42.6464 35.2354 42.1054 35.3181 41.4753 35.3181C39.4345 35.3181 37.4485 33.3348 37.4485 29.9881C37.4485 26.6414 39.1743 24.734 41.7082 24.734C42.619 24.734 43.612 25.0783 44.2421 25.4777L45.0159 23.8043C44.2215 23.1983 42.934 22.7163 41.6465 22.7163C37.4827 22.7163 34.9077 26.0905 34.9077 29.9468C34.9077 34.1061 37.4827 37.3426 41.5643 37.3426C42.9135 37.3426 44.2421 36.9776 45.509 36.4749V30.6354H43.1326V34.9806L43.1395 34.9737ZM50.0563 30.6286H53.9462V28.728H50.0563V24.851H54.0215V22.9504H47.6799V37.0878H54.7406V35.1872H50.0632V30.6217L50.0563 30.6286ZM61.3561 22.7094C57.9662 22.7094 55.4665 25.8633 55.4665 29.8229C55.4665 34.0441 57.7265 37.3357 61.3561 37.3357C64.9858 37.3357 67.2458 34.0441 67.2458 29.8229C67.2458 25.8633 64.7461 22.7094 61.3561 22.7094ZM61.3561 35.3112C58.877 35.3112 58.0073 32.5223 58.0073 29.816C58.0073 27.1097 59.0003 24.7271 61.3561 24.7271C63.712 24.7271 64.705 27.213 64.705 29.816C64.705 32.419 63.8353 35.3112 61.3561 35.3112ZM76.2856 34.9669C75.7925 35.2285 75.2515 35.3112 74.6215 35.3112C72.5806 35.3112 70.5946 33.3279 70.5946 29.9813C70.5946 26.6346 72.3204 24.7271 74.8611 24.7271C75.772 24.7271 76.765 25.0714 77.395 25.4708L78.1689 23.7974C77.3745 23.1915 76.087 22.7094 74.7995 22.7094C70.6357 22.7094 68.0607 26.0837 68.0607 29.9399C68.0607 34.0992 70.6357 37.3357 74.7242 37.3357C76.0733 37.3357 77.395 36.9707 78.6688 36.4681V30.6286H76.2925V34.9737L76.2856 34.9669ZM88.8524 27.0271C88.8524 24.2795 87.2088 22.9436 84.5516 22.9436H80.8466V37.0809H83.223V31.751H84.2914L86.5308 37.0809H89.2427L86.4486 31.2208C87.9758 30.3944 88.8455 28.7142 88.8455 27.0202L88.8524 27.0271ZM84.216 29.9331C83.9763 29.9537 83.4216 29.9744 83.223 29.995V24.8441H84.2777C85.6816 24.8441 86.476 25.6705 86.476 27.1235C86.476 29.0241 85.346 29.8711 84.216 29.9331ZM94.0914 22.9436L89.2907 37.0809H91.352L92.5642 33.2247H96.7486L97.8443 37.0809H100.501L96.0774 22.9436H94.0982H94.0914ZM93.1806 31.4893C93.7353 29.6301 94.29 27.9154 94.7831 25.7325H94.8242C95.3789 27.9154 95.872 29.6301 96.3924 31.4893H93.1806ZM117.903 28.3768H112.966V22.9436H110.603V37.0809H112.966V30.2705H117.903V37.0809H120.28V22.978H117.903V28.3699V28.3768ZM122.56 37.0809H124.916V22.9436H122.56V37.0809ZM133.244 35.3043C130.943 35.3043 128.998 33.3211 128.998 29.9744C128.998 26.6277 130.764 24.7202 133.182 24.7202C134.093 24.7202 135.045 25.1471 135.62 25.5052L136.373 23.7906C135.558 23.2259 134.415 22.7025 133.182 22.7025C129.039 22.7025 126.477 26.0768 126.477 29.9331C126.477 34.0923 129.052 37.3288 133.141 37.3288C134.291 37.3288 135.558 36.8675 136.271 36.3579L135.62 34.6019C135.004 35.0082 134.154 35.3112 133.237 35.3112L133.244 35.3043ZM104.953 22.9436H101.248V37.0809H103.624V31.751H104.693C107.528 31.751 109.254 29.4097 109.254 27.0271C109.254 24.2795 107.61 22.9436 104.953 22.9436ZM104.617 29.9331C104.378 29.9537 103.809 29.9744 103.624 29.9881V24.8441H104.693C106.083 24.8441 106.877 25.6705 106.877 27.1235C106.877 29.0241 105.747 29.8711 104.617 29.9331Z" fill="#4D4D4D"/>
</g>
<defs>
<clipPath id="clip0_58_132">
<rect width="135.694" height="40.6217" fill="white" transform="translate(0.672852 0.577148)"/>
</clipPath>
</defs>
</svg>
