<svg width="536" height="400" viewBox="0 0 536 400" fill="none" xmlns="http://www.w3.org/2000/svg">
<mask id="path-1-inside-1_19_519" fill="white">
<path d="M209.214 183.64C203.151 183.64 197.088 183.64 191.026 183.64C188.41 183.64 185.914 183.283 183.536 185.185C182.347 186.136 180.921 185.185 179.851 184.115C178.781 183.045 178.543 181.738 179.256 180.43C179.97 179.003 181.396 177.933 182.823 178.528C189.956 181.381 197.326 179.241 204.578 179.835C207.312 180.073 210.165 179.954 213.018 179.835C214.92 179.835 216.347 180.43 217.655 181.856C222.172 186.493 226.927 191.01 231.445 195.646C232.515 196.716 233.466 197.192 235.011 197.073C240.242 197.073 245.354 197.073 250.584 197.073C251.298 197.073 252.368 197.43 252.843 196.716C253.437 195.765 252.249 195.171 251.654 194.577C241.787 184.591 231.801 174.605 221.815 164.738C216.466 159.507 211.116 154.276 205.886 149.046C205.053 148.213 204.221 147.976 203.151 147.976C193.641 147.976 184.131 147.976 174.62 147.976C173.788 147.976 172.956 147.976 172.124 148.57C170.34 149.759 167.25 149.046 165.823 147.381C164.159 145.36 164.278 143.22 166.061 141.2C167.606 139.535 169.508 138.465 172.124 140.248C173.431 141.2 174.858 141.318 176.403 141.318C185.676 141.318 194.949 141.318 204.221 141.318C206.361 141.318 208.025 142.032 209.452 143.458C219.794 153.801 230.018 164.143 240.361 174.486C255.696 189.821 271.032 205.038 286.367 220.373C287.437 221.443 288.507 222.038 290.052 221.919C292.192 221.919 294.332 221.919 296.472 221.919C298.255 221.919 298.968 221.562 298.968 219.541C299.087 216.688 298.255 214.548 296.115 212.646C291.717 208.485 287.437 204.206 283.157 199.926C282.444 199.213 281.731 198.856 280.78 198.737C279.353 198.5 277.808 198.143 277.689 196.122C277.57 194.22 277.451 192.437 279.829 191.723C281.85 191.129 283.395 191.961 283.871 193.626C284.703 196.36 286.843 197.905 288.626 199.807C292.549 203.849 296.472 207.772 300.633 211.576C302.654 213.478 302.773 215.618 302.654 217.996C302.654 221.919 302.654 221.919 306.577 221.919C312.283 221.919 317.989 221.919 323.577 221.919C325.36 221.919 325.835 221.324 325.835 219.66C325.835 215.38 325.835 211.22 325.835 206.94C325.835 205.276 325.36 204.562 323.577 204.562C317.87 204.562 312.045 204.562 306.339 204.562C304.794 204.562 303.724 204.087 302.654 203.017C294.451 194.814 286.129 186.612 277.927 178.29C276.857 177.22 275.787 176.745 274.241 176.745C269.011 176.745 263.899 176.745 258.668 176.745C257.123 176.745 256.053 176.269 254.983 175.199C247.375 167.472 239.766 159.864 232.039 152.255C231.326 151.542 230.85 150.948 229.78 150.71C227.284 150.115 226.571 148.927 226.808 146.43C227.046 144.409 228.354 143.815 230.137 143.815C232.515 143.815 233.703 145.004 233.585 147.262C233.585 148.332 234.298 148.927 234.773 149.402C242.144 156.892 249.633 164.262 257.004 171.633C257.836 172.465 258.668 172.703 259.738 172.703C264.374 172.703 269.011 172.703 273.647 172.703C275.192 172.703 275.906 172.227 275.668 170.563C275.668 170.444 275.668 170.206 275.668 170.087C276.381 165.332 274.598 162.003 271.151 158.675C260.332 148.332 249.871 137.514 239.291 126.815C238.221 125.745 237.151 125.507 235.724 125.507C220.983 125.507 206.123 125.507 191.382 125.507C189.718 125.507 188.529 125.151 187.34 123.843C184.963 121.228 182.347 118.731 179.732 116.235C178.9 115.403 178.068 114.214 176.641 114.214C174.501 114.095 173.312 112.549 173.431 110.885C173.431 109.34 174.501 107.557 176.641 107.438C178.9 107.2 180.207 108.626 180.564 110.41C180.921 111.836 181.515 112.787 182.585 113.619C182.823 113.857 183.061 114.095 183.179 114.333C185.676 116.829 187.816 120.277 190.907 121.584C193.998 122.892 198.039 121.941 201.606 121.941C205.41 121.941 209.095 121.941 212.899 121.941C213.375 121.941 214.088 122.179 214.326 121.584C214.564 120.99 213.969 120.752 213.613 120.514C208.739 115.521 203.746 110.529 198.753 105.654C198.039 104.941 197.207 104.822 196.137 104.822C191.858 104.822 187.697 104.822 183.417 104.822C181.991 104.822 181.04 105.536 179.97 106.13C178.305 107.2 177.117 106.605 175.928 105.536C174.62 104.466 174.501 102.801 175.215 101.375C175.809 100.067 177.473 99.1161 178.662 99.5916C184.844 102.207 191.144 100.424 197.445 100.899C198.99 100.899 200.06 101.375 201.13 102.445C207.074 108.508 213.137 114.452 219.081 120.514C220.151 121.584 221.221 122.179 222.766 122.06C227.522 122.06 232.396 122.06 237.151 122.06C238.696 122.06 239.885 122.535 240.955 123.605C243.927 126.696 246.899 129.668 249.99 132.64C250.347 132.997 250.703 134.067 251.654 133.472C252.368 133.116 252.368 132.402 252.368 131.808C252.368 127.172 252.368 122.535 252.368 117.899C252.368 116.71 251.773 115.878 250.941 115.046C245.829 110.053 240.836 104.941 235.724 99.8293C235.011 99.116 234.298 99.116 233.466 98.8783C232.039 98.4028 230.613 97.8084 230.375 96.0252C230.137 94.3609 230.375 92.9343 232.158 91.9832C234.179 90.9133 236.794 91.9833 237.151 94.3608C237.27 95.5496 237.864 96.3818 238.696 97.0951C243.927 102.326 249.158 107.438 254.388 112.668C255.696 113.976 256.291 115.403 256.291 117.305C256.291 123.724 256.291 130.263 256.291 136.682C256.291 138.228 256.766 139.297 257.836 140.367C264.493 147.025 271.032 153.682 277.808 160.339C279.115 161.528 279.591 162.836 279.472 164.5C279.472 166.878 279.472 169.255 279.472 171.752C279.353 173.773 279.948 175.08 281.374 176.507C289.101 184.115 296.71 191.723 304.318 199.451C305.388 200.521 306.339 200.996 307.766 200.996C312.996 200.996 318.108 200.996 323.339 200.996C325.003 200.996 325.716 200.639 325.716 198.737C325.716 193.269 325.716 193.031 320.367 193.388C316.444 193.626 313.591 192.556 311.094 189.465C308.835 186.612 306.101 184.353 303.486 181.738C302.535 180.786 301.584 180.073 300.276 179.954C298.255 179.717 297.78 178.29 297.78 176.626C297.78 174.605 299.206 173.654 300.752 173.297C302.416 172.822 304.199 174.01 304.318 175.318C304.675 178.884 307.884 180.192 309.668 182.57C310.381 183.521 311.57 183.996 312.164 184.947C314.898 188.751 318.465 190.297 323.101 189.465C323.933 189.346 325.241 190.059 325.597 188.751C325.835 187.682 326.073 186.374 324.884 185.304C320.605 181.262 316.563 177.101 312.521 173.059C296.829 157.367 281.255 141.794 265.563 126.102C264.493 125.032 264.137 123.843 264.137 122.298C264.137 110.647 264.137 98.9972 264.137 87.2281C264.137 85.2071 263.661 84.6127 261.64 84.6127C257.004 84.7316 252.368 84.6127 247.731 84.6127C246.186 84.6127 245.116 84.1372 243.927 83.0673C240.836 79.9764 237.626 77.0044 234.654 73.7946C233.585 72.6058 232.515 72.2492 230.969 72.2492C222.885 72.2492 214.801 72.2492 206.718 72.2492C205.172 72.2492 203.746 72.3681 202.557 73.438C200.893 74.8646 199.347 74.0324 198.158 72.8436C196.732 71.417 196.732 69.6339 198.158 68.2073C199.228 67.0185 200.774 66.3052 202.319 67.3751C203.983 68.4451 205.767 68.4451 207.55 68.4451C215.99 68.4451 224.55 68.4451 232.99 68.4451C234.417 68.4451 235.487 68.9206 236.438 69.8716C239.291 72.8436 242.263 75.8156 245.116 78.6687C246.067 79.6198 247.137 80.0953 248.682 80.0953C251.892 80.0953 255.102 80.0953 258.311 80.0953C258.787 80.0953 259.263 80.0953 259.5 79.6197C259.619 79.1442 259.263 79.0254 259.025 78.6687C251.416 71.0604 243.927 63.4521 236.319 55.8438C235.605 55.1305 234.654 54.7739 233.585 54.7739C225.263 54.7739 216.941 54.7739 208.62 54.7739C207.193 54.7739 206.242 55.4872 205.172 56.0816C203.032 57.1515 200.893 56.6759 199.347 54.7739C197.802 52.8718 197.921 50.6131 199.466 48.711C200.774 47.0467 203.865 46.3334 205.41 47.6411C206.955 48.9488 208.62 49.0676 210.522 48.9488C218.962 48.9488 227.284 48.9488 235.724 48.9488C237.389 48.9488 238.696 49.4243 239.885 50.6131C249.514 60.3612 259.263 69.9905 268.892 79.6197C269.962 80.6897 270.199 81.7596 270.199 83.1861C270.199 95.193 270.199 107.2 270.199 119.207C270.199 120.871 270.675 122.06 271.983 123.249C289.22 140.367 306.339 157.486 323.458 174.724C324.052 175.318 324.646 176.388 325.479 175.912C326.192 175.556 325.835 174.486 325.835 173.654C325.835 158.913 325.835 144.171 325.835 129.549C325.835 128.004 325.479 126.934 324.29 125.864C320.723 122.535 316.919 119.326 313.947 115.403C308.598 108.27 301.822 102.326 295.64 95.9063C294.808 95.0741 294.926 94.0042 294.926 93.0532C294.926 88.7735 294.926 84.6127 294.926 80.333C294.926 78.1932 294.213 76.41 292.549 74.9834C288.983 71.6548 285.654 68.0884 282.325 64.6409C281.374 63.6899 280.423 63.3332 279.234 63.4521C275.668 63.4521 271.983 63.4521 268.416 63.4521C267.109 63.4521 266.039 63.0955 265.088 62.0255C257.123 53.9417 249.039 45.9768 241.074 38.0118C240.242 37.1797 239.41 36.4664 237.983 36.5853C236.081 36.5853 235.249 35.0398 234.892 33.6133C234.417 31.9489 235.605 30.6413 236.913 30.0469C238.221 29.4525 240.361 29.3336 240.955 30.879C243.095 36.3475 247.969 39.3195 251.654 43.2425C255.458 47.2844 259.5 51.2075 263.423 55.1305C263.661 55.3683 264.018 55.606 264.255 55.9627C266.752 60.1235 270.675 59.8857 274.717 59.6479C276.262 59.6479 276.025 58.6969 275.311 57.9836C273.171 55.7249 271.032 53.5851 268.773 51.4452C267.822 50.6131 266.395 50.9697 265.207 50.2564C263.661 49.3054 262.948 47.9977 263.304 46.3334C263.661 44.6691 264.969 43.4803 266.633 43.5992C268.06 43.5992 269.605 44.1936 269.962 45.9768C270.318 47.76 271.626 48.8299 272.696 50.0187C278.997 56.4382 285.416 62.7388 291.836 69.1583C292.311 69.6339 292.668 70.7038 293.738 70.3471C294.808 69.9905 294.57 68.9206 294.57 68.0884C294.57 64.0465 294.57 60.1235 294.57 56.0816C294.57 54.1795 293.857 52.634 292.549 51.2075C282.801 41.4593 272.934 31.8301 263.186 22.0819C262.353 21.2498 261.64 20.6554 260.332 20.4176C258.43 20.061 257.242 18.8722 257.479 16.8512C257.717 15.068 258.668 13.7603 260.689 13.7603C262.591 13.7603 264.255 14.117 264.255 16.4946C264.255 17.8022 265.325 18.6344 266.039 19.3477C276.025 29.4525 286.129 39.4384 296.234 49.4243C297.898 50.9697 298.612 52.7529 298.612 55.0116C298.612 67.0185 298.612 79.0253 298.612 91.0322C298.612 92.9343 299.087 94.3609 300.633 95.6685C304.199 98.8783 307.528 102.326 310.975 105.654C311.451 104.822 311.332 103.871 311.332 103.039C311.332 97.8084 311.332 92.6965 311.332 87.4658C311.332 86.0393 311.332 84.6127 310.619 83.1861C309.905 81.5218 309.668 79.6198 311.213 77.8366C312.64 76.2911 314.304 75.8156 316.087 76.2911C318.227 76.8855 319.178 78.5498 319.535 80.5708C319.772 81.7596 319.297 82.9484 318.465 83.7805C317.276 84.9693 317.157 86.277 317.157 87.8225C317.157 94.7175 317.157 101.613 317.157 108.508C317.157 109.815 317.514 110.885 318.584 111.836C320.842 113.976 322.744 116.354 325.241 118.256C325.954 117.305 325.597 116.472 325.597 115.64C325.597 93.7664 325.597 71.7737 325.597 49.8998C325.597 48.3544 325.122 47.1656 323.933 46.0956C320.842 43.3614 317.989 40.2705 315.136 37.2985C314.185 36.2286 313.115 35.7531 311.689 35.872C307.528 35.872 303.367 35.872 299.206 35.872C297.78 35.872 296.829 35.3965 295.878 34.4454C293.024 31.5923 290.052 28.7392 287.199 25.8861C286.248 24.8162 284.941 24.2218 283.871 23.5085C281.612 21.963 281.493 18.991 283.871 17.5645C286.01 16.2568 288.983 17.5645 288.983 20.061C288.983 21.7253 289.696 22.7952 290.766 23.8651C293.024 26.005 295.283 28.1448 297.304 30.4035C298.374 31.5923 299.563 32.1867 301.108 32.0678C304.437 32.0678 307.766 32.0678 311.213 32.0678C312.521 32.0678 312.996 31.7112 312.996 30.2846C312.996 27.6693 312.996 25.0539 312.996 22.3197C312.996 21.1309 312.64 20.2987 311.926 19.5854C308.36 16.0191 304.794 12.4527 301.227 8.88627C300.514 8.17299 299.563 7.81635 298.493 7.81635C291.479 7.81635 284.584 7.81635 277.57 7.81635C276.738 7.81635 276.025 8.05411 275.192 8.52963C272.22 10.4317 269.962 9.24291 268.297 7.10307C266.99 5.31987 267.584 2.46676 269.486 0.921319C271.151 -0.386359 273.171 -0.1486 274.836 0.683559C276.025 1.27796 276.976 1.51572 278.164 1.51572C285.059 1.51572 291.954 1.51572 298.85 1.51572C301.108 1.51572 302.891 2.11012 304.437 3.89331C308.479 8.17299 312.758 12.3338 317.038 16.4946C318.227 17.6834 318.702 18.7533 318.702 20.4176C318.702 23.7462 318.702 27.1938 318.702 30.5224C318.702 31.9489 319.178 32.9 320.129 33.851C322.982 36.7041 325.835 39.6761 328.807 42.5293C330.59 44.1936 331.185 45.8579 331.185 48.2355C331.185 84.0183 331.185 119.682 331.185 155.465C331.185 176.863 331.304 198.143 331.304 219.541C331.304 249.975 331.185 280.289 331.304 310.722C331.304 314.17 330.353 316.666 327.856 318.925C323.933 322.61 323.933 327.96 327.856 331.764C329.639 333.428 330.353 335.33 330.353 337.827C330.234 346.029 330.234 354.351 330.353 362.554C330.353 364.931 329.521 366.596 327.856 368.26C320.723 375.155 313.828 382.169 306.814 389.183C306.101 389.896 305.269 390.49 305.269 391.679C305.269 394.057 303.605 395.246 301.584 395.602C299.087 396.197 297.423 394.889 296.234 392.749C295.164 390.728 295.878 389.183 297.304 387.637C297.78 387.162 298.374 386.33 298.85 386.33C301.822 386.33 303.129 383.952 304.794 382.288C310.856 376.225 316.8 370.162 322.982 364.218C324.052 363.148 324.409 362.197 324.409 360.77C324.409 354.589 324.409 348.526 324.409 342.344C323.339 341.987 322.982 342.82 322.507 343.176C321.199 344.365 320.129 345.792 318.702 346.862C313.947 350.547 311.807 355.183 312.996 361.127C313.472 363.505 312.283 365.288 310.619 366.833C305.269 372.064 300.038 377.295 294.808 382.525C294.094 383.239 293.738 384.071 293.5 385.141C293.143 386.686 292.43 388.113 290.409 388.232C288.626 388.351 287.318 387.875 286.486 386.211C285.654 384.309 286.843 381.812 289.101 381.456C290.29 381.218 291.003 380.623 291.836 379.91C297.066 374.679 302.297 369.33 307.647 364.218C308.835 363.148 309.192 361.959 309.073 360.533C309.073 358.75 309.311 356.966 309.073 355.302C308.598 352.211 309.905 349.952 312.164 347.931C315.612 344.722 318.94 341.274 322.388 338.064C323.577 336.876 323.695 335.925 322.388 335.092C319.059 332.834 318.346 329.624 318.821 326.058C318.821 325.701 318.821 325.225 318.821 324.869C318.108 320.946 319.535 317.736 322.625 315.477C324.884 313.813 325.479 311.673 325.479 308.939C325.241 301.212 325.479 293.603 325.479 285.876C325.479 285.282 325.954 284.212 325.003 283.974C324.646 283.974 323.933 284.45 323.458 284.925C319.178 289.205 315.017 293.603 310.5 297.645C309.549 298.596 309.192 299.785 309.192 301.093C309.192 312.743 309.192 324.393 309.192 336.162C309.192 338.54 308.479 340.204 306.814 341.869C299.563 349.001 292.311 356.253 285.059 363.386C283.633 364.812 282.801 366.239 283.039 368.379C283.157 369.686 282.92 371.113 283.039 372.421C283.752 376.581 282.087 379.791 278.997 382.407C276.857 384.19 274.955 386.33 272.934 388.351C272.339 388.945 271.745 389.539 271.626 390.49C271.151 392.868 270.199 393.581 267.703 393.344C265.801 393.225 264.85 392.036 264.85 390.253C264.85 388.113 266.039 386.805 268.06 386.567C269.13 386.449 269.843 385.973 270.437 385.379C272.458 383.477 274.241 381.337 276.381 379.553C278.878 377.414 279.829 374.917 279.353 371.707C279.353 371.232 279.591 370.519 278.878 370.281C278.283 370.043 277.927 370.756 277.57 371.113C274.004 374.679 270.437 378.246 266.871 381.812C266.039 382.644 265.207 383.239 264.374 384.071C263.542 384.784 262.948 385.616 262.829 386.924C262.829 389.302 260.927 391.204 258.787 391.441C256.291 391.679 254.151 390.49 253.437 388.588C252.605 386.33 253.556 383.833 255.934 382.644C261.284 379.91 264.612 375.036 268.654 371.113C276.262 363.742 283.514 356.015 291.122 348.645C294.57 345.316 298.136 341.869 301.584 338.54C302.416 337.827 303.129 336.995 303.129 335.687C303.129 325.582 303.129 315.596 303.129 305.491C303.129 305.135 303.129 304.897 302.891 304.303C299.563 306.799 297.066 309.771 294.332 312.505C290.409 316.428 286.486 320.351 282.444 324.274C281.255 325.463 280.78 326.652 280.78 328.197C280.78 332.239 280.78 336.162 280.78 340.204C280.78 342.225 280.185 343.89 278.759 345.316C273.29 350.785 267.822 356.253 262.353 361.722C261.521 362.554 260.927 363.386 260.689 364.575C260.332 366.239 259.263 367.665 257.123 367.665C254.864 367.665 254.032 366.12 253.556 364.575C253.081 363.029 254.27 361.246 255.34 361.127C258.906 360.77 260.095 357.68 262.472 355.896C262.948 355.54 264.018 355.183 263.661 354.113C263.186 353.162 262.353 353.4 261.521 353.4C259.144 353.4 256.766 353.4 254.27 353.4C252.249 353.4 250.703 354.113 249.277 355.54C247.018 357.917 244.759 360.057 242.501 362.316C241.193 363.624 239.766 364.694 239.529 366.833C239.291 368.26 237.864 369.568 236.081 369.33C234.654 369.092 233.109 368.498 232.99 366.596C232.871 364.931 232.752 363.148 234.892 362.554C238.34 361.603 240.242 358.987 242.738 356.015C238.102 356.015 234.06 355.896 229.899 356.015C228.71 356.015 227.878 357.561 227.046 358.512C225.501 360.176 223.48 361.484 223.004 364.218C222.648 366.12 220.27 367.071 218.487 366.358C216.941 365.882 215.871 364.575 215.99 363.029C216.228 361.127 217.179 359.701 219.438 359.582C220.983 359.582 221.697 358.274 222.41 357.323C225.62 353.162 229.543 351.141 234.892 351.973C237.27 352.33 239.885 351.973 242.263 351.973C244.759 351.973 247.256 352.33 249.039 349.952C249.752 349.001 250.822 349.12 251.892 349.12C256.885 349.12 261.759 349.12 266.752 349.12C268.179 349.12 269.248 348.764 270.199 347.694C270.794 346.98 271.388 346.267 272.102 345.792C275.906 342.939 277.451 339.253 276.619 334.498C276.381 333.19 276.619 331.764 276.619 330.456C276.025 325.82 277.095 322.016 281.136 319.281C281.731 318.925 282.087 318.33 281.969 317.736C281.731 317.142 281.018 317.379 280.423 317.379C277.332 317.379 274.241 317.379 271.032 317.379C269.843 317.379 269.011 317.855 268.179 318.568C263.78 322.967 259.263 327.365 254.864 331.764C254.27 332.358 253.794 333.072 253.556 334.141C253.319 335.687 252.368 336.995 250.584 337.351C248.682 337.708 247.375 336.876 246.661 335.211C245.948 333.666 246.78 330.932 248.444 330.813C251.535 330.575 252.843 328.079 254.626 326.414C258.668 322.61 262.472 318.687 266.395 314.764C267.227 313.932 268.179 313.456 269.486 313.456C274.598 313.456 279.71 313.456 284.822 313.456C286.248 313.456 287.199 313.1 288.15 312.149C292.549 307.75 297.78 303.827 301.346 298.715C307.647 289.68 316.325 283.142 323.577 275.058C324.171 274.345 324.765 273.632 324.765 272.562C324.765 264.835 324.765 257.107 324.765 249.261C324.765 249.023 324.765 248.667 324.528 247.835C322.388 250.331 319.535 251.52 318.821 254.849C318.346 256.751 316.919 258.058 314.661 257.702C312.758 257.345 311.689 255.919 311.689 254.373C311.689 252.471 312.758 250.926 315.017 250.926C315.374 250.926 315.73 250.926 315.968 250.807C318.821 247.954 321.793 245.1 324.646 242.247C325.003 241.891 324.884 241.059 324.884 240.345C324.884 237.254 324.884 234.163 324.884 230.954C324.884 229.052 324.171 228.338 322.507 228.22C320.248 228.22 317.989 228.22 315.849 228.22C314.542 228.22 313.472 228.814 312.521 229.765C307.766 234.52 303.01 239.156 298.255 243.793C298.017 244.031 297.78 244.149 297.542 244.387C295.521 246.765 295.996 257.345 298.255 259.604C299.801 261.149 301.227 262.695 302.773 264.002C305.031 266.023 306.577 268.163 305.982 271.373C305.745 272.562 306.577 273.513 307.052 274.464C308.003 276.128 308.122 277.792 306.577 279.1C305.269 280.289 303.486 280.17 302.178 279.219C300.514 278.149 300.514 276.247 301.227 274.583C303.01 270.66 301.465 266.023 297.661 264.597C296.353 264.121 296.353 265.31 296.353 266.142C296.353 270.897 296.234 275.771 296.353 280.527C296.353 283.38 295.759 285.52 293.5 287.541C291.598 289.086 289.339 290.631 289.101 293.722C289.101 294.911 287.199 296.338 285.416 295.862C283.871 295.387 282.563 294.673 282.563 292.652C282.563 290.75 283.039 289.561 285.178 289.086C288.269 288.373 289.696 285.52 291.836 283.618C293.024 282.548 292.43 281.121 292.43 279.813C292.43 270.897 292.43 262.1 292.43 253.184C292.43 252.233 292.668 251.282 292.192 250.331C291.36 249.856 291.241 250.807 291.003 251.163C288.745 254.016 286.129 255.681 282.325 254.967C281.374 254.73 280.661 255.324 279.948 255.919C278.164 257.345 276.5 257.107 274.955 255.562C273.647 254.254 273.647 252.709 274.717 251.282C276.025 249.38 277.927 249.618 279.591 250.45C282.563 251.758 284.941 251.52 287.199 249.38C293.5 243.198 299.801 237.017 305.982 230.835C306.577 230.24 307.766 229.884 307.171 228.814C306.814 227.982 305.745 228.338 305.031 228.338C299.682 228.338 294.332 228.338 288.983 228.338C287.437 228.338 286.248 228.695 285.178 229.884C278.878 236.184 272.696 242.366 266.276 248.667C265.207 249.737 265.207 251.044 265.207 252.352C265.207 265.429 265.207 278.387 265.207 291.464C265.207 293.722 264.493 295.624 262.829 297.17C246.067 313.337 229.78 329.981 213.375 346.386C212.543 347.218 211.711 347.931 211.711 349.358C211.711 351.736 209.927 353.638 207.788 353.875C205.767 354.113 203.032 352.568 202.319 350.547C201.606 348.645 202.438 346.029 204.697 345.078C208.025 343.652 210.046 340.918 212.305 338.659C227.403 323.68 242.382 308.701 257.36 293.722C258.074 293.009 258.787 292.296 258.787 291.107C258.787 279.576 258.787 268.044 258.787 256.513C258.787 256.156 258.787 255.8 258.549 254.967C254.983 258.534 251.654 261.744 248.326 265.072C242.263 271.016 236.319 277.079 230.256 283.023C229.305 283.974 228.829 284.925 228.829 286.352C228.829 292.296 228.829 298.359 228.829 304.303C228.829 305.729 228.354 306.799 227.403 307.869C225.857 309.414 224.431 310.96 222.885 312.505C221.578 313.694 220.389 314.764 220.032 316.785C219.794 318.33 218.249 319.638 216.347 319.163C214.801 318.806 213.494 317.974 213.494 315.953C213.494 314.051 213.85 312.624 215.99 312.386C217.773 312.149 218.725 310.722 219.913 309.771C223.836 306.68 225.857 302.876 225.025 297.645C224.669 295.505 225.025 293.128 225.025 290.988C225.025 290.394 225.382 289.561 224.55 289.324C224.074 289.324 223.48 289.68 223.004 290.275C217.417 295.981 211.354 301.331 206.004 307.393C202.319 311.554 198.515 313.456 193.047 312.743C190.312 312.386 187.459 312.743 184.606 312.743C182.585 312.743 180.564 312.624 178.781 314.17C177.235 315.477 175.809 314.17 174.858 312.862C173.788 311.554 173.788 310.128 174.858 308.82C175.928 307.631 177.117 306.324 178.781 307.512C180.564 308.82 182.347 308.939 184.368 308.82C188.41 308.82 192.333 308.82 196.375 308.82C197.921 308.82 199.109 308.463 200.298 307.275C212.781 294.673 225.382 282.191 237.864 269.709C238.459 269.114 239.528 268.639 239.172 267.806C238.934 267.093 237.745 267.45 237.032 267.45C228.473 267.45 219.913 267.45 211.354 267.45C209.214 267.45 207.55 266.737 206.123 265.31C200.298 259.485 194.473 253.66 188.648 247.835C187.578 246.765 186.627 246.289 185.2 246.408C181.872 246.408 178.543 246.408 175.096 246.408C174.382 246.408 173.669 246.646 173.075 246.051C171.648 244.625 170.222 243.674 168.082 243.198C166.299 242.842 165.942 240.94 166.299 239.038C166.655 237.254 167.844 236.66 169.508 236.66C171.529 236.66 172.837 237.611 173.075 239.394C173.431 241.891 174.739 242.723 177.117 242.604C179.97 242.604 182.942 242.723 185.795 242.604C188.172 242.485 189.718 243.198 191.382 244.863C196.97 250.569 202.676 256.156 208.263 261.862C209.214 262.814 210.165 263.051 211.354 263.051C215.158 263.051 219.081 263.051 222.885 263.17C223.361 263.17 223.836 263.17 224.074 262.695C224.193 262.219 223.836 262.1 223.599 261.744C221.815 260.079 220.151 258.534 218.606 256.751C218.011 256.037 217.179 256.156 216.466 255.919C215.158 255.324 213.613 254.849 213.494 252.947C213.375 251.282 213.494 249.856 215.396 249.023C217.298 248.191 219.913 249.261 220.151 251.401C220.27 252.709 220.864 253.422 221.815 254.373C224.312 256.751 226.571 259.247 228.948 261.625C229.899 262.576 230.85 263.051 232.277 263.051C235.843 263.051 239.291 263.051 242.857 263.051C244.284 263.051 245.235 262.576 246.186 261.625C249.99 257.821 254.507 254.373 257.479 250.093C262.71 242.485 270.199 237.017 276.143 230.24C276.619 229.765 277.095 229.289 276.857 228.695C276.5 227.982 275.549 228.338 274.955 228.338C255.577 228.338 236.2 228.338 216.941 228.338C215.039 228.338 213.613 227.863 212.186 226.436C209.571 223.702 206.718 221.324 204.221 218.471C202.795 216.926 201.487 216.45 199.466 216.45C170.103 216.45 140.739 216.45 111.376 216.45C77.9708 216.45 44.5656 216.45 11.1604 216.45C9.73382 216.45 8.30726 216.45 6.8807 217.401C5.21638 218.471 2.12551 217.401 0.936709 215.856C-0.370969 214.073 -0.252089 211.695 0.936709 210.031C2.36327 208.248 4.62198 207.653 6.76182 208.961C8.42614 209.912 9.97157 210.031 11.7548 210.031C74.7611 210.031 137.767 210.031 200.774 210.031C203.27 210.031 205.291 210.506 206.955 212.646C208.382 214.548 210.403 215.856 211.948 217.758C215.039 221.562 218.725 222.751 223.717 222.632C240.717 222.276 257.717 222.513 274.836 222.513C275.549 222.513 276.5 222.989 276.976 222.038C277.332 221.087 276.381 220.611 275.906 220.136C270.081 214.311 264.255 208.604 258.43 202.779C257.479 201.828 256.409 201.353 254.983 201.353C247.493 201.353 240.004 201.353 232.396 201.353C230.85 201.353 229.78 200.877 228.71 199.807C224.431 195.409 219.913 191.129 215.634 186.73C214.326 185.304 213.613 185.423 212.305 186.73C208.976 190.178 205.41 193.269 202.081 196.716C200.417 198.5 198.634 199.094 196.256 199.094C159.285 199.094 122.432 199.094 85.4603 199.094C83.9148 199.094 82.4883 199.094 80.9428 200.045C79.6351 200.877 77.7331 200.758 76.6632 199.213C75.5932 197.786 75.5932 196.003 76.6632 194.577C77.852 193.15 79.6351 193.031 81.0617 193.982C82.6071 194.933 84.2715 195.29 86.0547 195.29C122.313 195.29 158.69 195.29 194.949 195.29C197.088 195.29 198.634 194.577 200.06 193.15C202.914 190.297 205.885 187.682 208.739 184.947L208.144 183.996L209.214 183.64Z"/>
</mask>
<path d="M209.214 183.64C203.151 183.64 197.088 183.64 191.026 183.64C188.41 183.64 185.914 183.283 183.536 185.185C182.347 186.136 180.921 185.185 179.851 184.115C178.781 183.045 178.543 181.738 179.256 180.43C179.97 179.003 181.396 177.933 182.823 178.528C189.956 181.381 197.326 179.241 204.578 179.835C207.312 180.073 210.165 179.954 213.018 179.835C214.92 179.835 216.347 180.43 217.655 181.856C222.172 186.493 226.927 191.01 231.445 195.646C232.515 196.716 233.466 197.192 235.011 197.073C240.242 197.073 245.354 197.073 250.584 197.073C251.298 197.073 252.368 197.43 252.843 196.716C253.437 195.765 252.249 195.171 251.654 194.577C241.787 184.591 231.801 174.605 221.815 164.738C216.466 159.507 211.116 154.276 205.886 149.046C205.053 148.213 204.221 147.976 203.151 147.976C193.641 147.976 184.131 147.976 174.62 147.976C173.788 147.976 172.956 147.976 172.124 148.57C170.34 149.759 167.25 149.046 165.823 147.381C164.159 145.36 164.278 143.22 166.061 141.2C167.606 139.535 169.508 138.465 172.124 140.248C173.431 141.2 174.858 141.318 176.403 141.318C185.676 141.318 194.949 141.318 204.221 141.318C206.361 141.318 208.025 142.032 209.452 143.458C219.794 153.801 230.018 164.143 240.361 174.486C255.696 189.821 271.032 205.038 286.367 220.373C287.437 221.443 288.507 222.038 290.052 221.919C292.192 221.919 294.332 221.919 296.472 221.919C298.255 221.919 298.968 221.562 298.968 219.541C299.087 216.688 298.255 214.548 296.115 212.646C291.717 208.485 287.437 204.206 283.157 199.926C282.444 199.213 281.731 198.856 280.78 198.737C279.353 198.5 277.808 198.143 277.689 196.122C277.57 194.22 277.451 192.437 279.829 191.723C281.85 191.129 283.395 191.961 283.871 193.626C284.703 196.36 286.843 197.905 288.626 199.807C292.549 203.849 296.472 207.772 300.633 211.576C302.654 213.478 302.773 215.618 302.654 217.996C302.654 221.919 302.654 221.919 306.577 221.919C312.283 221.919 317.989 221.919 323.577 221.919C325.36 221.919 325.835 221.324 325.835 219.66C325.835 215.38 325.835 211.22 325.835 206.94C325.835 205.276 325.36 204.562 323.577 204.562C317.87 204.562 312.045 204.562 306.339 204.562C304.794 204.562 303.724 204.087 302.654 203.017C294.451 194.814 286.129 186.612 277.927 178.29C276.857 177.22 275.787 176.745 274.241 176.745C269.011 176.745 263.899 176.745 258.668 176.745C257.123 176.745 256.053 176.269 254.983 175.199C247.375 167.472 239.766 159.864 232.039 152.255C231.326 151.542 230.85 150.948 229.78 150.71C227.284 150.115 226.571 148.927 226.808 146.43C227.046 144.409 228.354 143.815 230.137 143.815C232.515 143.815 233.703 145.004 233.585 147.262C233.585 148.332 234.298 148.927 234.773 149.402C242.144 156.892 249.633 164.262 257.004 171.633C257.836 172.465 258.668 172.703 259.738 172.703C264.374 172.703 269.011 172.703 273.647 172.703C275.192 172.703 275.906 172.227 275.668 170.563C275.668 170.444 275.668 170.206 275.668 170.087C276.381 165.332 274.598 162.003 271.151 158.675C260.332 148.332 249.871 137.514 239.291 126.815C238.221 125.745 237.151 125.507 235.724 125.507C220.983 125.507 206.123 125.507 191.382 125.507C189.718 125.507 188.529 125.151 187.34 123.843C184.963 121.228 182.347 118.731 179.732 116.235C178.9 115.403 178.068 114.214 176.641 114.214C174.501 114.095 173.312 112.549 173.431 110.885C173.431 109.34 174.501 107.557 176.641 107.438C178.9 107.2 180.207 108.626 180.564 110.41C180.921 111.836 181.515 112.787 182.585 113.619C182.823 113.857 183.061 114.095 183.179 114.333C185.676 116.829 187.816 120.277 190.907 121.584C193.998 122.892 198.039 121.941 201.606 121.941C205.41 121.941 209.095 121.941 212.899 121.941C213.375 121.941 214.088 122.179 214.326 121.584C214.564 120.99 213.969 120.752 213.613 120.514C208.739 115.521 203.746 110.529 198.753 105.654C198.039 104.941 197.207 104.822 196.137 104.822C191.858 104.822 187.697 104.822 183.417 104.822C181.991 104.822 181.04 105.536 179.97 106.13C178.305 107.2 177.117 106.605 175.928 105.536C174.62 104.466 174.501 102.801 175.215 101.375C175.809 100.067 177.473 99.1161 178.662 99.5916C184.844 102.207 191.144 100.424 197.445 100.899C198.99 100.899 200.06 101.375 201.13 102.445C207.074 108.508 213.137 114.452 219.081 120.514C220.151 121.584 221.221 122.179 222.766 122.06C227.522 122.06 232.396 122.06 237.151 122.06C238.696 122.06 239.885 122.535 240.955 123.605C243.927 126.696 246.899 129.668 249.99 132.64C250.347 132.997 250.703 134.067 251.654 133.472C252.368 133.116 252.368 132.402 252.368 131.808C252.368 127.172 252.368 122.535 252.368 117.899C252.368 116.71 251.773 115.878 250.941 115.046C245.829 110.053 240.836 104.941 235.724 99.8293C235.011 99.116 234.298 99.116 233.466 98.8783C232.039 98.4028 230.613 97.8084 230.375 96.0252C230.137 94.3609 230.375 92.9343 232.158 91.9832C234.179 90.9133 236.794 91.9833 237.151 94.3608C237.27 95.5496 237.864 96.3818 238.696 97.0951C243.927 102.326 249.158 107.438 254.388 112.668C255.696 113.976 256.291 115.403 256.291 117.305C256.291 123.724 256.291 130.263 256.291 136.682C256.291 138.228 256.766 139.297 257.836 140.367C264.493 147.025 271.032 153.682 277.808 160.339C279.115 161.528 279.591 162.836 279.472 164.5C279.472 166.878 279.472 169.255 279.472 171.752C279.353 173.773 279.948 175.08 281.374 176.507C289.101 184.115 296.71 191.723 304.318 199.451C305.388 200.521 306.339 200.996 307.766 200.996C312.996 200.996 318.108 200.996 323.339 200.996C325.003 200.996 325.716 200.639 325.716 198.737C325.716 193.269 325.716 193.031 320.367 193.388C316.444 193.626 313.591 192.556 311.094 189.465C308.835 186.612 306.101 184.353 303.486 181.738C302.535 180.786 301.584 180.073 300.276 179.954C298.255 179.717 297.78 178.29 297.78 176.626C297.78 174.605 299.206 173.654 300.752 173.297C302.416 172.822 304.199 174.01 304.318 175.318C304.675 178.884 307.884 180.192 309.668 182.57C310.381 183.521 311.57 183.996 312.164 184.947C314.898 188.751 318.465 190.297 323.101 189.465C323.933 189.346 325.241 190.059 325.597 188.751C325.835 187.682 326.073 186.374 324.884 185.304C320.605 181.262 316.563 177.101 312.521 173.059C296.829 157.367 281.255 141.794 265.563 126.102C264.493 125.032 264.137 123.843 264.137 122.298C264.137 110.647 264.137 98.9972 264.137 87.2281C264.137 85.2071 263.661 84.6127 261.64 84.6127C257.004 84.7316 252.368 84.6127 247.731 84.6127C246.186 84.6127 245.116 84.1372 243.927 83.0673C240.836 79.9764 237.626 77.0044 234.654 73.7946C233.585 72.6058 232.515 72.2492 230.969 72.2492C222.885 72.2492 214.801 72.2492 206.718 72.2492C205.172 72.2492 203.746 72.3681 202.557 73.438C200.893 74.8646 199.347 74.0324 198.158 72.8436C196.732 71.417 196.732 69.6339 198.158 68.2073C199.228 67.0185 200.774 66.3052 202.319 67.3751C203.983 68.4451 205.767 68.4451 207.55 68.4451C215.99 68.4451 224.55 68.4451 232.99 68.4451C234.417 68.4451 235.487 68.9206 236.438 69.8716C239.291 72.8436 242.263 75.8156 245.116 78.6687C246.067 79.6198 247.137 80.0953 248.682 80.0953C251.892 80.0953 255.102 80.0953 258.311 80.0953C258.787 80.0953 259.263 80.0953 259.5 79.6197C259.619 79.1442 259.263 79.0254 259.025 78.6687C251.416 71.0604 243.927 63.4521 236.319 55.8438C235.605 55.1305 234.654 54.7739 233.585 54.7739C225.263 54.7739 216.941 54.7739 208.62 54.7739C207.193 54.7739 206.242 55.4872 205.172 56.0816C203.032 57.1515 200.893 56.6759 199.347 54.7739C197.802 52.8718 197.921 50.6131 199.466 48.711C200.774 47.0467 203.865 46.3334 205.41 47.6411C206.955 48.9488 208.62 49.0676 210.522 48.9488C218.962 48.9488 227.284 48.9488 235.724 48.9488C237.389 48.9488 238.696 49.4243 239.885 50.6131C249.514 60.3612 259.263 69.9905 268.892 79.6197C269.962 80.6897 270.199 81.7596 270.199 83.1861C270.199 95.193 270.199 107.2 270.199 119.207C270.199 120.871 270.675 122.06 271.983 123.249C289.22 140.367 306.339 157.486 323.458 174.724C324.052 175.318 324.646 176.388 325.479 175.912C326.192 175.556 325.835 174.486 325.835 173.654C325.835 158.913 325.835 144.171 325.835 129.549C325.835 128.004 325.479 126.934 324.29 125.864C320.723 122.535 316.919 119.326 313.947 115.403C308.598 108.27 301.822 102.326 295.64 95.9063C294.808 95.0741 294.926 94.0042 294.926 93.0532C294.926 88.7735 294.926 84.6127 294.926 80.333C294.926 78.1932 294.213 76.41 292.549 74.9834C288.983 71.6548 285.654 68.0884 282.325 64.6409C281.374 63.6899 280.423 63.3332 279.234 63.4521C275.668 63.4521 271.983 63.4521 268.416 63.4521C267.109 63.4521 266.039 63.0955 265.088 62.0255C257.123 53.9417 249.039 45.9768 241.074 38.0118C240.242 37.1797 239.41 36.4664 237.983 36.5853C236.081 36.5853 235.249 35.0398 234.892 33.6133C234.417 31.9489 235.605 30.6413 236.913 30.0469C238.221 29.4525 240.361 29.3336 240.955 30.879C243.095 36.3475 247.969 39.3195 251.654 43.2425C255.458 47.2844 259.5 51.2075 263.423 55.1305C263.661 55.3683 264.018 55.606 264.255 55.9627C266.752 60.1235 270.675 59.8857 274.717 59.6479C276.262 59.6479 276.025 58.6969 275.311 57.9836C273.171 55.7249 271.032 53.5851 268.773 51.4452C267.822 50.6131 266.395 50.9697 265.207 50.2564C263.661 49.3054 262.948 47.9977 263.304 46.3334C263.661 44.6691 264.969 43.4803 266.633 43.5992C268.06 43.5992 269.605 44.1936 269.962 45.9768C270.318 47.76 271.626 48.8299 272.696 50.0187C278.997 56.4382 285.416 62.7388 291.836 69.1583C292.311 69.6339 292.668 70.7038 293.738 70.3471C294.808 69.9905 294.57 68.9206 294.57 68.0884C294.57 64.0465 294.57 60.1235 294.57 56.0816C294.57 54.1795 293.857 52.634 292.549 51.2075C282.801 41.4593 272.934 31.8301 263.186 22.0819C262.353 21.2498 261.64 20.6554 260.332 20.4176C258.43 20.061 257.242 18.8722 257.479 16.8512C257.717 15.068 258.668 13.7603 260.689 13.7603C262.591 13.7603 264.255 14.117 264.255 16.4946C264.255 17.8022 265.325 18.6344 266.039 19.3477C276.025 29.4525 286.129 39.4384 296.234 49.4243C297.898 50.9697 298.612 52.7529 298.612 55.0116C298.612 67.0185 298.612 79.0253 298.612 91.0322C298.612 92.9343 299.087 94.3609 300.633 95.6685C304.199 98.8783 307.528 102.326 310.975 105.654C311.451 104.822 311.332 103.871 311.332 103.039C311.332 97.8084 311.332 92.6965 311.332 87.4658C311.332 86.0393 311.332 84.6127 310.619 83.1861C309.905 81.5218 309.668 79.6198 311.213 77.8366C312.64 76.2911 314.304 75.8156 316.087 76.2911C318.227 76.8855 319.178 78.5498 319.535 80.5708C319.772 81.7596 319.297 82.9484 318.465 83.7805C317.276 84.9693 317.157 86.277 317.157 87.8225C317.157 94.7175 317.157 101.613 317.157 108.508C317.157 109.815 317.514 110.885 318.584 111.836C320.842 113.976 322.744 116.354 325.241 118.256C325.954 117.305 325.597 116.472 325.597 115.64C325.597 93.7664 325.597 71.7737 325.597 49.8998C325.597 48.3544 325.122 47.1656 323.933 46.0956C320.842 43.3614 317.989 40.2705 315.136 37.2985C314.185 36.2286 313.115 35.7531 311.689 35.872C307.528 35.872 303.367 35.872 299.206 35.872C297.78 35.872 296.829 35.3965 295.878 34.4454C293.024 31.5923 290.052 28.7392 287.199 25.8861C286.248 24.8162 284.941 24.2218 283.871 23.5085C281.612 21.963 281.493 18.991 283.871 17.5645C286.01 16.2568 288.983 17.5645 288.983 20.061C288.983 21.7253 289.696 22.7952 290.766 23.8651C293.024 26.005 295.283 28.1448 297.304 30.4035C298.374 31.5923 299.563 32.1867 301.108 32.0678C304.437 32.0678 307.766 32.0678 311.213 32.0678C312.521 32.0678 312.996 31.7112 312.996 30.2846C312.996 27.6693 312.996 25.0539 312.996 22.3197C312.996 21.1309 312.64 20.2987 311.926 19.5854C308.36 16.0191 304.794 12.4527 301.227 8.88627C300.514 8.17299 299.563 7.81635 298.493 7.81635C291.479 7.81635 284.584 7.81635 277.57 7.81635C276.738 7.81635 276.025 8.05411 275.192 8.52963C272.22 10.4317 269.962 9.24291 268.297 7.10307C266.99 5.31987 267.584 2.46676 269.486 0.921319C271.151 -0.386359 273.171 -0.1486 274.836 0.683559C276.025 1.27796 276.976 1.51572 278.164 1.51572C285.059 1.51572 291.954 1.51572 298.85 1.51572C301.108 1.51572 302.891 2.11012 304.437 3.89331C308.479 8.17299 312.758 12.3338 317.038 16.4946C318.227 17.6834 318.702 18.7533 318.702 20.4176C318.702 23.7462 318.702 27.1938 318.702 30.5224C318.702 31.9489 319.178 32.9 320.129 33.851C322.982 36.7041 325.835 39.6761 328.807 42.5293C330.59 44.1936 331.185 45.8579 331.185 48.2355C331.185 84.0183 331.185 119.682 331.185 155.465C331.185 176.863 331.304 198.143 331.304 219.541C331.304 249.975 331.185 280.289 331.304 310.722C331.304 314.17 330.353 316.666 327.856 318.925C323.933 322.61 323.933 327.96 327.856 331.764C329.639 333.428 330.353 335.33 330.353 337.827C330.234 346.029 330.234 354.351 330.353 362.554C330.353 364.931 329.521 366.596 327.856 368.26C320.723 375.155 313.828 382.169 306.814 389.183C306.101 389.896 305.269 390.49 305.269 391.679C305.269 394.057 303.605 395.246 301.584 395.602C299.087 396.197 297.423 394.889 296.234 392.749C295.164 390.728 295.878 389.183 297.304 387.637C297.78 387.162 298.374 386.33 298.85 386.33C301.822 386.33 303.129 383.952 304.794 382.288C310.856 376.225 316.8 370.162 322.982 364.218C324.052 363.148 324.409 362.197 324.409 360.77C324.409 354.589 324.409 348.526 324.409 342.344C323.339 341.987 322.982 342.82 322.507 343.176C321.199 344.365 320.129 345.792 318.702 346.862C313.947 350.547 311.807 355.183 312.996 361.127C313.472 363.505 312.283 365.288 310.619 366.833C305.269 372.064 300.038 377.295 294.808 382.525C294.094 383.239 293.738 384.071 293.5 385.141C293.143 386.686 292.43 388.113 290.409 388.232C288.626 388.351 287.318 387.875 286.486 386.211C285.654 384.309 286.843 381.812 289.101 381.456C290.29 381.218 291.003 380.623 291.836 379.91C297.066 374.679 302.297 369.33 307.647 364.218C308.835 363.148 309.192 361.959 309.073 360.533C309.073 358.75 309.311 356.966 309.073 355.302C308.598 352.211 309.905 349.952 312.164 347.931C315.612 344.722 318.94 341.274 322.388 338.064C323.577 336.876 323.695 335.925 322.388 335.092C319.059 332.834 318.346 329.624 318.821 326.058C318.821 325.701 318.821 325.225 318.821 324.869C318.108 320.946 319.535 317.736 322.625 315.477C324.884 313.813 325.479 311.673 325.479 308.939C325.241 301.212 325.479 293.603 325.479 285.876C325.479 285.282 325.954 284.212 325.003 283.974C324.646 283.974 323.933 284.45 323.458 284.925C319.178 289.205 315.017 293.603 310.5 297.645C309.549 298.596 309.192 299.785 309.192 301.093C309.192 312.743 309.192 324.393 309.192 336.162C309.192 338.54 308.479 340.204 306.814 341.869C299.563 349.001 292.311 356.253 285.059 363.386C283.633 364.812 282.801 366.239 283.039 368.379C283.157 369.686 282.92 371.113 283.039 372.421C283.752 376.581 282.087 379.791 278.997 382.407C276.857 384.19 274.955 386.33 272.934 388.351C272.339 388.945 271.745 389.539 271.626 390.49C271.151 392.868 270.199 393.581 267.703 393.344C265.801 393.225 264.85 392.036 264.85 390.253C264.85 388.113 266.039 386.805 268.06 386.567C269.13 386.449 269.843 385.973 270.437 385.379C272.458 383.477 274.241 381.337 276.381 379.553C278.878 377.414 279.829 374.917 279.353 371.707C279.353 371.232 279.591 370.519 278.878 370.281C278.283 370.043 277.927 370.756 277.57 371.113C274.004 374.679 270.437 378.246 266.871 381.812C266.039 382.644 265.207 383.239 264.374 384.071C263.542 384.784 262.948 385.616 262.829 386.924C262.829 389.302 260.927 391.204 258.787 391.441C256.291 391.679 254.151 390.49 253.437 388.588C252.605 386.33 253.556 383.833 255.934 382.644C261.284 379.91 264.612 375.036 268.654 371.113C276.262 363.742 283.514 356.015 291.122 348.645C294.57 345.316 298.136 341.869 301.584 338.54C302.416 337.827 303.129 336.995 303.129 335.687C303.129 325.582 303.129 315.596 303.129 305.491C303.129 305.135 303.129 304.897 302.891 304.303C299.563 306.799 297.066 309.771 294.332 312.505C290.409 316.428 286.486 320.351 282.444 324.274C281.255 325.463 280.78 326.652 280.78 328.197C280.78 332.239 280.78 336.162 280.78 340.204C280.78 342.225 280.185 343.89 278.759 345.316C273.29 350.785 267.822 356.253 262.353 361.722C261.521 362.554 260.927 363.386 260.689 364.575C260.332 366.239 259.263 367.665 257.123 367.665C254.864 367.665 254.032 366.12 253.556 364.575C253.081 363.029 254.27 361.246 255.34 361.127C258.906 360.77 260.095 357.68 262.472 355.896C262.948 355.54 264.018 355.183 263.661 354.113C263.186 353.162 262.353 353.4 261.521 353.4C259.144 353.4 256.766 353.4 254.27 353.4C252.249 353.4 250.703 354.113 249.277 355.54C247.018 357.917 244.759 360.057 242.501 362.316C241.193 363.624 239.766 364.694 239.529 366.833C239.291 368.26 237.864 369.568 236.081 369.33C234.654 369.092 233.109 368.498 232.99 366.596C232.871 364.931 232.752 363.148 234.892 362.554C238.34 361.603 240.242 358.987 242.738 356.015C238.102 356.015 234.06 355.896 229.899 356.015C228.71 356.015 227.878 357.561 227.046 358.512C225.501 360.176 223.48 361.484 223.004 364.218C222.648 366.12 220.27 367.071 218.487 366.358C216.941 365.882 215.871 364.575 215.99 363.029C216.228 361.127 217.179 359.701 219.438 359.582C220.983 359.582 221.697 358.274 222.41 357.323C225.62 353.162 229.543 351.141 234.892 351.973C237.27 352.33 239.885 351.973 242.263 351.973C244.759 351.973 247.256 352.33 249.039 349.952C249.752 349.001 250.822 349.12 251.892 349.12C256.885 349.12 261.759 349.12 266.752 349.12C268.179 349.12 269.248 348.764 270.199 347.694C270.794 346.98 271.388 346.267 272.102 345.792C275.906 342.939 277.451 339.253 276.619 334.498C276.381 333.19 276.619 331.764 276.619 330.456C276.025 325.82 277.095 322.016 281.136 319.281C281.731 318.925 282.087 318.33 281.969 317.736C281.731 317.142 281.018 317.379 280.423 317.379C277.332 317.379 274.241 317.379 271.032 317.379C269.843 317.379 269.011 317.855 268.179 318.568C263.78 322.967 259.263 327.365 254.864 331.764C254.27 332.358 253.794 333.072 253.556 334.141C253.319 335.687 252.368 336.995 250.584 337.351C248.682 337.708 247.375 336.876 246.661 335.211C245.948 333.666 246.78 330.932 248.444 330.813C251.535 330.575 252.843 328.079 254.626 326.414C258.668 322.61 262.472 318.687 266.395 314.764C267.227 313.932 268.179 313.456 269.486 313.456C274.598 313.456 279.71 313.456 284.822 313.456C286.248 313.456 287.199 313.1 288.15 312.149C292.549 307.75 297.78 303.827 301.346 298.715C307.647 289.68 316.325 283.142 323.577 275.058C324.171 274.345 324.765 273.632 324.765 272.562C324.765 264.835 324.765 257.107 324.765 249.261C324.765 249.023 324.765 248.667 324.528 247.835C322.388 250.331 319.535 251.52 318.821 254.849C318.346 256.751 316.919 258.058 314.661 257.702C312.758 257.345 311.689 255.919 311.689 254.373C311.689 252.471 312.758 250.926 315.017 250.926C315.374 250.926 315.73 250.926 315.968 250.807C318.821 247.954 321.793 245.1 324.646 242.247C325.003 241.891 324.884 241.059 324.884 240.345C324.884 237.254 324.884 234.163 324.884 230.954C324.884 229.052 324.171 228.338 322.507 228.22C320.248 228.22 317.989 228.22 315.849 228.22C314.542 228.22 313.472 228.814 312.521 229.765C307.766 234.52 303.01 239.156 298.255 243.793C298.017 244.031 297.78 244.149 297.542 244.387C295.521 246.765 295.996 257.345 298.255 259.604C299.801 261.149 301.227 262.695 302.773 264.002C305.031 266.023 306.577 268.163 305.982 271.373C305.745 272.562 306.577 273.513 307.052 274.464C308.003 276.128 308.122 277.792 306.577 279.1C305.269 280.289 303.486 280.17 302.178 279.219C300.514 278.149 300.514 276.247 301.227 274.583C303.01 270.66 301.465 266.023 297.661 264.597C296.353 264.121 296.353 265.31 296.353 266.142C296.353 270.897 296.234 275.771 296.353 280.527C296.353 283.38 295.759 285.52 293.5 287.541C291.598 289.086 289.339 290.631 289.101 293.722C289.101 294.911 287.199 296.338 285.416 295.862C283.871 295.387 282.563 294.673 282.563 292.652C282.563 290.75 283.039 289.561 285.178 289.086C288.269 288.373 289.696 285.52 291.836 283.618C293.024 282.548 292.43 281.121 292.43 279.813C292.43 270.897 292.43 262.1 292.43 253.184C292.43 252.233 292.668 251.282 292.192 250.331C291.36 249.856 291.241 250.807 291.003 251.163C288.745 254.016 286.129 255.681 282.325 254.967C281.374 254.73 280.661 255.324 279.948 255.919C278.164 257.345 276.5 257.107 274.955 255.562C273.647 254.254 273.647 252.709 274.717 251.282C276.025 249.38 277.927 249.618 279.591 250.45C282.563 251.758 284.941 251.52 287.199 249.38C293.5 243.198 299.801 237.017 305.982 230.835C306.577 230.24 307.766 229.884 307.171 228.814C306.814 227.982 305.745 228.338 305.031 228.338C299.682 228.338 294.332 228.338 288.983 228.338C287.437 228.338 286.248 228.695 285.178 229.884C278.878 236.184 272.696 242.366 266.276 248.667C265.207 249.737 265.207 251.044 265.207 252.352C265.207 265.429 265.207 278.387 265.207 291.464C265.207 293.722 264.493 295.624 262.829 297.17C246.067 313.337 229.78 329.981 213.375 346.386C212.543 347.218 211.711 347.931 211.711 349.358C211.711 351.736 209.927 353.638 207.788 353.875C205.767 354.113 203.032 352.568 202.319 350.547C201.606 348.645 202.438 346.029 204.697 345.078C208.025 343.652 210.046 340.918 212.305 338.659C227.403 323.68 242.382 308.701 257.36 293.722C258.074 293.009 258.787 292.296 258.787 291.107C258.787 279.576 258.787 268.044 258.787 256.513C258.787 256.156 258.787 255.8 258.549 254.967C254.983 258.534 251.654 261.744 248.326 265.072C242.263 271.016 236.319 277.079 230.256 283.023C229.305 283.974 228.829 284.925 228.829 286.352C228.829 292.296 228.829 298.359 228.829 304.303C228.829 305.729 228.354 306.799 227.403 307.869C225.857 309.414 224.431 310.96 222.885 312.505C221.578 313.694 220.389 314.764 220.032 316.785C219.794 318.33 218.249 319.638 216.347 319.163C214.801 318.806 213.494 317.974 213.494 315.953C213.494 314.051 213.85 312.624 215.99 312.386C217.773 312.149 218.725 310.722 219.913 309.771C223.836 306.68 225.857 302.876 225.025 297.645C224.669 295.505 225.025 293.128 225.025 290.988C225.025 290.394 225.382 289.561 224.55 289.324C224.074 289.324 223.48 289.68 223.004 290.275C217.417 295.981 211.354 301.331 206.004 307.393C202.319 311.554 198.515 313.456 193.047 312.743C190.312 312.386 187.459 312.743 184.606 312.743C182.585 312.743 180.564 312.624 178.781 314.17C177.235 315.477 175.809 314.17 174.858 312.862C173.788 311.554 173.788 310.128 174.858 308.82C175.928 307.631 177.117 306.324 178.781 307.512C180.564 308.82 182.347 308.939 184.368 308.82C188.41 308.82 192.333 308.82 196.375 308.82C197.921 308.82 199.109 308.463 200.298 307.275C212.781 294.673 225.382 282.191 237.864 269.709C238.459 269.114 239.528 268.639 239.172 267.806C238.934 267.093 237.745 267.45 237.032 267.45C228.473 267.45 219.913 267.45 211.354 267.45C209.214 267.45 207.55 266.737 206.123 265.31C200.298 259.485 194.473 253.66 188.648 247.835C187.578 246.765 186.627 246.289 185.2 246.408C181.872 246.408 178.543 246.408 175.096 246.408C174.382 246.408 173.669 246.646 173.075 246.051C171.648 244.625 170.222 243.674 168.082 243.198C166.299 242.842 165.942 240.94 166.299 239.038C166.655 237.254 167.844 236.66 169.508 236.66C171.529 236.66 172.837 237.611 173.075 239.394C173.431 241.891 174.739 242.723 177.117 242.604C179.97 242.604 182.942 242.723 185.795 242.604C188.172 242.485 189.718 243.198 191.382 244.863C196.97 250.569 202.676 256.156 208.263 261.862C209.214 262.814 210.165 263.051 211.354 263.051C215.158 263.051 219.081 263.051 222.885 263.17C223.361 263.17 223.836 263.17 224.074 262.695C224.193 262.219 223.836 262.1 223.599 261.744C221.815 260.079 220.151 258.534 218.606 256.751C218.011 256.037 217.179 256.156 216.466 255.919C215.158 255.324 213.613 254.849 213.494 252.947C213.375 251.282 213.494 249.856 215.396 249.023C217.298 248.191 219.913 249.261 220.151 251.401C220.27 252.709 220.864 253.422 221.815 254.373C224.312 256.751 226.571 259.247 228.948 261.625C229.899 262.576 230.85 263.051 232.277 263.051C235.843 263.051 239.291 263.051 242.857 263.051C244.284 263.051 245.235 262.576 246.186 261.625C249.99 257.821 254.507 254.373 257.479 250.093C262.71 242.485 270.199 237.017 276.143 230.24C276.619 229.765 277.095 229.289 276.857 228.695C276.5 227.982 275.549 228.338 274.955 228.338C255.577 228.338 236.2 228.338 216.941 228.338C215.039 228.338 213.613 227.863 212.186 226.436C209.571 223.702 206.718 221.324 204.221 218.471C202.795 216.926 201.487 216.45 199.466 216.45C170.103 216.45 140.739 216.45 111.376 216.45C77.9708 216.45 44.5656 216.45 11.1604 216.45C9.73382 216.45 8.30726 216.45 6.8807 217.401C5.21638 218.471 2.12551 217.401 0.936709 215.856C-0.370969 214.073 -0.252089 211.695 0.936709 210.031C2.36327 208.248 4.62198 207.653 6.76182 208.961C8.42614 209.912 9.97157 210.031 11.7548 210.031C74.7611 210.031 137.767 210.031 200.774 210.031C203.27 210.031 205.291 210.506 206.955 212.646C208.382 214.548 210.403 215.856 211.948 217.758C215.039 221.562 218.725 222.751 223.717 222.632C240.717 222.276 257.717 222.513 274.836 222.513C275.549 222.513 276.5 222.989 276.976 222.038C277.332 221.087 276.381 220.611 275.906 220.136C270.081 214.311 264.255 208.604 258.43 202.779C257.479 201.828 256.409 201.353 254.983 201.353C247.493 201.353 240.004 201.353 232.396 201.353C230.85 201.353 229.78 200.877 228.71 199.807C224.431 195.409 219.913 191.129 215.634 186.73C214.326 185.304 213.613 185.423 212.305 186.73C208.976 190.178 205.41 193.269 202.081 196.716C200.417 198.5 198.634 199.094 196.256 199.094C159.285 199.094 122.432 199.094 85.4603 199.094C83.9148 199.094 82.4883 199.094 80.9428 200.045C79.6351 200.877 77.7331 200.758 76.6632 199.213C75.5932 197.786 75.5932 196.003 76.6632 194.577C77.852 193.15 79.6351 193.031 81.0617 193.982C82.6071 194.933 84.2715 195.29 86.0547 195.29C122.313 195.29 158.69 195.29 194.949 195.29C197.088 195.29 198.634 194.577 200.06 193.15C202.914 190.297 205.885 187.682 208.739 184.947L208.144 183.996L209.214 183.64Z" stroke="#3F2771" stroke-width="2" mask="url(#path-1-inside-1_19_519)"/>
<mask id="path-2-inside-2_19_519" fill="white">
<path d="M403.463 399.881C389.792 399.287 376.715 394.413 366.254 383.832C360.786 378.245 357.1 371.469 355.079 363.861C353.058 356.49 351.988 349.001 352.464 341.511C352.821 335.567 353.415 329.742 354.96 323.917C355.911 320.351 356.744 316.665 357.814 313.099C358.289 311.435 356.625 309.77 356.03 308.106C353.415 301.924 351.513 295.624 350.324 289.085C349.016 282.071 348.184 275.057 348.779 267.925C349.254 262.218 349.849 256.512 351.275 250.806C352.821 244.505 354.485 238.323 357.1 232.498C357.576 231.428 356.506 230.596 355.911 229.764C348.66 219.422 347.233 207.89 348.779 195.883C349.967 187.086 353.534 178.884 358.408 171.394C360.072 168.779 360.191 167.114 358.646 164.499C355.079 158.436 352.821 151.898 351.156 145.003C349.135 136.562 348.898 128.003 349.611 119.563C350.205 112.786 351.394 106.01 354.009 99.5907C354.485 98.283 354.604 97.0942 353.653 95.6677C349.73 89.367 347.59 82.5909 346.163 75.3392C345.569 71.8917 345.331 68.4442 344.856 65.1156C344.142 59.8848 345.45 54.773 346.877 49.6612C347.114 48.829 347.233 48.1157 347.233 47.2836C347.59 34.8012 352.107 23.8643 360.667 14.8294C365.065 10.0742 370.653 6.74556 376.953 4.60573C384.918 1.87149 393.24 0.563814 401.561 1.03933C417.61 1.87149 431.876 6.98333 441.98 20.2979C443.526 22.3188 444.834 22.5566 447.211 21.7244C449.826 20.8923 452.68 21.0111 455.414 21.6055C464.805 23.3887 472.414 28.2628 478.477 35.2767C484.302 41.8151 488.581 49.3045 490.721 57.9828C491.791 62.3813 492.623 66.7799 492.385 71.2973C492.385 72.8427 491.434 74.1504 491.434 75.8147C491.434 76.7658 491.672 77.3602 492.742 77.8357C500.232 80.5699 506.057 85.5629 511.05 91.7446C515.686 97.5697 518.896 104.108 521.273 111.003C522.819 115.402 523.889 120.038 524.602 124.674C526.028 133.709 526.623 142.744 526.385 151.898C526.385 152.611 526.504 153.205 527.098 153.8C529.833 157.129 531.616 160.933 531.497 165.331C531.497 168.898 531.854 172.464 530.427 175.793C529.595 177.933 530.903 179.835 531.378 181.856C532.686 186.254 533.637 190.772 534.469 195.408C535.42 200.282 535.777 205.156 535.895 210.03C536.133 217.995 535.063 225.841 533.399 233.687C530.189 249.023 523.77 262.813 514.735 275.533C513.903 276.722 513.189 278.148 512.12 279.099C509.742 281.239 510.099 283.498 511.169 285.994C512.476 289.442 513.189 293.008 513.903 296.575C514.735 300.498 514.854 304.421 514.735 308.344C514.497 319.281 510.931 329.029 504.511 337.707C495.476 349.833 483.351 357.917 469.798 364.098C464.805 366.357 459.694 368.497 454.225 369.923C453.036 370.28 452.204 371.231 451.61 372.182C444.715 382.406 435.799 390.371 424.743 395.72C421.058 397.504 417.016 398.573 412.855 399.168C410.002 399.643 407.268 399.762 403.344 400L403.463 399.881ZM355.436 35.5145C356.744 35.3956 357.219 34.5634 358.051 34.2068C359.24 33.7313 360.191 32.3047 361.974 33.3746C364.59 35.039 364.709 37.1788 361.974 39.0809C354.604 44.3116 351.632 51.6821 351.275 60.2415C351.037 66.1855 351.751 71.8917 353.177 77.7168C354.247 82.3531 355.793 86.6328 358.17 90.6747C360.072 94.0033 362.569 96.7376 365.66 98.9963C367.205 100.185 367.681 101.849 366.848 103.633C365.897 105.416 364.233 104.94 362.688 104.584C362.093 104.465 361.499 103.87 361.023 103.395C359.953 102.444 359.478 102.444 359.002 103.989C356.506 111.36 355.674 119.087 355.555 126.695C355.436 132.996 356.149 139.534 357.932 145.716C359.478 150.828 361.261 155.821 363.758 160.576C364.471 162.003 365.065 161.289 365.66 160.933C366.135 160.695 366.373 160.101 366.73 159.744C368.394 157.842 370.415 157.485 371.841 158.793C373.268 160.101 373.149 162.121 371.366 164.024C368.632 166.877 366.373 170.086 364.233 173.296C363.044 175.198 361.142 176.981 361.023 179.24C360.667 188.037 360.429 196.834 363.995 205.156C367.443 213.24 373.506 218.114 382.659 218.589C386.107 218.708 389.436 218.352 392.764 217.401C395.617 216.687 398.352 215.38 400.016 212.764C402.393 208.96 401.918 205.037 400.016 201.471C397.163 196.24 391.1 191.366 383.373 194.338C381.233 195.17 379.687 196.953 379.569 199.331C379.569 203.254 380.757 206.226 384.324 208.247C385.156 208.722 386.701 209.317 386.107 210.862C385.394 212.527 383.967 212.289 382.659 211.813C380.282 210.862 378.736 208.96 377.429 206.82C374.932 202.778 374.338 194.932 379.687 191.841C384.443 189.107 389.317 188.513 394.31 190.772C400.372 193.625 403.939 198.38 405.484 205.156C406.792 211.219 402.75 217.401 398.352 219.54C392.883 222.275 386.939 222.869 380.995 222.394C376.121 221.918 371.604 220.373 367.918 216.925C362.212 211.932 359.716 205.394 358.289 198.142C357.814 195.646 357.576 193.03 357.219 190.058C355.198 192.911 355.079 195.764 354.723 198.499C353.534 208.009 355.674 216.925 360.667 225.128C361.855 227.149 363.163 229.17 365.66 230.358C372.673 233.806 380.282 234.044 387.771 234.876C394.191 235.589 400.491 234.282 406.911 233.925C409.051 233.806 411.191 233.449 413.33 232.974C418.68 231.666 424.148 230.477 429.379 228.338C435.323 225.841 441.029 223.107 445.19 218.114C451.015 211.338 453.987 202.897 457.673 194.932C461.714 186.135 465.519 177.338 470.63 169.135C475.505 161.052 481.33 153.681 489.889 148.926C494.882 146.073 500.35 144.765 505.938 144.884C510.217 144.884 514.497 145.835 518.539 147.618C520.56 148.45 520.441 147.38 520.441 146.192C520.203 140.366 520.441 134.422 519.49 128.597C518.42 121.94 516.994 115.521 514.497 109.22C510.455 99.1152 504.63 90.5558 494.882 84.9685C490.602 82.472 490.127 82.472 487.274 86.1573C482.637 92.1013 476.574 95.7865 469.323 98.0453C462.428 100.185 455.652 99.8285 448.994 97.5697C442.099 95.1921 436.036 91.1502 431.876 85.0874C428.19 79.7378 425.337 73.9127 427.596 67.0176C427.834 66.4232 427.953 65.5911 427.358 64.8778C420.463 67.8498 415.827 72.8427 414.281 80.0944C413.211 85.3251 413.568 90.7936 415.351 95.9054C417.016 100.779 418.086 105.772 418.68 110.765C419.631 118.493 418.323 126.101 413.806 132.758C413.449 133.353 412.974 133.828 413.211 134.422C414.163 136.562 414.638 138.94 415.232 141.199C417.016 147.975 417.729 154.751 416.065 161.646C414.4 169.017 405.603 175.674 397.044 171.751C392.051 169.492 388.485 163.31 391.694 158.198C395.261 152.492 401.918 149.877 407.149 155.94C408.219 157.247 409.526 158.793 407.624 160.219C405.722 161.765 405.128 159.387 404.177 158.555C401.799 156.296 400.967 155.821 398.233 157.129C395.855 158.317 394.191 161.17 394.547 163.191C395.142 165.688 398.352 168.422 401.086 168.66C407.743 169.254 411.904 164.38 412.855 158.08C413.568 153.087 412.855 148.094 411.785 143.22C411.428 141.555 411.309 139.772 410.358 138.227C409.645 137.038 409.17 137.157 408.456 137.632C402.275 141.912 395.498 142.625 388.366 140.485C385.275 139.534 382.778 137.394 381.946 134.304C379.569 124.912 386.939 114.094 397.638 116.234C399.421 116.591 401.324 117.185 402.037 118.968C402.512 120.038 402.631 121.465 401.324 122.416C399.897 123.486 398.352 123.248 397.044 122.535C395.617 121.702 394.072 121.583 392.883 122.297C390.387 123.604 388.603 125.744 387.771 128.479C387.058 130.856 388.128 133.709 390.03 134.422C394.072 136.087 398.233 135.849 402.156 134.066C405.722 132.402 408.337 129.786 410.24 126.101C412.142 122.416 412.617 118.493 412.498 114.688C412.498 111.479 412.023 108.15 411.309 104.94C410.121 99.7096 408.456 94.7166 407.624 89.367C406.911 84.9685 407.624 80.8077 408.456 76.7658C409.645 71.4162 412.855 67.2554 416.897 63.689C417.253 63.3324 417.729 63.2135 417.61 62.6191C417.491 61.9058 416.897 61.7869 416.302 61.7869C414.163 61.7869 412.142 61.3114 410.121 60.8359C406.316 60.0037 402.512 59.0527 399.184 57.0317C392.051 52.7521 384.68 50.85 376.359 52.7521C370.89 54.0597 365.66 60.5981 366.373 66.1855C367.324 73.556 373.149 77.8357 380.163 77.1224C382.184 76.8847 384.68 74.8637 384.68 72.2483C384.68 69.1575 383.254 67.1365 381.114 65.4722C380.163 64.64 378.974 63.9268 380.163 62.3813C381.233 61.0736 382.303 61.4303 383.492 62.3813C384.799 63.3324 385.869 64.4023 386.82 65.71C389.911 69.9896 389.554 78.1923 382.897 80.451C377.31 82.3531 372.436 81.0455 368.156 77.5979C363.52 73.7938 361.618 68.9197 362.925 62.8568C363.995 57.745 366.254 53.5842 370.771 50.7311C372.555 49.5423 374.576 49.3045 376.597 48.7101C380.163 47.7591 383.61 48.1157 387.177 48.4724C387.652 48.4724 388.247 49.0668 388.722 48.7101C389.317 48.2346 388.722 47.6402 388.603 47.1647C386.701 41.5774 386.701 35.99 388.603 30.4026C390.981 22.9132 399.184 18.5147 406.554 21.0111C413.568 23.3887 419.155 30.2838 415.946 38.7242C415.232 40.7452 414.044 41.5774 412.023 41.2207C409.883 40.8641 409.645 39.1998 410.002 37.5354C410.239 36.2278 411.072 34.8012 410.834 33.6124C410.002 28.5006 404.058 25.0531 399.065 27.3118C396.093 28.7383 395.023 31.2348 394.072 34.0879C392.526 38.4865 393.715 44.7871 397.044 48.1157C400.848 51.9199 405.722 53.7031 410.715 54.773C417.372 56.1996 424.03 57.0317 430.925 56.794C432.708 56.794 434.134 56.3184 435.561 55.1297C439.246 52.2765 443.645 50.85 448.281 51.0877C454.344 51.5633 459.931 53.7031 464.33 57.9828C467.658 61.1925 469.798 65.3533 468.253 70.1085C466.232 76.4091 461.001 79.0245 455.176 80.8077C453.274 81.4021 451.847 80.0944 451.253 78.549C450.659 77.0035 451.491 75.6959 453.155 74.9826C455.652 74.0315 458.267 73.3183 460.169 71.2973C462.547 68.8008 463.022 67.0176 461.001 64.0456C457.673 59.0527 448.994 55.724 441.98 58.4583C435.799 60.9548 431.519 68.6819 433.54 74.7448C436.869 84.8496 446.855 91.388 456.246 92.5768C461.833 93.2901 467.421 92.4579 472.533 89.7237C479.309 86.2762 484.421 81.2832 485.728 73.6749C486.917 67.2554 486.204 60.5981 483.707 54.4164C480.141 45.6193 474.91 38.011 467.183 32.4236C462.547 29.095 457.435 26.8363 451.491 27.074C448.4 27.1929 445.428 28.0251 442.456 28.3817C441.148 28.5006 440.078 28.8572 439.127 29.8082C435.918 32.6614 434.372 36.2278 434.372 40.5074C434.372 41.8151 434.372 43.1228 432.47 43.1228C430.687 43.1228 430.449 41.934 430.449 40.5074C430.449 34.9201 432.47 30.1649 436.987 26.5985C438.533 25.2908 438.414 24.4587 437.225 23.151C429.141 13.284 418.561 8.291 406.079 7.1022C399.659 6.50781 393.24 6.50781 386.82 7.81548C380.757 9.00428 375.051 11.0252 370.058 14.7105C363.044 19.8223 358.527 26.5985 355.911 35.039L355.436 35.5145ZM431.638 325.343C431.638 325.343 431.281 324.63 431.162 324.511C430.687 324.036 430.211 323.56 429.736 323.085C424.505 318.567 421.771 313.099 422.365 305.966C422.96 298.952 427.358 292.652 435.918 293.603C441.624 294.316 447.211 300.498 446.617 306.204C446.141 312.029 443.883 314.644 438.176 315.833C436.512 316.19 434.967 315.358 433.54 314.882C432.827 314.644 432.946 313.337 433.183 312.623C433.659 311.435 434.729 311.197 436.036 311.435C441.029 312.148 442.337 310.127 442.099 306.204C442.099 305.491 442.099 304.777 442.099 304.064C442.099 299.903 435.561 295.742 430.806 298.239C427.12 300.26 424.862 307.036 426.526 311.672C428.547 317.26 435.085 324.63 443.407 324.868C448.4 324.987 452.442 327.721 455.414 331.763C457.791 334.973 458.861 338.777 459.694 342.7C461.001 348.644 459.218 354.112 458.148 359.7C458.029 360.294 457.197 361.007 457.791 361.602C458.267 362.196 459.218 361.84 459.812 361.602C463.26 360.056 466.707 358.63 470.155 356.965C481.567 351.259 491.91 344.245 499.637 333.903C505.938 325.343 508.672 315.833 508.91 305.372C508.91 303.113 508.078 300.973 508.078 298.714C508.078 296.456 507.364 294.435 506.77 292.414C505.581 288.015 504.036 283.617 502.134 279.575C500.113 275.176 497.973 270.659 493.931 267.687C487.393 262.813 480.141 261.029 471.938 262.456C466.232 263.407 461.12 265.309 456.484 268.638C453.393 270.896 450.659 273.75 449.945 277.435C448.519 284.449 449.945 290.749 455.295 296.099C459.694 300.616 465.043 303.351 471.106 304.302C475.623 305.015 480.379 305.015 484.302 301.568C487.274 298.952 488.581 295.742 489.057 291.819C489.532 287.421 488.819 283.617 485.847 280.407C483.351 277.673 479.903 276.959 476.218 277.197C474.435 277.316 473.246 276.603 473.127 274.582C473.127 272.68 473.721 271.491 475.742 271.253C487.274 269.945 494.288 277.673 495.476 287.777C495.952 291.819 495.12 295.624 493.574 299.309C491.078 304.896 486.798 309.057 480.616 310.008C474.91 310.84 469.204 310.721 463.498 308.463C453.512 304.421 446.379 298.001 443.645 287.183C441.862 279.812 443.407 273.274 448.043 267.687C454.582 260.078 463.498 256.512 473.365 255.68C479.309 255.204 485.253 255.561 490.721 258.295C491.197 258.533 491.672 258.533 492.148 258.295C492.623 258.057 492.385 257.582 492.267 257.225C490.602 251.519 490.483 245.813 492.623 240.344C495.357 233.212 503.441 226.317 512.12 233.33C518.42 238.323 520.798 248.428 512.952 254.372C509.98 256.512 506.651 257.82 503.085 256.274C498.211 254.134 497.141 248.547 499.994 243.792C501.301 241.533 503.085 240.107 505.819 240.344C506.889 240.344 508.197 240.939 508.197 242.484C508.197 244.149 507.127 244.267 505.938 244.149C503.679 244.149 503.085 246.051 502.49 247.596C501.896 249.26 502.49 250.806 503.917 251.995C505.343 253.183 506.77 252.946 508.197 252.232C515.092 249.141 515.448 243.198 511.05 237.848C509.148 235.589 506.77 233.568 503.798 234.282C500.232 235.114 497.735 237.729 496.427 241.177C494.169 247.121 495.12 253.183 496.665 259.246C497.022 260.435 497.141 261.981 498.448 263.05C501.896 265.904 504.392 269.351 506.294 273.512C506.77 274.463 507.245 275.057 508.434 273.512C511.644 269.351 514.378 265.071 516.875 260.435C520.679 253.54 523.77 246.288 525.91 238.561C527.693 232.498 529.119 226.317 529.476 220.016C530.189 208.603 529.714 197.31 526.623 186.254C526.028 184.233 525.434 183.876 523.77 185.303C517.826 190.296 510.812 189.939 503.917 188.988C501.777 188.751 499.518 187.918 497.497 186.611C489.295 181.38 488.462 170.919 493.099 163.667C497.141 157.366 502.134 154.751 507.84 156.059C509.623 156.415 511.287 158.317 510.931 159.744C510.455 161.646 509.029 162.478 507.127 162.121C504.036 161.408 501.658 162.835 499.875 165.093C495.239 170.443 494.644 176.981 500.588 181.142C504.036 183.639 508.434 183.876 512.595 183.401C516.28 183.044 519.371 181.38 521.749 178.527C525.315 174.128 526.385 169.135 525.434 163.667C524.84 159.982 523.056 156.772 519.371 154.87C516.756 153.562 514.022 152.611 511.169 151.898C505.819 150.59 500.588 150.828 495.357 152.849C489.77 154.989 485.49 158.912 481.805 163.429C474.078 172.821 469.323 183.876 464.092 194.695C459.218 205.037 455.889 216.212 447.092 224.296C446.736 224.652 446.617 225.009 446.855 225.366C447.092 225.96 447.449 225.366 447.806 225.366C449.826 225.128 451.729 224.771 453.75 224.296C459.694 222.988 465.756 223.226 471.7 222.394C477.763 221.561 483.588 219.897 488.938 217.163C492.029 215.499 495.239 213.478 496.19 209.792C497.141 206.107 496.427 202.541 493.218 200.163C489.889 197.667 485.966 196.834 482.043 198.261C478.001 199.687 475.98 202.897 475.861 207.177C475.861 208.603 475.505 209.555 473.84 209.555C472.057 209.555 471.938 208.485 471.938 207.058C471.938 204.799 472.651 202.778 473.602 200.639C477.288 192.317 490.008 191.841 496.309 197.548C502.253 202.897 502.371 213.478 493.455 219.184C485.728 224.058 477.169 225.96 468.372 226.792C462.784 227.268 457.197 227.743 451.61 228.813C444.358 230.121 437.225 232.023 430.33 234.757C419.75 238.799 410.358 244.505 403.107 253.302C395.974 261.981 391.338 271.848 392.17 283.379C392.408 286.945 394.191 289.917 397.044 292.295C401.086 295.624 405.722 295.624 410.477 295.029C414.163 294.554 417.729 290.987 418.323 288.015C419.631 281.12 414.163 275.295 407.862 275.652C405.484 275.771 403.344 276.603 401.324 277.792C400.135 278.505 398.827 278.505 398.114 277.435C397.4 276.365 397.876 275.176 399.184 274.463C404.771 270.896 412.974 270.659 418.204 275.771C424.267 281.833 424.148 292.176 416.54 296.812C411.428 299.903 405.841 299.903 400.135 298.477C394.072 296.931 388.366 290.036 388.128 282.784C388.009 277.554 388.96 272.561 390.387 267.568C390.387 267.211 391.338 266.855 390.743 266.379C390.268 266.022 389.792 266.379 389.317 266.617C383.848 269.47 378.499 271.61 371.96 270.064C365.541 268.638 361.618 263.764 362.925 257.225C364.471 249.141 372.911 243.911 380.757 249.498C383.967 251.757 385.275 254.61 384.443 258.057C384.086 259.484 383.135 260.554 381.708 261.148C381.114 261.386 380.044 261.505 379.687 260.792C379.093 259.603 379.331 258.414 380.282 257.225C380.876 256.393 380.876 255.323 380.044 254.372C376.953 250.806 371.96 249.617 368.394 254.372C366.254 257.225 365.541 262.337 368.75 264.358C371.96 266.379 375.17 267.211 379.093 266.379C386.582 264.834 392.408 260.673 396.925 254.967C401.086 249.736 405.484 244.981 410.834 241.058C411.547 240.463 411.904 239.988 412.26 239.393C406.792 239.869 401.68 240.939 396.331 240.939C389.911 240.939 383.61 241.177 377.191 240.107C372.673 239.393 368.275 238.442 364.114 236.54C362.45 235.827 361.737 236.421 361.38 237.491C359.834 242.365 358.17 247.121 357.1 252.113C356.625 254.491 356.506 256.869 355.911 259.246C354.723 264.12 354.723 269.113 354.842 273.869C354.842 278.029 355.079 282.428 356.03 286.826C357.1 291.463 358.17 296.099 359.716 300.616C361.499 305.728 363.995 310.483 366.73 315.239C368.275 317.854 366.848 319.994 363.758 319.994C362.925 319.994 362.331 319.994 361.974 321.064C360.548 325.581 360.191 330.336 359.24 334.973C359.002 336.28 358.883 337.826 359.24 339.134H359.716C359.716 339.134 360.31 338.539 360.429 338.182C366.611 330.099 374.338 327.008 384.561 329.385C394.31 331.644 403.463 341.749 400.135 353.399C398.827 357.917 396.568 361.721 392.883 364.693C389.436 367.427 385.394 368.853 381.114 369.805C376.715 370.756 373.149 369.686 369.82 366.951C364.946 363.028 364.827 353.518 367.443 348.763C369.464 344.959 372.198 342.581 376.834 342.938C378.261 343.057 379.45 343.532 379.331 345.078C379.331 346.385 378.142 346.98 376.715 346.861C375.645 346.861 374.576 346.861 373.506 347.455C368.75 350.427 368.632 359.343 371.366 362.672C373.981 365.763 376.953 366.357 380.876 365.644C386.82 364.455 391.575 361.721 394.547 356.49C397.044 352.329 397.638 347.812 395.617 342.938C392.408 334.854 380.638 330.455 373.03 333.071C364.946 335.924 358.17 345.077 359.121 353.399C359.359 355.896 360.072 358.392 360.667 360.889C363.044 369.567 367.443 376.818 374.338 382.406C380.876 387.755 388.366 390.965 396.568 392.392C400.729 393.105 405.009 393.699 409.526 392.748C414.044 391.916 418.442 391.084 422.484 389.063C433.302 383.713 441.505 375.867 447.806 365.525C451.847 358.868 453.868 352.091 453.393 344.483C452.917 338.182 450.778 332.952 443.883 330.931C436.987 328.91 430.33 330.812 426.645 336.28C424.862 338.896 424.267 341.987 425.575 344.959C427.002 348.05 429.974 348.882 433.183 348.882C437.225 348.882 438.652 346.504 436.987 342.7C436.155 340.798 436.987 339.371 438.652 338.42C440.197 337.469 441.624 338.182 442.456 339.371C444.477 342.462 444.834 349.595 440.554 352.686C437.225 355.182 433.778 355.539 429.498 354.707C422.722 353.399 416.897 346.504 419.037 338.658C420.82 331.763 425.218 327.602 431.519 324.749L431.638 325.343Z"/>
</mask>
<path d="M403.463 399.881C389.792 399.287 376.715 394.413 366.254 383.832C360.786 378.245 357.1 371.469 355.079 363.861C353.058 356.49 351.988 349.001 352.464 341.511C352.821 335.567 353.415 329.742 354.96 323.917C355.911 320.351 356.744 316.665 357.814 313.099C358.289 311.435 356.625 309.77 356.03 308.106C353.415 301.924 351.513 295.624 350.324 289.085C349.016 282.071 348.184 275.057 348.779 267.925C349.254 262.218 349.849 256.512 351.275 250.806C352.821 244.505 354.485 238.323 357.1 232.498C357.576 231.428 356.506 230.596 355.911 229.764C348.66 219.422 347.233 207.89 348.779 195.883C349.967 187.086 353.534 178.884 358.408 171.394C360.072 168.779 360.191 167.114 358.646 164.499C355.079 158.436 352.821 151.898 351.156 145.003C349.135 136.562 348.898 128.003 349.611 119.563C350.205 112.786 351.394 106.01 354.009 99.5907C354.485 98.283 354.604 97.0942 353.653 95.6677C349.73 89.367 347.59 82.5909 346.163 75.3392C345.569 71.8917 345.331 68.4442 344.856 65.1156C344.142 59.8848 345.45 54.773 346.877 49.6612C347.114 48.829 347.233 48.1157 347.233 47.2836C347.59 34.8012 352.107 23.8643 360.667 14.8294C365.065 10.0742 370.653 6.74556 376.953 4.60573C384.918 1.87149 393.24 0.563814 401.561 1.03933C417.61 1.87149 431.876 6.98333 441.98 20.2979C443.526 22.3188 444.834 22.5566 447.211 21.7244C449.826 20.8923 452.68 21.0111 455.414 21.6055C464.805 23.3887 472.414 28.2628 478.477 35.2767C484.302 41.8151 488.581 49.3045 490.721 57.9828C491.791 62.3813 492.623 66.7799 492.385 71.2973C492.385 72.8427 491.434 74.1504 491.434 75.8147C491.434 76.7658 491.672 77.3602 492.742 77.8357C500.232 80.5699 506.057 85.5629 511.05 91.7446C515.686 97.5697 518.896 104.108 521.273 111.003C522.819 115.402 523.889 120.038 524.602 124.674C526.028 133.709 526.623 142.744 526.385 151.898C526.385 152.611 526.504 153.205 527.098 153.8C529.833 157.129 531.616 160.933 531.497 165.331C531.497 168.898 531.854 172.464 530.427 175.793C529.595 177.933 530.903 179.835 531.378 181.856C532.686 186.254 533.637 190.772 534.469 195.408C535.42 200.282 535.777 205.156 535.895 210.03C536.133 217.995 535.063 225.841 533.399 233.687C530.189 249.023 523.77 262.813 514.735 275.533C513.903 276.722 513.189 278.148 512.12 279.099C509.742 281.239 510.099 283.498 511.169 285.994C512.476 289.442 513.189 293.008 513.903 296.575C514.735 300.498 514.854 304.421 514.735 308.344C514.497 319.281 510.931 329.029 504.511 337.707C495.476 349.833 483.351 357.917 469.798 364.098C464.805 366.357 459.694 368.497 454.225 369.923C453.036 370.28 452.204 371.231 451.61 372.182C444.715 382.406 435.799 390.371 424.743 395.72C421.058 397.504 417.016 398.573 412.855 399.168C410.002 399.643 407.268 399.762 403.344 400L403.463 399.881ZM355.436 35.5145C356.744 35.3956 357.219 34.5634 358.051 34.2068C359.24 33.7313 360.191 32.3047 361.974 33.3746C364.59 35.039 364.709 37.1788 361.974 39.0809C354.604 44.3116 351.632 51.6821 351.275 60.2415C351.037 66.1855 351.751 71.8917 353.177 77.7168C354.247 82.3531 355.793 86.6328 358.17 90.6747C360.072 94.0033 362.569 96.7376 365.66 98.9963C367.205 100.185 367.681 101.849 366.848 103.633C365.897 105.416 364.233 104.94 362.688 104.584C362.093 104.465 361.499 103.87 361.023 103.395C359.953 102.444 359.478 102.444 359.002 103.989C356.506 111.36 355.674 119.087 355.555 126.695C355.436 132.996 356.149 139.534 357.932 145.716C359.478 150.828 361.261 155.821 363.758 160.576C364.471 162.003 365.065 161.289 365.66 160.933C366.135 160.695 366.373 160.101 366.73 159.744C368.394 157.842 370.415 157.485 371.841 158.793C373.268 160.101 373.149 162.121 371.366 164.024C368.632 166.877 366.373 170.086 364.233 173.296C363.044 175.198 361.142 176.981 361.023 179.24C360.667 188.037 360.429 196.834 363.995 205.156C367.443 213.24 373.506 218.114 382.659 218.589C386.107 218.708 389.436 218.352 392.764 217.401C395.617 216.687 398.352 215.38 400.016 212.764C402.393 208.96 401.918 205.037 400.016 201.471C397.163 196.24 391.1 191.366 383.373 194.338C381.233 195.17 379.687 196.953 379.569 199.331C379.569 203.254 380.757 206.226 384.324 208.247C385.156 208.722 386.701 209.317 386.107 210.862C385.394 212.527 383.967 212.289 382.659 211.813C380.282 210.862 378.736 208.96 377.429 206.82C374.932 202.778 374.338 194.932 379.687 191.841C384.443 189.107 389.317 188.513 394.31 190.772C400.372 193.625 403.939 198.38 405.484 205.156C406.792 211.219 402.75 217.401 398.352 219.54C392.883 222.275 386.939 222.869 380.995 222.394C376.121 221.918 371.604 220.373 367.918 216.925C362.212 211.932 359.716 205.394 358.289 198.142C357.814 195.646 357.576 193.03 357.219 190.058C355.198 192.911 355.079 195.764 354.723 198.499C353.534 208.009 355.674 216.925 360.667 225.128C361.855 227.149 363.163 229.17 365.66 230.358C372.673 233.806 380.282 234.044 387.771 234.876C394.191 235.589 400.491 234.282 406.911 233.925C409.051 233.806 411.191 233.449 413.33 232.974C418.68 231.666 424.148 230.477 429.379 228.338C435.323 225.841 441.029 223.107 445.19 218.114C451.015 211.338 453.987 202.897 457.673 194.932C461.714 186.135 465.519 177.338 470.63 169.135C475.505 161.052 481.33 153.681 489.889 148.926C494.882 146.073 500.35 144.765 505.938 144.884C510.217 144.884 514.497 145.835 518.539 147.618C520.56 148.45 520.441 147.38 520.441 146.192C520.203 140.366 520.441 134.422 519.49 128.597C518.42 121.94 516.994 115.521 514.497 109.22C510.455 99.1152 504.63 90.5558 494.882 84.9685C490.602 82.472 490.127 82.472 487.274 86.1573C482.637 92.1013 476.574 95.7865 469.323 98.0453C462.428 100.185 455.652 99.8285 448.994 97.5697C442.099 95.1921 436.036 91.1502 431.876 85.0874C428.19 79.7378 425.337 73.9127 427.596 67.0176C427.834 66.4232 427.953 65.5911 427.358 64.8778C420.463 67.8498 415.827 72.8427 414.281 80.0944C413.211 85.3251 413.568 90.7936 415.351 95.9054C417.016 100.779 418.086 105.772 418.68 110.765C419.631 118.493 418.323 126.101 413.806 132.758C413.449 133.353 412.974 133.828 413.211 134.422C414.163 136.562 414.638 138.94 415.232 141.199C417.016 147.975 417.729 154.751 416.065 161.646C414.4 169.017 405.603 175.674 397.044 171.751C392.051 169.492 388.485 163.31 391.694 158.198C395.261 152.492 401.918 149.877 407.149 155.94C408.219 157.247 409.526 158.793 407.624 160.219C405.722 161.765 405.128 159.387 404.177 158.555C401.799 156.296 400.967 155.821 398.233 157.129C395.855 158.317 394.191 161.17 394.547 163.191C395.142 165.688 398.352 168.422 401.086 168.66C407.743 169.254 411.904 164.38 412.855 158.08C413.568 153.087 412.855 148.094 411.785 143.22C411.428 141.555 411.309 139.772 410.358 138.227C409.645 137.038 409.17 137.157 408.456 137.632C402.275 141.912 395.498 142.625 388.366 140.485C385.275 139.534 382.778 137.394 381.946 134.304C379.569 124.912 386.939 114.094 397.638 116.234C399.421 116.591 401.324 117.185 402.037 118.968C402.512 120.038 402.631 121.465 401.324 122.416C399.897 123.486 398.352 123.248 397.044 122.535C395.617 121.702 394.072 121.583 392.883 122.297C390.387 123.604 388.603 125.744 387.771 128.479C387.058 130.856 388.128 133.709 390.03 134.422C394.072 136.087 398.233 135.849 402.156 134.066C405.722 132.402 408.337 129.786 410.24 126.101C412.142 122.416 412.617 118.493 412.498 114.688C412.498 111.479 412.023 108.15 411.309 104.94C410.121 99.7096 408.456 94.7166 407.624 89.367C406.911 84.9685 407.624 80.8077 408.456 76.7658C409.645 71.4162 412.855 67.2554 416.897 63.689C417.253 63.3324 417.729 63.2135 417.61 62.6191C417.491 61.9058 416.897 61.7869 416.302 61.7869C414.163 61.7869 412.142 61.3114 410.121 60.8359C406.316 60.0037 402.512 59.0527 399.184 57.0317C392.051 52.7521 384.68 50.85 376.359 52.7521C370.89 54.0597 365.66 60.5981 366.373 66.1855C367.324 73.556 373.149 77.8357 380.163 77.1224C382.184 76.8847 384.68 74.8637 384.68 72.2483C384.68 69.1575 383.254 67.1365 381.114 65.4722C380.163 64.64 378.974 63.9268 380.163 62.3813C381.233 61.0736 382.303 61.4303 383.492 62.3813C384.799 63.3324 385.869 64.4023 386.82 65.71C389.911 69.9896 389.554 78.1923 382.897 80.451C377.31 82.3531 372.436 81.0455 368.156 77.5979C363.52 73.7938 361.618 68.9197 362.925 62.8568C363.995 57.745 366.254 53.5842 370.771 50.7311C372.555 49.5423 374.576 49.3045 376.597 48.7101C380.163 47.7591 383.61 48.1157 387.177 48.4724C387.652 48.4724 388.247 49.0668 388.722 48.7101C389.317 48.2346 388.722 47.6402 388.603 47.1647C386.701 41.5774 386.701 35.99 388.603 30.4026C390.981 22.9132 399.184 18.5147 406.554 21.0111C413.568 23.3887 419.155 30.2838 415.946 38.7242C415.232 40.7452 414.044 41.5774 412.023 41.2207C409.883 40.8641 409.645 39.1998 410.002 37.5354C410.239 36.2278 411.072 34.8012 410.834 33.6124C410.002 28.5006 404.058 25.0531 399.065 27.3118C396.093 28.7383 395.023 31.2348 394.072 34.0879C392.526 38.4865 393.715 44.7871 397.044 48.1157C400.848 51.9199 405.722 53.7031 410.715 54.773C417.372 56.1996 424.03 57.0317 430.925 56.794C432.708 56.794 434.134 56.3184 435.561 55.1297C439.246 52.2765 443.645 50.85 448.281 51.0877C454.344 51.5633 459.931 53.7031 464.33 57.9828C467.658 61.1925 469.798 65.3533 468.253 70.1085C466.232 76.4091 461.001 79.0245 455.176 80.8077C453.274 81.4021 451.847 80.0944 451.253 78.549C450.659 77.0035 451.491 75.6959 453.155 74.9826C455.652 74.0315 458.267 73.3183 460.169 71.2973C462.547 68.8008 463.022 67.0176 461.001 64.0456C457.673 59.0527 448.994 55.724 441.98 58.4583C435.799 60.9548 431.519 68.6819 433.54 74.7448C436.869 84.8496 446.855 91.388 456.246 92.5768C461.833 93.2901 467.421 92.4579 472.533 89.7237C479.309 86.2762 484.421 81.2832 485.728 73.6749C486.917 67.2554 486.204 60.5981 483.707 54.4164C480.141 45.6193 474.91 38.011 467.183 32.4236C462.547 29.095 457.435 26.8363 451.491 27.074C448.4 27.1929 445.428 28.0251 442.456 28.3817C441.148 28.5006 440.078 28.8572 439.127 29.8082C435.918 32.6614 434.372 36.2278 434.372 40.5074C434.372 41.8151 434.372 43.1228 432.47 43.1228C430.687 43.1228 430.449 41.934 430.449 40.5074C430.449 34.9201 432.47 30.1649 436.987 26.5985C438.533 25.2908 438.414 24.4587 437.225 23.151C429.141 13.284 418.561 8.291 406.079 7.1022C399.659 6.50781 393.24 6.50781 386.82 7.81548C380.757 9.00428 375.051 11.0252 370.058 14.7105C363.044 19.8223 358.527 26.5985 355.911 35.039L355.436 35.5145ZM431.638 325.343C431.638 325.343 431.281 324.63 431.162 324.511C430.687 324.036 430.211 323.56 429.736 323.085C424.505 318.567 421.771 313.099 422.365 305.966C422.96 298.952 427.358 292.652 435.918 293.603C441.624 294.316 447.211 300.498 446.617 306.204C446.141 312.029 443.883 314.644 438.176 315.833C436.512 316.19 434.967 315.358 433.54 314.882C432.827 314.644 432.946 313.337 433.183 312.623C433.659 311.435 434.729 311.197 436.036 311.435C441.029 312.148 442.337 310.127 442.099 306.204C442.099 305.491 442.099 304.777 442.099 304.064C442.099 299.903 435.561 295.742 430.806 298.239C427.12 300.26 424.862 307.036 426.526 311.672C428.547 317.26 435.085 324.63 443.407 324.868C448.4 324.987 452.442 327.721 455.414 331.763C457.791 334.973 458.861 338.777 459.694 342.7C461.001 348.644 459.218 354.112 458.148 359.7C458.029 360.294 457.197 361.007 457.791 361.602C458.267 362.196 459.218 361.84 459.812 361.602C463.26 360.056 466.707 358.63 470.155 356.965C481.567 351.259 491.91 344.245 499.637 333.903C505.938 325.343 508.672 315.833 508.91 305.372C508.91 303.113 508.078 300.973 508.078 298.714C508.078 296.456 507.364 294.435 506.77 292.414C505.581 288.015 504.036 283.617 502.134 279.575C500.113 275.176 497.973 270.659 493.931 267.687C487.393 262.813 480.141 261.029 471.938 262.456C466.232 263.407 461.12 265.309 456.484 268.638C453.393 270.896 450.659 273.75 449.945 277.435C448.519 284.449 449.945 290.749 455.295 296.099C459.694 300.616 465.043 303.351 471.106 304.302C475.623 305.015 480.379 305.015 484.302 301.568C487.274 298.952 488.581 295.742 489.057 291.819C489.532 287.421 488.819 283.617 485.847 280.407C483.351 277.673 479.903 276.959 476.218 277.197C474.435 277.316 473.246 276.603 473.127 274.582C473.127 272.68 473.721 271.491 475.742 271.253C487.274 269.945 494.288 277.673 495.476 287.777C495.952 291.819 495.12 295.624 493.574 299.309C491.078 304.896 486.798 309.057 480.616 310.008C474.91 310.84 469.204 310.721 463.498 308.463C453.512 304.421 446.379 298.001 443.645 287.183C441.862 279.812 443.407 273.274 448.043 267.687C454.582 260.078 463.498 256.512 473.365 255.68C479.309 255.204 485.253 255.561 490.721 258.295C491.197 258.533 491.672 258.533 492.148 258.295C492.623 258.057 492.385 257.582 492.267 257.225C490.602 251.519 490.483 245.813 492.623 240.344C495.357 233.212 503.441 226.317 512.12 233.33C518.42 238.323 520.798 248.428 512.952 254.372C509.98 256.512 506.651 257.82 503.085 256.274C498.211 254.134 497.141 248.547 499.994 243.792C501.301 241.533 503.085 240.107 505.819 240.344C506.889 240.344 508.197 240.939 508.197 242.484C508.197 244.149 507.127 244.267 505.938 244.149C503.679 244.149 503.085 246.051 502.49 247.596C501.896 249.26 502.49 250.806 503.917 251.995C505.343 253.183 506.77 252.946 508.197 252.232C515.092 249.141 515.448 243.198 511.05 237.848C509.148 235.589 506.77 233.568 503.798 234.282C500.232 235.114 497.735 237.729 496.427 241.177C494.169 247.121 495.12 253.183 496.665 259.246C497.022 260.435 497.141 261.981 498.448 263.05C501.896 265.904 504.392 269.351 506.294 273.512C506.77 274.463 507.245 275.057 508.434 273.512C511.644 269.351 514.378 265.071 516.875 260.435C520.679 253.54 523.77 246.288 525.91 238.561C527.693 232.498 529.119 226.317 529.476 220.016C530.189 208.603 529.714 197.31 526.623 186.254C526.028 184.233 525.434 183.876 523.77 185.303C517.826 190.296 510.812 189.939 503.917 188.988C501.777 188.751 499.518 187.918 497.497 186.611C489.295 181.38 488.462 170.919 493.099 163.667C497.141 157.366 502.134 154.751 507.84 156.059C509.623 156.415 511.287 158.317 510.931 159.744C510.455 161.646 509.029 162.478 507.127 162.121C504.036 161.408 501.658 162.835 499.875 165.093C495.239 170.443 494.644 176.981 500.588 181.142C504.036 183.639 508.434 183.876 512.595 183.401C516.28 183.044 519.371 181.38 521.749 178.527C525.315 174.128 526.385 169.135 525.434 163.667C524.84 159.982 523.056 156.772 519.371 154.87C516.756 153.562 514.022 152.611 511.169 151.898C505.819 150.59 500.588 150.828 495.357 152.849C489.77 154.989 485.49 158.912 481.805 163.429C474.078 172.821 469.323 183.876 464.092 194.695C459.218 205.037 455.889 216.212 447.092 224.296C446.736 224.652 446.617 225.009 446.855 225.366C447.092 225.96 447.449 225.366 447.806 225.366C449.826 225.128 451.729 224.771 453.75 224.296C459.694 222.988 465.756 223.226 471.7 222.394C477.763 221.561 483.588 219.897 488.938 217.163C492.029 215.499 495.239 213.478 496.19 209.792C497.141 206.107 496.427 202.541 493.218 200.163C489.889 197.667 485.966 196.834 482.043 198.261C478.001 199.687 475.98 202.897 475.861 207.177C475.861 208.603 475.505 209.555 473.84 209.555C472.057 209.555 471.938 208.485 471.938 207.058C471.938 204.799 472.651 202.778 473.602 200.639C477.288 192.317 490.008 191.841 496.309 197.548C502.253 202.897 502.371 213.478 493.455 219.184C485.728 224.058 477.169 225.96 468.372 226.792C462.784 227.268 457.197 227.743 451.61 228.813C444.358 230.121 437.225 232.023 430.33 234.757C419.75 238.799 410.358 244.505 403.107 253.302C395.974 261.981 391.338 271.848 392.17 283.379C392.408 286.945 394.191 289.917 397.044 292.295C401.086 295.624 405.722 295.624 410.477 295.029C414.163 294.554 417.729 290.987 418.323 288.015C419.631 281.12 414.163 275.295 407.862 275.652C405.484 275.771 403.344 276.603 401.324 277.792C400.135 278.505 398.827 278.505 398.114 277.435C397.4 276.365 397.876 275.176 399.184 274.463C404.771 270.896 412.974 270.659 418.204 275.771C424.267 281.833 424.148 292.176 416.54 296.812C411.428 299.903 405.841 299.903 400.135 298.477C394.072 296.931 388.366 290.036 388.128 282.784C388.009 277.554 388.96 272.561 390.387 267.568C390.387 267.211 391.338 266.855 390.743 266.379C390.268 266.022 389.792 266.379 389.317 266.617C383.848 269.47 378.499 271.61 371.96 270.064C365.541 268.638 361.618 263.764 362.925 257.225C364.471 249.141 372.911 243.911 380.757 249.498C383.967 251.757 385.275 254.61 384.443 258.057C384.086 259.484 383.135 260.554 381.708 261.148C381.114 261.386 380.044 261.505 379.687 260.792C379.093 259.603 379.331 258.414 380.282 257.225C380.876 256.393 380.876 255.323 380.044 254.372C376.953 250.806 371.96 249.617 368.394 254.372C366.254 257.225 365.541 262.337 368.75 264.358C371.96 266.379 375.17 267.211 379.093 266.379C386.582 264.834 392.408 260.673 396.925 254.967C401.086 249.736 405.484 244.981 410.834 241.058C411.547 240.463 411.904 239.988 412.26 239.393C406.792 239.869 401.68 240.939 396.331 240.939C389.911 240.939 383.61 241.177 377.191 240.107C372.673 239.393 368.275 238.442 364.114 236.54C362.45 235.827 361.737 236.421 361.38 237.491C359.834 242.365 358.17 247.121 357.1 252.113C356.625 254.491 356.506 256.869 355.911 259.246C354.723 264.12 354.723 269.113 354.842 273.869C354.842 278.029 355.079 282.428 356.03 286.826C357.1 291.463 358.17 296.099 359.716 300.616C361.499 305.728 363.995 310.483 366.73 315.239C368.275 317.854 366.848 319.994 363.758 319.994C362.925 319.994 362.331 319.994 361.974 321.064C360.548 325.581 360.191 330.336 359.24 334.973C359.002 336.28 358.883 337.826 359.24 339.134H359.716C359.716 339.134 360.31 338.539 360.429 338.182C366.611 330.099 374.338 327.008 384.561 329.385C394.31 331.644 403.463 341.749 400.135 353.399C398.827 357.917 396.568 361.721 392.883 364.693C389.436 367.427 385.394 368.853 381.114 369.805C376.715 370.756 373.149 369.686 369.82 366.951C364.946 363.028 364.827 353.518 367.443 348.763C369.464 344.959 372.198 342.581 376.834 342.938C378.261 343.057 379.45 343.532 379.331 345.078C379.331 346.385 378.142 346.98 376.715 346.861C375.645 346.861 374.576 346.861 373.506 347.455C368.75 350.427 368.632 359.343 371.366 362.672C373.981 365.763 376.953 366.357 380.876 365.644C386.82 364.455 391.575 361.721 394.547 356.49C397.044 352.329 397.638 347.812 395.617 342.938C392.408 334.854 380.638 330.455 373.03 333.071C364.946 335.924 358.17 345.077 359.121 353.399C359.359 355.896 360.072 358.392 360.667 360.889C363.044 369.567 367.443 376.818 374.338 382.406C380.876 387.755 388.366 390.965 396.568 392.392C400.729 393.105 405.009 393.699 409.526 392.748C414.044 391.916 418.442 391.084 422.484 389.063C433.302 383.713 441.505 375.867 447.806 365.525C451.847 358.868 453.868 352.091 453.393 344.483C452.917 338.182 450.778 332.952 443.883 330.931C436.987 328.91 430.33 330.812 426.645 336.28C424.862 338.896 424.267 341.987 425.575 344.959C427.002 348.05 429.974 348.882 433.183 348.882C437.225 348.882 438.652 346.504 436.987 342.7C436.155 340.798 436.987 339.371 438.652 338.42C440.197 337.469 441.624 338.182 442.456 339.371C444.477 342.462 444.834 349.595 440.554 352.686C437.225 355.182 433.778 355.539 429.498 354.707C422.722 353.399 416.897 346.504 419.037 338.658C420.82 331.763 425.218 327.602 431.519 324.749L431.638 325.343Z" stroke="#3F2771" stroke-width="2" mask="url(#path-2-inside-2_19_519)"/>
<path d="M445.615 118.116C445.503 118.127 445.397 118.139 445.293 118.151C445.094 118.173 444.904 118.195 444.705 118.207C444.412 118.224 444.166 118.214 443.968 118.16C443.782 118.11 443.647 118.025 443.546 117.885C443.439 117.738 443.338 117.483 443.311 117.039C443.258 116.076 443.525 115.692 443.827 115.496C444.194 115.258 444.766 115.19 445.547 115.19C445.99 115.19 446.435 115.172 446.867 115.155C446.998 115.149 447.127 115.144 447.255 115.14C447.813 115.119 448.349 115.109 448.871 115.144C449.907 115.214 450.872 115.462 451.781 116.157C452.686 116.849 453.38 117.995 453.745 119.23C454.112 120.471 454.121 121.713 453.762 122.584L453.759 122.591L453.757 122.598C453.649 122.885 453.544 123.17 453.441 123.452C452.494 126.028 451.637 128.36 449.415 129.977C445.489 132.779 441.444 131.811 437.583 129.705L437.579 129.703C434.065 127.829 430.975 125.29 429.49 121.408C428.625 119.102 428.439 116.953 428.94 115.087C429.439 113.23 430.632 111.606 432.617 110.358L432.617 110.358L432.621 110.355C437.528 107.201 442.872 105.816 448.436 106.743C454.56 107.783 459.074 111.473 461.984 117.061C463.597 120.18 464.617 123.398 465.135 126.902C465.102 127.028 465.069 127.155 465.035 127.281L464.977 127.5L465.102 127.688L465.34 128.044L466.252 127.707C466.222 127.456 466.189 127.206 466.154 126.958C467.493 121.782 468.242 116.635 466.835 111.356C466.679 110.731 466.748 110.28 466.932 109.963C467.116 109.646 467.463 109.383 468.028 109.228C468.597 109.073 468.887 109.155 469.072 109.302C469.291 109.476 469.495 109.839 469.668 110.524C470.718 115.431 470.487 120.234 469.661 125.188L469.661 125.192C468.953 129.672 467.776 133.907 465.896 138.02L465.894 138.025C463.092 144.329 458.184 148.781 452.948 153.303C450.806 155.127 448.614 156.906 446.418 158.689C439.644 164.189 432.829 169.722 427.323 176.673L427.322 176.673C423.744 181.205 420.648 186.109 421.633 192.514L421.634 192.517C421.953 194.499 423.394 196.875 425.179 198.796C426.955 200.708 429.192 202.297 431.208 202.561C432.819 202.826 434.792 202.091 436.464 200.966C438.151 199.831 439.664 198.213 440.307 196.54L440.308 196.536C441.424 193.562 440.747 190.478 438.27 189.37C436.937 188.708 435.084 188.697 433.46 189.115C431.846 189.53 430.274 190.417 429.643 191.743C429.255 192.516 428.825 192.93 428.433 193.089C428.071 193.235 427.654 193.199 427.169 192.86L427.16 192.854L427.151 192.848C426.654 192.532 426.498 192.141 426.52 191.689C426.544 191.194 426.786 190.602 427.18 189.98C428.18 188.539 429.519 187.637 431.146 186.823C436.474 184.217 442.87 187.071 443.986 192.654L443.986 192.654L443.989 192.667C444.495 194.893 443.512 196.839 442.491 198.861C442.411 199.02 442.33 199.179 442.25 199.339C441.24 201.186 439.248 202.935 437.02 204.122C434.781 205.314 432.415 205.88 430.68 205.503C426.418 204.464 423.083 201.934 420.893 198.245L420.891 198.242C419.038 195.173 418.323 192.151 418.495 189.167C418.668 186.177 419.733 183.192 421.488 180.209L421.488 180.209L421.493 180.201C425.602 172.921 431.83 167.39 438.136 161.797C438.418 161.582 438.626 161.336 438.829 161.089C438.848 161.066 438.867 161.043 438.886 161.02C439.081 160.783 439.293 160.525 439.599 160.218L440.63 159.188L439.184 159.368C437.592 159.567 436.119 159.89 434.726 160.195C434.431 160.26 434.139 160.324 433.851 160.386C432.191 160.742 430.63 161.029 429.022 161.029C428.946 161.029 428.871 161.029 428.798 161.03C428.57 161.031 428.354 161.032 428.14 161.02C427.86 161.005 427.63 160.968 427.447 160.898C427.274 160.832 427.154 160.74 427.07 160.609C426.983 160.471 426.907 160.246 426.907 159.864C426.907 159.152 427.128 158.78 427.424 158.552C427.754 158.3 428.259 158.161 428.945 158.104L428.953 158.103L428.962 158.102C437.088 157.146 444.787 155.109 451.655 150.29C455.446 147.721 457.87 143.944 459.787 139.992C461.73 135.983 462.461 131.486 461.853 127.107C461.009 120.357 458.458 114.595 452.091 111.044L452.088 111.042C446.039 107.709 438.213 109.575 433.466 113.348L433.465 113.349C432.455 114.156 431.842 115.409 431.634 116.706C431.426 118.003 431.613 119.403 432.276 120.53C434.851 124.943 438.779 127.514 443.651 128.611C445.971 129.155 447.698 127.629 448.999 126.21C449.227 125.98 449.401 125.693 449.54 125.43C449.624 125.272 449.711 125.088 449.79 124.924C449.836 124.827 449.879 124.737 449.917 124.662L449.925 124.646L449.931 124.631C450.379 123.555 450.736 122.585 450.918 121.745C451.099 120.916 451.129 120.134 450.83 119.488C450.516 118.81 449.896 118.392 449.035 118.185C448.189 117.981 447.061 117.965 445.615 118.116ZM445.615 118.116C445.615 118.116 445.615 118.116 445.616 118.116L445.665 118.613L445.614 118.116C445.614 118.116 445.614 118.116 445.615 118.116Z" stroke="#3F2771"/>
<path d="M492.861 101.73C496.784 103.156 499.043 106.366 501.064 109.695C506.09 117.847 507.758 127.048 509.42 136.215C509.527 136.806 509.634 137.397 509.742 137.988C509.98 139.296 510.218 140.128 511.763 140.009L511.725 139.51C511.719 139.511 511.712 139.511 511.706 139.512M492.861 101.73L511.706 139.512M492.861 101.73C491.673 101.373 490.84 100.422 491.316 98.9954L492.861 101.73ZM511.706 139.512C512.361 139.408 512.673 139.174 512.857 138.844C513.05 138.5 513.145 137.984 513.162 137.2C512.725 135.312 512.351 133.341 511.972 131.343C511.839 130.645 511.706 129.944 511.57 129.242C511.036 126.497 510.445 123.724 509.621 121.016C507.724 114.851 505.487 109.097 501.622 104.178L501.621 104.178C499.502 101.469 497.224 99.2188 493.85 98.5381C493.717 98.5207 493.552 98.4927 493.4 98.4668C493.294 98.4487 493.194 98.4317 493.116 98.4202C492.876 98.3849 492.677 98.3707 492.507 98.3919C492.347 98.4119 492.225 98.462 492.123 98.5526C492.016 98.6467 491.894 98.8177 491.794 99.1424L491.79 99.1536L491.79 99.1535C491.594 99.7411 491.68 100.175 491.885 100.493C492.1 100.827 492.49 101.096 493.005 101.251L493.019 101.255L493.032 101.26C497.132 102.751 499.468 106.102 501.491 109.434C506.567 117.669 508.25 126.958 509.908 136.105C510.017 136.703 510.125 137.301 510.234 137.898L510.234 137.899C510.358 138.579 510.463 138.982 510.655 139.223C510.794 139.4 511.042 139.56 511.706 139.512Z" stroke="#3F2771"/>
<path d="M457.086 38.1712L457.086 38.1712L457.08 38.1682C456.442 37.8201 455.94 37.4525 455.669 37.0397C455.426 36.6706 455.343 36.2305 455.63 35.6079C455.805 35.2334 456.005 35.0281 456.192 34.9147C456.379 34.8013 456.592 34.7563 456.832 34.7675C457.338 34.791 457.901 35.0595 458.359 35.3459L458.369 35.3518L458.378 35.3573C465.696 39.488 471.916 44.7791 476.019 52.1645L476.021 52.1673C478.604 56.7466 480.233 61.7702 480.117 67.1274L480.106 67.6383H480.236V67.6402V67.647V67.6538V67.6606V67.6674V67.6742V67.681V67.6878V67.6945V67.7013V67.7081V67.7149V67.7216V67.7284V67.7352V67.7419V67.7487V67.7555V67.7622V67.769V67.7758V67.7825V67.7893V67.796V67.8028V67.8095V67.8163V67.823V67.8298V67.8365V67.8433V67.85V67.8567V67.8635V67.8702V67.8769V67.8837V67.8904V67.8971V67.9039V67.9106V67.9173V67.924V67.9308V67.9375V67.9442V67.9509V67.9576V67.9644V67.9711V67.9778V67.9845V67.9912V67.9979V68.0046V68.0113V68.018V68.0247V68.0314V68.0381V68.0448V68.0515V68.0582V68.0649V68.0716V68.0783V68.085V68.0917V68.0984V68.1051V68.1117V68.1184V68.1251V68.1318V68.1385V68.1452V68.1518V68.1585V68.1652V68.1719V68.1785V68.1852V68.1919V68.1986V68.2052V68.2119V68.2186V68.2252V68.2319V68.2386V68.2452V68.2519V68.2585V68.2652V68.2719V68.2785V68.2852V68.2918V68.2985V68.3052V68.3118V68.3185V68.3251V68.3318V68.3384V68.3451V68.3517V68.3584V68.365V68.3717V68.3783V68.3849V68.3916V68.3982V68.4049V68.4115V68.4182V68.4248V68.4314V68.4381V68.4447V68.4514V68.458V68.4646V68.4713V68.4779V68.4845V68.4912V68.4978V68.5044V68.5111V68.5177V68.5243V68.531V68.5376V68.5442V68.5509V68.5575V68.5641V68.5707V68.5774V68.584V68.5906V68.5973V68.6039V68.6105V68.6171V68.6238V68.6304V68.637V68.6436V68.6502V68.6569V68.6635V68.6701V68.6767V68.6834V68.69V68.6966V68.7032V68.7098V68.7165V68.7231V68.7297V68.7363V68.7429V68.7496V68.7562V68.7628V68.7694V68.776V68.7826V68.7893V68.7959V68.8025V68.8091V68.8157V68.8224V68.829V68.8356V68.8422V68.8488V68.8554V68.8621V68.8687V68.8753V68.8819V68.8885V68.8951V68.9018V68.9084V68.915V68.9216V68.9282V68.9349V68.9415V68.9481V68.9547V68.9613V68.9679V68.9746V68.9812V68.9878V68.9944V69.001V69.0077V69.0143V69.0209V69.0275V69.0341V69.0408V69.0474V69.054V69.0606V69.0672V69.0739V69.0805V69.0871V69.0937V69.1004V69.107V69.1136V69.1202V69.1269V69.1335V69.1401V69.1467V69.1534V69.16V69.1666V69.1733V69.1799V69.1865V69.1931V69.1998V69.2064V69.213V69.2197V69.2263V69.2329V69.2396V69.2462V69.2528V69.2595V69.2661V69.2728V69.2794V69.286V69.2927V69.2993V69.306V69.3126V69.3192V69.3259V69.3325V69.3392V69.3458V69.3525V69.3591V69.3658V69.3724V69.3791V69.3857V69.3924V69.399V69.4057V69.4123V69.419V69.4256V69.4323V69.4389V69.4456V69.4523V69.4589V69.4656V69.4722V69.4789V69.4856V69.4922V69.4989V69.5056V69.5122V69.5189V69.5256V69.5322V69.5389V69.5456V69.5523V69.5589V69.5656V69.5723V69.579V69.5856V69.5923V69.599V69.6057V69.6124V69.6191V69.6257V69.6324V69.6391V69.6458V69.6525V69.6592V69.6659V69.6726V69.6793V69.686V69.6927V69.6994V69.7061V69.7128V69.7195V69.7262V69.7329V69.7396V69.7463V69.753V69.7598V69.7665V69.7732V69.7799V69.7866V69.7933V69.8001V69.8068V69.8135V69.8202V69.827V69.8337V69.8404V69.8472V69.8539V69.8606V69.8674V69.8741V69.8809V69.8876V69.8943V69.9011V69.9078V69.9146V69.9213V69.9281V69.9348V69.9416V69.9484V69.9551V69.9619V69.9686V69.9754V69.9822V69.9889V69.9957V70.0025V70.0093V70.016V70.0228V70.0296V70.0364V70.0431V70.0499V70.0567V70.0635V70.0703V70.0771V70.0839V70.0907V70.0975V70.1043V70.1111V70.1179V70.1247V70.1315V70.1383V70.1451V70.1519V70.1588V70.1656V70.1724V70.1792V70.186V70.1929V70.1997V70.2065V70.2134V70.2202V70.227V70.2339V70.2407V70.2476V70.2544V70.2613V70.2681V70.275V70.2818V70.2887V70.2955V70.3024V70.3093V70.3161V70.323V70.3299V70.3367V70.3436V70.3505V70.3574V70.3643V70.3711V70.378V70.3849V70.3918V70.3987V70.4056V70.4125V70.4194V70.4263V70.4332V70.4401V70.447V70.4539V70.4609V70.4678V70.4747V70.4816V70.4886V70.4955V70.5024V70.5094V70.5163V70.5232V70.5302V70.5371V70.5441V70.551V70.558V70.5649V70.5719V70.5788V70.5858C480.236 71.2829 480.143 71.7387 479.942 72.019C479.771 72.2584 479.45 72.4634 478.715 72.4634C477.958 72.4634 477.644 72.2757 477.482 72.0565C477.29 71.7978 477.195 71.3546 477.194 70.5955C477.493 62.9519 475.625 56.609 472.087 51.2882C468.554 45.9722 463.372 41.7036 457.086 38.1712Z" stroke="#3F2771"/>
<path d="M503.662 306.122C503.076 309.637 501.902 313.165 500.483 316.593C496.94 325.096 492.106 332.518 485.16 338.64L485.159 338.641C479.994 343.219 473.878 346.283 467.376 348.648C466.751 348.854 466.196 348.839 465.781 348.671C465.378 348.508 465.069 348.186 464.931 347.681C464.797 347.187 464.907 346.857 465.15 346.584C465.422 346.278 465.889 346.016 466.516 345.788C475.514 342.787 483.083 337.742 489.09 330.294L489.092 330.291C494.122 323.944 497.843 316.987 499.883 309.184L499.886 309.175L499.888 309.166C499.978 308.76 500.123 308.375 500.285 307.947C500.319 307.857 500.354 307.766 500.389 307.671C500.584 307.144 500.782 306.559 500.848 305.897L500.851 305.873V305.848C500.851 305.208 501.012 304.721 501.288 304.413C501.549 304.121 501.979 303.918 502.693 303.969L502.711 303.97H502.728C503.142 303.97 503.35 304.055 503.459 304.135C503.561 304.209 503.635 304.324 503.684 304.524C503.736 304.736 503.748 304.999 503.75 305.328C503.75 305.388 503.75 305.45 503.75 305.514C503.75 305.54 503.75 305.566 503.75 305.593L503.662 306.122Z" stroke="#3F2771"/>
</svg>
